<?xml version="1.0" encoding="UTF-8"?>
<svg xmlns="http://www.w3.org/2000/svg" xmlns:xlink="http://www.w3.org/1999/xlink" width="1190.25pt" height="1683.749945pt" viewBox="0 0 1190.25 1683.749945" version="1.2">
<defs>
<clipPath id="clip1">
  <path d="M 643 357.066406 L 721 357.066406 L 721 437 L 643 437 Z M 643 357.066406 "/>
</clipPath>
<clipPath id="clip2">
  <path d="M 496 834 L 825 834 L 825 1327.363281 L 496 1327.363281 Z M 496 834 "/>
</clipPath>
<clipPath id="clip3">
  <path d="M 531 895 L 680 895 L 680 1327.363281 L 531 1327.363281 Z M 531 895 "/>
</clipPath>
<clipPath id="clip4">
  <path d="M 694 835 L 842 835 L 842 1327.363281 L 694 1327.363281 Z M 694 835 "/>
</clipPath>
<clipPath id="clip5">
  <path d="M 451 846 L 655 846 L 655 1327.363281 L 451 1327.363281 Z M 451 846 "/>
</clipPath>
<clipPath id="clip6">
  <path d="M 451 873 L 516 873 L 516 1327.363281 L 451 1327.363281 Z M 451 873 "/>
</clipPath>
<clipPath id="clip7">
  <path d="M 528 1239 L 610 1239 L 610 1327.363281 L 528 1327.363281 Z M 528 1239 "/>
</clipPath>
</defs>
<g id="surface1">
<path style=" stroke:none;fill-rule:nonzero;fill:rgb(12.548828%,13.328552%,21.179199%);fill-opacity:1;" d="M 439.773438 980.292969 C 439.773438 980.292969 417.070312 1055.476562 441.578125 1086.15625 C 441.578125 1086.15625 409.742188 1253.773438 526.078125 1220.378906 C 642.371094 1186.972656 576.730469 961.785156 576.730469 961.785156 L 439.773438 980.292969 "/>
<path style=" stroke:none;fill-rule:nonzero;fill:rgb(13.328552%,14.118958%,23.139954%);fill-opacity:1;" d="M 745.089844 819.535156 C 745.089844 819.535156 717.863281 831.875 708.03125 867.007812 L 730.695312 873.84375 C 730.695312 873.84375 733.550781 840.15625 760.855469 822.929688 L 745.089844 819.535156 "/>
<path style=" stroke:none;fill-rule:nonzero;fill:rgb(13.328552%,14.118958%,23.139954%);fill-opacity:1;" d="M 499.46875 830.957031 C 499.46875 830.957031 472.207031 843.277344 462.402344 878.398438 L 485.046875 885.226562 C 485.046875 885.226562 487.890625 851.546875 515.207031 834.339844 L 499.46875 830.957031 "/>
<g clip-path="url(#clip1)" clip-rule="nonzero">
<path style=" stroke:none;fill-rule:nonzero;fill:rgb(97.24884%,64.309692%,49.01886%);fill-opacity:1;" d="M 720.519531 400.636719 C 720.519531 400.636719 708.507812 362.152344 672.875 357.132812 C 672.875 357.132812 663.296875 357.023438 662.730469 368.34375 C 662.730469 368.34375 648.558594 367.433594 651.023438 380.492188 C 651.023438 380.492188 639.777344 380.582031 646.066406 395.921875 C 646.066406 395.921875 636.074219 405.191406 657.792969 415.191406 C 657.792969 415.191406 656.664062 440.921875 690.679688 436.316406 C 724.699219 431.710938 720.519531 400.636719 720.519531 400.636719 "/>
</g>
<path style=" stroke:none;fill-rule:nonzero;fill:rgb(54.508972%,21.179199%,18.818665%);fill-opacity:1;" d="M 696.011719 378.886719 C 696.210938 380.398438 696.070312 381.996094 695.476562 383.492188 C 695.164062 384.238281 694.757812 384.953125 694.222656 385.601562 C 693.941406 385.902344 693.6875 386.257812 693.347656 386.5 C 693.011719 386.753906 692.679688 387.023438 692.328125 387.246094 C 691.578125 387.652344 690.8125 388.003906 689.996094 388.195312 C 689.1875 388.5 688.371094 388.457031 687.542969 388.589844 C 686.734375 388.601562 685.917969 388.589844 685.109375 388.550781 L 682.746094 388.195312 L 684.402344 386.773438 C 684.433594 387.328125 684.414062 387.710938 684.363281 388.15625 C 684.320312 388.589844 684.242188 389.003906 684.148438 389.429688 C 683.929688 390.246094 683.644531 391.074219 683.222656 391.820312 C 682.808594 392.570312 682.292969 393.265625 681.707031 393.882812 C 681.140625 394.507812 680.484375 395.0625 679.789062 395.519531 C 679.113281 396.011719 678.386719 396.394531 677.648438 396.730469 C 676.914062 397.09375 676.136719 397.273438 675.378906 397.558594 C 674.613281 397.730469 673.84375 397.910156 673.078125 398.0625 L 670.765625 398.355469 L 672.058594 396.566406 C 672.160156 397.152344 672.179688 397.558594 672.167969 398.050781 C 672.167969 398.527344 672.117188 398.992188 672.039062 399.464844 C 671.867188 400.414062 671.503906 401.363281 670.90625 402.191406 C 670.320312 403.011719 669.523438 403.6875 668.644531 404.082031 C 667.789062 404.527344 666.890625 404.707031 666.011719 404.859375 L 666.636719 403.019531 C 667.0625 403.554688 667.332031 404.019531 667.585938 404.574219 C 667.828125 405.113281 668.011719 405.707031 668.101562 406.324219 C 668.160156 406.9375 668.160156 407.59375 667.9375 408.210938 C 667.769531 408.828125 667.394531 409.382812 666.96875 409.796875 C 666.566406 410.25 666.0625 410.515625 665.585938 410.828125 C 665.09375 411.050781 664.589844 411.28125 664.074219 411.421875 C 663.558594 411.542969 663.0625 411.714844 662.527344 411.777344 L 660.984375 411.976562 L 662.417969 411.394531 C 662.890625 411.210938 663.335938 410.949219 663.789062 410.734375 C 664.234375 410.503906 664.617188 410.191406 665.011719 409.9375 C 665.355469 409.605469 665.730469 409.3125 665.949219 408.9375 C 666.203125 408.59375 666.34375 408.203125 666.394531 407.816406 C 666.476562 407.445312 666.40625 407.050781 666.3125 406.667969 C 666.191406 406.273438 666.03125 405.878906 665.777344 405.515625 C 665.566406 405.160156 665.253906 404.769531 665.011719 404.515625 L 663.738281 403.210938 L 665.636719 402.675781 C 666.304688 402.496094 666.949219 402.285156 667.476562 401.941406 C 668.019531 401.628906 668.402344 401.171875 668.707031 400.699219 C 669.007812 400.222656 669.199219 399.648438 669.273438 399.03125 C 669.300781 398.730469 669.320312 398.40625 669.300781 398.09375 C 669.292969 397.789062 669.230469 397.40625 669.191406 397.214844 L 668.808594 395.679688 L 670.484375 395.425781 L 672.542969 395.113281 C 673.207031 394.960938 673.863281 394.789062 674.519531 394.628906 C 675.136719 394.386719 675.800781 394.214844 676.378906 393.910156 C 676.972656 393.640625 677.558594 393.355469 678.074219 392.992188 C 678.609375 392.648438 679.101562 392.257812 679.527344 391.8125 C 679.960938 391.378906 680.335938 390.882812 680.636719 390.355469 C 680.96875 389.832031 681.214844 389.265625 681.394531 388.691406 C 681.484375 388.398438 681.578125 388.09375 681.605469 387.792969 C 681.675781 387.519531 681.6875 387.15625 681.699219 386.984375 L 681.808594 385.21875 L 685.441406 386.023438 C 686.128906 386.125 686.824219 386.195312 687.523438 386.265625 C 688.1875 386.21875 688.914062 386.328125 689.5625 386.15625 C 690.238281 386.105469 690.863281 385.894531 691.5 385.671875 C 691.8125 385.53125 692.085938 385.359375 692.375 385.195312 C 692.679688 385.046875 692.910156 384.804688 693.195312 384.601562 C 693.71875 384.167969 694.164062 383.632812 694.546875 383.027344 C 695.3125 381.835938 695.800781 380.390625 696.011719 378.886719 "/>
<path style=" stroke:none;fill-rule:nonzero;fill:rgb(54.508972%,21.179199%,18.818665%);fill-opacity:1;" d="M 665.164062 371.886719 C 665.164062 371.886719 666.484375 372.707031 668.34375 374.058594 C 670.21875 375.410156 672.664062 377.269531 675.015625 379.230469 C 676.1875 380.21875 677.355469 381.199219 678.457031 382.128906 C 679.546875 383.046875 680.507812 383.996094 681.40625 384.710938 C 682.28125 385.449219 682.960938 386.136719 683.515625 386.5 C 684.050781 386.925781 684.351562 387.167969 684.351562 387.167969 C 684.351562 387.167969 684 387.035156 683.375 386.761719 C 682.726562 386.5 681.859375 386.046875 680.890625 385.410156 C 678.902344 384.199219 676.40625 382.378906 674.035156 380.421875 C 672.855469 379.441406 671.695312 378.421875 670.625 377.453125 C 669.554688 376.492188 668.625 375.511719 667.789062 374.714844 C 666.164062 373.078125 665.164062 371.886719 665.164062 371.886719 "/>
<path style=" stroke:none;fill-rule:nonzero;fill:rgb(54.508972%,21.179199%,18.818665%);fill-opacity:1;" d="M 653.375 382.1875 C 653.375 382.1875 654.605469 383.003906 656.351562 384.347656 C 658.097656 385.683594 660.367188 387.519531 662.558594 389.4375 C 663.640625 390.40625 664.730469 391.378906 665.75 392.285156 C 666.769531 393.195312 667.65625 394.113281 668.496094 394.8125 C 669.3125 395.539062 669.9375 396.203125 670.460938 396.546875 C 670.96875 396.953125 671.261719 397.195312 671.261719 397.195312 C 671.261719 397.195312 670.925781 397.0625 670.320312 396.808594 C 669.707031 396.558594 668.878906 396.125 667.96875 395.507812 C 666.082031 394.316406 663.75 392.527344 661.550781 390.601562 C 660.4375 389.628906 659.371094 388.640625 658.378906 387.679688 C 657.390625 386.730469 656.53125 385.773438 655.765625 384.984375 C 654.273438 383.371094 653.375 382.1875 653.375 382.1875 "/>
<path style=" stroke:none;fill-rule:nonzero;fill:rgb(54.508972%,21.179199%,18.818665%);fill-opacity:1;" d="M 650.929688 396.425781 C 650.929688 396.425781 652.019531 396.769531 653.574219 397.4375 C 654.34375 397.78125 655.25 398.152344 656.179688 398.628906 C 657.117188 399.101562 658.109375 399.617188 659.097656 400.121094 C 661.054688 401.132812 662.941406 402.304688 664.347656 403.242188 C 665.75 404.183594 666.648438 404.929688 666.648438 404.929688 C 666.648438 404.929688 665.566406 404.65625 664.003906 404.039062 C 662.429688 403.433594 660.359375 402.535156 658.351562 401.476562 C 656.339844 400.445312 654.523438 399.152344 653.152344 398.183594 C 651.777344 397.195312 650.929688 396.425781 650.929688 396.425781 "/>
<path style=" stroke:none;fill-rule:nonzero;fill:rgb(54.508972%,21.179199%,18.818665%);fill-opacity:1;" d="M 660.601562 414.109375 C 660.601562 414.109375 662.488281 411.957031 665.910156 409.394531 C 667.605469 408.089844 669.726562 406.738281 672.167969 405.503906 C 672.816406 405.242188 673.472656 404.96875 674.136719 404.707031 L 675.136719 404.304688 L 676.265625 404.0625 C 677.042969 403.941406 677.75 403.707031 678.597656 403.699219 C 679.246094 403.65625 680.074219 403.707031 680.929688 403.789062 C 682.503906 404.0625 684.140625 404.585938 685.511719 405.828125 C 686.964844 407.039062 687.441406 409.261719 687.058594 410.796875 C 686.957031 411.636719 686.59375 412.28125 686.320312 412.96875 C 685.957031 413.5625 685.613281 414.167969 685.230469 414.683594 C 684.828125 415.191406 684.433594 415.664062 684.058594 416.128906 C 683.625 416.542969 683.222656 416.945312 682.828125 417.320312 C 682.070312 418.109375 681.242188 418.664062 680.566406 419.207031 C 679.902344 419.765625 679.234375 420.148438 678.710938 420.492188 C 677.660156 421.15625 677.054688 421.511719 677.054688 421.511719 C 677.054688 421.511719 677.507812 420.964844 678.316406 420.027344 C 678.71875 419.5625 679.222656 419.015625 679.75 418.351562 C 680.273438 417.683594 680.929688 416.988281 681.503906 416.140625 C 682.140625 415.332031 682.71875 414.402344 683.292969 413.441406 C 683.566406 412.957031 683.746094 412.433594 684 411.917969 C 684.089844 411.414062 684.382812 410.878906 684.363281 410.394531 C 684.492188 409.371094 684.179688 408.636719 683.503906 408.03125 C 682.796875 407.414062 681.667969 407.019531 680.484375 406.847656 C 679.941406 406.789062 679.375 406.707031 678.628906 406.738281 C 678.074219 406.726562 677.4375 406.917969 676.851562 406.988281 C 675.660156 407.082031 674.417969 407.695312 673.238281 408 C 672.085938 408.523438 670.925781 408.9375 669.855469 409.433594 C 668.808594 409.980469 667.769531 410.402344 666.839844 410.886719 C 663.105469 412.828125 660.601562 414.109375 660.601562 414.109375 "/>
<path style=" stroke:none;fill-rule:nonzero;fill:rgb(97.24884%,64.309692%,49.01886%);fill-opacity:1;" d="M 390.179688 427.863281 C 390.179688 427.863281 391.523438 387.582031 424.5625 373.261719 C 424.5625 373.261719 433.738281 370.636719 437.339844 381.390625 C 437.339844 381.390625 450.746094 376.753906 451.84375 389.992188 C 451.84375 389.992188 462.695312 387.117188 460.699219 403.578125 C 460.699219 403.578125 472.8125 409.847656 454.480469 425.246094 C 454.480469 425.246094 462.402344 449.738281 428.386719 454.339844 C 394.371094 458.945312 390.179688 427.863281 390.179688 427.863281 "/>
<path style=" stroke:none;fill-rule:nonzero;fill:rgb(54.508972%,21.179199%,18.818665%);fill-opacity:1;" d="M 408.027344 400.414062 C 408.632812 401.800781 409.480469 403.0625 410.539062 404.019531 C 411.589844 404.988281 412.863281 405.554688 414.175781 405.746094 C 414.851562 405.796875 415.507812 405.828125 416.171875 405.695312 C 416.839844 405.6875 417.515625 405.394531 418.171875 405.273438 C 418.828125 405.011719 419.472656 404.757812 420.109375 404.464844 L 421.996094 403.476562 L 423.402344 402.726562 L 423.976562 404.40625 C 424.035156 404.574219 424.136719 404.910156 424.269531 405.171875 C 424.390625 405.445312 424.5625 405.707031 424.710938 405.96875 C 425.046875 406.484375 425.441406 406.960938 425.882812 407.375 C 426.316406 407.796875 426.8125 408.171875 427.347656 408.472656 C 427.871094 408.789062 428.449219 409.050781 429.0625 409.230469 C 429.660156 409.445312 430.292969 409.566406 430.941406 409.664062 C 431.578125 409.808594 432.253906 409.785156 432.917969 409.867188 C 433.59375 409.847656 434.273438 409.835938 434.957031 409.808594 L 437.015625 409.554688 L 438.703125 409.363281 L 438.742188 410.9375 C 438.753906 411.140625 438.792969 411.523438 438.875 411.816406 C 438.933594 412.128906 439.035156 412.421875 439.148438 412.714844 C 439.378906 413.292969 439.710938 413.796875 440.125 414.179688 C 440.558594 414.554688 441.042969 414.898438 441.660156 415.046875 C 442.246094 415.25 442.933594 415.28125 443.628906 415.289062 L 445.585938 415.300781 L 444.710938 416.886719 C 444.539062 417.199219 444.34375 417.652344 444.234375 418.058594 C 444.09375 418.472656 444.03125 418.894531 444.023438 419.300781 C 444.042969 419.703125 444.074219 420.097656 444.265625 420.441406 C 444.40625 420.792969 444.648438 421.136719 444.992188 421.398438 C 445.292969 421.703125 445.738281 421.886719 446.152344 422.117188 C 446.605469 422.25 447.0625 422.460938 447.546875 422.5625 C 448.523438 422.785156 449.542969 422.90625 450.582031 423.007812 L 449.039062 423.238281 C 448.515625 423.320312 447.988281 423.277344 447.453125 423.300781 C 446.917969 423.300781 446.375 423.207031 445.828125 423.128906 C 445.292969 422.957031 444.738281 422.835938 444.234375 422.5 C 443.710938 422.21875 443.203125 421.785156 442.871094 421.238281 C 442.5 420.703125 442.316406 420.066406 442.214844 419.453125 C 442.136719 418.835938 442.144531 418.21875 442.246094 417.632812 C 442.335938 417.027344 442.476562 416.503906 442.75 415.875 L 443.832031 417.480469 C 442.953125 417.574219 442.035156 417.625 441.085938 417.421875 C 440.148438 417.28125 439.1875 416.835938 438.398438 416.199219 C 437.613281 415.5625 437.015625 414.734375 436.605469 413.867188 C 436.390625 413.433594 436.21875 412.988281 436.089844 412.535156 C 435.957031 412.070312 435.867188 411.664062 435.804688 411.078125 L 437.53125 412.453125 L 435.230469 412.785156 C 434.445312 412.847656 433.65625 412.878906 432.867188 412.90625 C 432.070312 412.847656 431.273438 412.867188 430.464844 412.714844 C 429.660156 412.59375 428.863281 412.414062 428.074219 412.121094 C 427.285156 411.867188 426.507812 411.503906 425.792969 411.050781 C 425.066406 410.613281 424.390625 410.078125 423.792969 409.472656 C 423.179688 408.867188 422.683594 408.152344 422.261719 407.402344 C 422.066406 407.03125 421.867188 406.644531 421.714844 406.242188 C 421.554688 405.828125 421.433594 405.464844 421.3125 404.917969 L 423.289062 405.847656 L 421.097656 406.816406 C 420.332031 407.082031 419.542969 407.304688 418.765625 407.515625 C 417.941406 407.59375 417.164062 407.847656 416.304688 407.789062 C 415.464844 407.816406 414.628906 407.675781 413.8125 407.484375 C 413.398438 407.363281 413.015625 407.191406 412.621094 407.039062 C 412.214844 406.898438 411.882812 406.625 411.53125 406.414062 C 411.167969 406.203125 410.894531 405.878906 410.582031 405.625 C 410.269531 405.355469 410.035156 405.011719 409.761719 404.707031 C 408.804688 403.425781 408.238281 401.921875 408.027344 400.414062 "/>
<path style=" stroke:none;fill-rule:nonzero;fill:rgb(54.508972%,21.179199%,18.818665%);fill-opacity:1;" d="M 435.90625 385.449219 C 435.90625 385.449219 435.269531 386.875 434.140625 388.882812 C 433.546875 389.871094 432.898438 391.0625 432.121094 392.277344 C 431.355469 393.496094 430.507812 394.78125 429.628906 396.042969 C 427.863281 398.558594 425.933594 400.980469 424.347656 402.675781 C 423.582031 403.546875 422.867188 404.210938 422.308594 404.636719 C 421.773438 405.070312 421.472656 405.28125 421.472656 405.28125 C 421.472656 405.28125 421.703125 404.96875 422.097656 404.414062 C 422.542969 403.929688 423.007812 403.082031 423.664062 402.132812 C 424.339844 401.214844 425.003906 400.042969 425.824219 398.859375 C 426.628906 397.679688 427.5 396.417969 428.355469 395.152344 C 430.113281 392.640625 431.980469 390.207031 433.414062 388.398438 C 434.855469 386.589844 435.90625 385.449219 435.90625 385.449219 "/>
<path style=" stroke:none;fill-rule:nonzero;fill:rgb(54.508972%,21.179199%,18.818665%);fill-opacity:1;" d="M 450.019531 392.277344 C 450.019531 392.277344 449.453125 393.640625 448.445312 395.597656 C 447.910156 396.558594 447.34375 397.710938 446.636719 398.878906 C 445.941406 400.0625 445.171875 401.3125 444.367188 402.535156 C 442.75 404.980469 440.972656 407.324219 439.480469 408.957031 C 438.773438 409.808594 438.085938 410.445312 437.5625 410.847656 C 437.058594 411.261719 436.765625 411.464844 436.765625 411.464844 C 436.765625 411.464844 436.976562 411.160156 437.359375 410.636719 C 437.773438 410.160156 438.1875 409.34375 438.785156 408.433594 C 439.410156 407.546875 440.015625 406.414062 440.761719 405.273438 C 441.5 404.121094 442.285156 402.898438 443.074219 401.679688 C 444.679688 399.253906 446.382812 396.882812 447.71875 395.132812 C 449.039062 393.375 450.019531 392.277344 450.019531 392.277344 "/>
<path style=" stroke:none;fill-rule:nonzero;fill:rgb(54.508972%,21.179199%,18.818665%);fill-opacity:1;" d="M 456.125 405.34375 C 456.125 405.34375 455.519531 406.3125 454.46875 407.636719 C 453.410156 408.9375 451.957031 410.65625 450.339844 412.199219 C 448.714844 413.746094 447.070312 415.238281 445.636719 416.199219 C 444.234375 417.179688 443.253906 417.714844 443.253906 417.714844 C 443.253906 417.714844 443.953125 416.773438 445.0625 415.542969 C 445.648438 414.957031 446.261719 414.210938 446.980469 413.433594 C 447.6875 412.664062 448.472656 411.886719 449.261719 411.101562 C 450.078125 410.34375 450.867188 409.554688 451.652344 408.867188 C 452.429688 408.160156 453.207031 407.566406 453.855469 407.019531 C 455.167969 405.96875 456.125 405.34375 456.125 405.34375 "/>
<path style=" stroke:none;fill-rule:nonzero;fill:rgb(54.508972%,21.179199%,18.818665%);fill-opacity:1;" d="M 451.503906 424.953125 C 451.503906 424.953125 448.757812 424.378906 444.628906 423.519531 C 443.609375 423.300781 442.488281 423.15625 441.335938 422.914062 C 440.175781 422.722656 438.933594 422.621094 437.695312 422.429688 C 436.472656 422.441406 435.121094 422.1875 433.9375 422.410156 C 433.351562 422.5 432.6875 422.460938 432.164062 422.632812 C 431.425781 422.804688 430.910156 423.035156 430.394531 423.238281 C 429.304688 423.714844 428.316406 424.398438 427.8125 425.175781 C 427.316406 425.933594 427.207031 426.730469 427.609375 427.691406 C 427.722656 428.167969 428.144531 428.601562 428.375 429.066406 C 428.75 429.488281 429.074219 429.945312 429.457031 430.335938 C 430.273438 431.125 431.070312 431.851562 431.898438 432.46875 C 432.675781 433.136719 433.496094 433.628906 434.171875 434.144531 C 434.855469 434.648438 435.492188 435.035156 436.007812 435.375 C 437.039062 436.074219 437.621094 436.46875 437.621094 436.46875 C 437.621094 436.46875 436.9375 436.296875 435.746094 435.933594 C 435.148438 435.742188 434.414062 435.546875 433.617188 435.183594 C 432.816406 434.832031 431.878906 434.527344 430.929688 433.964844 C 430.457031 433.699219 429.960938 433.425781 429.4375 433.144531 C 428.953125 432.792969 428.449219 432.4375 427.921875 432.0625 C 427.40625 431.660156 426.933594 431.164062 426.410156 430.691406 C 425.964844 430.105469 425.449219 429.570312 425.125 428.800781 C 424.339844 427.417969 424.199219 425.148438 425.277344 423.589844 C 426.265625 422.027344 427.710938 421.078125 429.152344 420.410156 C 429.953125 420.097656 430.75 419.824219 431.386719 419.703125 C 432.203125 419.472656 432.949219 419.523438 433.726562 419.429688 L 434.878906 419.359375 L 435.957031 419.480469 C 436.664062 419.5625 437.371094 419.652344 438.058594 419.734375 C 440.742188 420.269531 443.144531 421.015625 445.132812 421.8125 C 449.109375 423.390625 451.503906 424.953125 451.503906 424.953125 "/>
<path style=" stroke:none;fill-rule:nonzero;fill:rgb(71.759033%,14.118958%,19.219971%);fill-opacity:1;" d="M 756.566406 414.9375 C 756.566406 414.9375 741.351562 388.902344 730.765625 388.75 C 720.238281 388.640625 660.539062 446.210938 694.65625 472.226562 L 756.566406 414.9375 "/>
<path style=" stroke:none;fill-rule:nonzero;fill:rgb(98.429871%,94.898987%,81.568909%);fill-opacity:1;" d="M 762.410156 851.054688 C 762.410156 851.054688 786.566406 977.757812 811.324219 1002.269531 C 811.324219 1002.269531 929.75 808.144531 934.242188 691.273438 C 934.242188 691.273438 940.722656 657.746094 864.742188 557.78125 C 792.410156 462.644531 787.632812 444.546875 770.816406 416.128906 C 754.03125 387.679688 720.207031 426.097656 700.128906 450.65625 C 680.0625 475.214844 716.472656 513.984375 732.824219 519.566406 C 749.195312 525.164062 776.347656 588.449219 787.484375 628.371094 C 787.484375 628.371094 806.671875 690.234375 819.097656 697.324219 C 819.097656 697.324219 808.972656 718.78125 822.449219 722.207031 C 822.449219 722.207031 807.902344 729.464844 804.480469 754.410156 C 801.078125 779.332031 794.527344 782.738281 785.425781 793.328125 C 776.320312 803.921875 762.15625 830.007812 762.410156 851.054688 "/>
<path style=" stroke:none;fill-rule:nonzero;fill:rgb(84.709167%,81.17981%,63.139343%);fill-opacity:1;" d="M 770.816406 416.128906 C 787.632812 444.546875 792.410156 462.644531 864.742188 557.78125 C 940.722656 657.746094 934.242188 691.273438 934.242188 691.273438 C 929.75 808.144531 811.324219 1002.269531 811.324219 1002.269531 C 797 988.101562 782.890625 939.738281 773.53125 901.496094 C 808.023438 850.640625 887.324219 773.707031 901.261719 724.183594 C 919.160156 660.453125 868.609375 597.953125 843.28125 560.679688 C 817.988281 523.414062 777.933594 446.382812 760.351562 431.589844 C 747.824219 421.078125 713.503906 452.917969 694.65625 472.226562 C 693.488281 464.640625 694.820312 457.160156 700.128906 450.65625 C 720.207031 426.097656 754.03125 387.679688 770.816406 416.128906 "/>
<path style=" stroke:none;fill-rule:nonzero;fill:rgb(71.759033%,14.118958%,19.219971%);fill-opacity:1;" d="M 917.160156 638.054688 C 937.046875 676.703125 934.242188 691.273438 934.242188 691.273438 C 933.613281 707.695312 930.726562 725.609375 926.265625 744.300781 C 868.546875 698.746094 892.53125 659.96875 917.160156 638.054688 "/>
<path style=" stroke:none;fill-rule:nonzero;fill:rgb(71.759033%,14.118958%,19.219971%);fill-opacity:1;" d="M 362.441406 453.644531 C 362.441406 453.644531 370.214844 424.511719 380.328125 421.582031 C 390.492188 418.652344 463.300781 458.300781 437.300781 492.453125 L 362.441406 453.644531 "/>
<g clip-path="url(#clip2)" clip-rule="nonzero">
<path style=" stroke:none;fill-rule:nonzero;fill:rgb(98.429871%,94.898987%,81.568909%);fill-opacity:1;" d="M 824.085938 1327.492188 L 758.121094 839.078125 L 673.722656 834.671875 L 567.3125 841.78125 C 567.3125 841.78125 540.339844 853.648438 496.875 867.957031 L 558.945312 1327.492188 L 824.085938 1327.492188 "/>
</g>
<g clip-path="url(#clip3)" clip-rule="nonzero">
<path style=" stroke:none;fill-rule:nonzero;fill:rgb(84.709167%,81.17981%,63.139343%);fill-opacity:1;" d="M 666.96875 1327.492188 C 668.585938 1304.449219 671.421875 1274.960938 676.035156 1237.03125 C 697.695312 1059.679688 603.984375 895.273438 603.984375 895.273438 L 531.519531 905.082031 L 585.238281 1327.492188 L 666.96875 1327.492188 "/>
</g>
<g clip-path="url(#clip4)" clip-rule="nonzero">
<path style=" stroke:none;fill-rule:nonzero;fill:rgb(71.759033%,14.118958%,19.219971%);fill-opacity:1;" d="M 841.566406 1327.492188 L 822.003906 1182.640625 C 822.003906 1182.640625 844.585938 986.082031 763.921875 839.398438 L 694.78125 835.765625 C 705.167969 892.375 752.4375 1155.957031 763.84375 1327.492188 L 841.566406 1327.492188 "/>
</g>
<path style=" stroke:none;fill-rule:nonzero;fill:rgb(45.098877%,10.978699%,14.118958%);fill-opacity:1;" d="M 690.964844 861.738281 C 690.964844 861.738281 739.585938 1198.484375 752.515625 1209.207031 C 765.417969 1219.941406 773.191406 1045.683594 773.191406 1045.683594 L 747.417969 1008.582031 L 774.359375 962.8125 C 774.359375 962.8125 742.242188 836.714844 707.589844 826.269531 C 672.90625 815.820312 690.964844 861.738281 690.964844 861.738281 "/>
<path style=" stroke:none;fill-rule:nonzero;fill:rgb(89.019775%,54.508972%,42.349243%);fill-opacity:1;" d="M 552.855469 760.46875 C 552.855469 760.46875 559.4375 770.757812 564.65625 851.496094 C 568.140625 905.058594 697.625 944.898438 704.046875 854.292969 C 708.03125 798.125 712.421875 787.574219 709.871094 738.6875 L 552.855469 760.46875 "/>
<path style=" stroke:none;fill-rule:nonzero;fill:rgb(86.669922%,63.919067%,55.688477%);fill-opacity:1;" d="M 710.535156 756.441406 C 710.425781 751.066406 710.203125 745.21875 709.871094 738.6875 C 710.214844 745.21875 710.425781 751.066406 710.535156 756.441406 "/>
<path style=" stroke:none;fill-rule:nonzero;fill:rgb(83.139038%,48.239136%,38.038635%);fill-opacity:1;" d="M 647.277344 908.078125 C 609.554688 908.078125 566.65625 882.015625 564.65625 851.496094 C 559.4375 770.757812 552.855469 760.46875 552.855469 760.46875 L 709.871094 738.6875 C 710.203125 745.21875 710.425781 751.066406 710.535156 756.441406 C 710.796875 769.367188 710.445312 779.484375 709.707031 789.59375 C 699.957031 812.152344 676.78125 851.699219 634.265625 851.699219 C 618.429688 851.699219 599.90625 846.207031 578.414062 832.308594 C 578.414062 832.308594 589.195312 901.363281 649.183594 901.363281 C 660.359375 901.363281 673.226562 898.972656 688.046875 893.296875 C 677.488281 903.65625 662.832031 908.078125 647.277344 908.078125 "/>
<path style=" stroke:none;fill-rule:nonzero;fill:rgb(96.469116%,53.729248%,33.329773%);fill-opacity:1;" d="M 549.285156 719.378906 C 549.285156 719.378906 540.1875 707.359375 534.910156 718.621094 C 529.628906 729.871094 543.15625 779.746094 554.472656 757.8125 C 565.796875 735.878906 549.285156 719.378906 549.285156 719.378906 "/>
<path style=" stroke:none;fill-rule:nonzero;fill:rgb(96.469116%,53.729248%,33.329773%);fill-opacity:1;" d="M 702.933594 698.617188 C 702.933594 698.617188 708.539062 684.597656 716.59375 694.0625 C 724.699219 703.503906 724.890625 755.175781 708.125 737.03125 C 691.40625 718.894531 702.933594 698.617188 702.933594 698.617188 "/>
<path style=" stroke:none;fill-rule:nonzero;fill:rgb(97.24884%,64.309692%,49.01886%);fill-opacity:1;" d="M 708.40625 722.761719 C 701.179688 669.035156 677.960938 615.433594 614.351562 624.015625 C 550.777344 632.621094 542.621094 690.464844 549.859375 744.191406 C 556.53125 793.402344 581.25 831.429688 628.671875 831.625 C 632.691406 835.351562 643.601562 842.558594 656.976562 827.613281 C 701.582031 814.394531 714.976562 771.507812 708.40625 722.761719 "/>
<path style=" stroke:none;fill-rule:nonzero;fill:rgb(81.568909%,40.388489%,28.62854%);fill-opacity:1;" d="M 587.417969 762.457031 C 587.417969 762.457031 629.753906 771.730469 679.425781 750.007812 C 679.425781 750.007812 672.683594 796.207031 636.355469 797.660156 C 636.355469 797.660156 595.324219 803.40625 587.417969 762.457031 "/>
<path style=" stroke:none;fill-rule:nonzero;fill:rgb(15.689087%,9.799194%,10.978699%);fill-opacity:1;" d="M 593.636719 765.40625 C 593.636719 765.40625 630.925781 775.03125 672.210938 754.792969 C 672.210938 754.792969 665.34375 787.824219 636.992188 791.652344 C 617.984375 794.207031 604.144531 786.320312 593.636719 765.40625 "/>
<path style=" stroke:none;fill-rule:nonzero;fill:rgb(74.119568%,91.758728%,98.429871%);fill-opacity:1;" d="M 593.636719 765.40625 C 594.464844 767.03125 595.292969 768.519531 596.140625 769.972656 C 606.609375 772.707031 638.089844 778.445312 670.65625 760.15625 C 671.765625 756.90625 672.210938 754.792969 672.210938 754.792969 C 630.925781 775.03125 593.636719 765.40625 593.636719 765.40625 "/>
<path style=" stroke:none;fill-rule:nonzero;fill:rgb(90.589905%,37.649536%,40.388489%);fill-opacity:1;" d="M 622.484375 660.050781 C 622.484375 660.050781 616.277344 659.777344 616.589844 668.378906 C 616.8125 675.308594 621.375 735.242188 618.75 737.515625 C 614.441406 741.171875 606.132812 754.027344 620.902344 753.5625 C 620.902344 753.5625 630.347656 758.519531 637.113281 751.945312 C 637.113281 751.945312 655.675781 745.886719 638.191406 734.484375 C 638.191406 734.484375 628.453125 661.65625 622.484375 660.050781 "/>
<path style=" stroke:none;fill-rule:nonzero;fill:rgb(15.689087%,9.799194%,10.978699%);fill-opacity:1;" d="M 573.941406 712.976562 C 573.941406 712.976562 573.792969 712.300781 573.851562 711.058594 C 573.902344 710.449219 573.992188 709.695312 574.234375 708.84375 C 574.46875 707.996094 574.832031 707.066406 575.375 706.097656 C 575.691406 705.632812 576.003906 705.160156 576.335938 704.65625 C 576.71875 704.199219 577.152344 703.753906 577.597656 703.28125 C 578.09375 702.867188 578.597656 702.441406 579.113281 702.007812 C 579.667969 701.636719 580.273438 701.300781 580.878906 700.9375 C 582.121094 700.351562 583.433594 699.714844 584.835938 699.414062 C 586.21875 698.980469 587.652344 698.878906 589.0625 698.65625 L 591.195312 698.605469 L 592.363281 698.585938 L 593.355469 698.65625 C 594.039062 698.726562 594.605469 698.707031 595.371094 698.910156 C 596.121094 699.089844 596.847656 699.273438 597.574219 699.464844 C 598.25 699.777344 598.925781 700.058594 599.542969 700.402344 C 600.148438 700.785156 600.671875 701.292969 601.199219 701.714844 C 602.117188 702.683594 602.894531 703.726562 603.277344 704.753906 C 603.488281 705.261719 603.730469 705.726562 603.871094 706.1875 C 603.992188 706.664062 604.09375 707.109375 604.195312 707.53125 C 604.4375 708.351562 604.519531 709.085938 604.570312 709.695312 C 604.691406 710.90625 604.710938 711.582031 604.710938 711.582031 C 604.710938 711.582031 604.355469 710.976562 603.800781 709.9375 C 603.550781 709.402344 603.195312 708.773438 602.773438 708.109375 C 602.367188 707.410156 601.894531 706.664062 601.296875 705.957031 C 601.027344 705.59375 600.734375 705.210938 600.347656 704.9375 C 599.964844 704.65625 599.703125 704.230469 599.257812 704.027344 C 598.824219 703.804688 598.453125 703.523438 597.988281 703.339844 C 597.492188 703.210938 597.027344 703.027344 596.542969 702.855469 C 596.027344 702.785156 595.523438 702.714844 595 702.632812 C 594.496094 702.554688 593.726562 702.605469 593.101562 702.542969 L 592.113281 702.503906 C 592.03125 702.523438 591.558594 702.542969 591.285156 702.5625 L 589.40625 702.675781 C 588.175781 702.835938 586.894531 702.867188 585.742188 703.191406 C 584.5625 703.433594 583.441406 703.753906 582.371094 704.140625 C 581.867188 704.371094 581.371094 704.613281 580.867188 704.816406 C 580.394531 705.089844 579.9375 705.351562 579.496094 705.605469 C 579.082031 705.917969 578.675781 706.210938 578.285156 706.503906 C 577.921875 706.835938 577.566406 707.160156 577.234375 707.472656 C 576.617188 708.148438 576.0625 708.816406 575.640625 709.472656 C 575.226562 710.128906 574.882812 710.722656 574.628906 711.25 C 574.125 712.300781 573.941406 712.976562 573.941406 712.976562 "/>
<path style=" stroke:none;fill-rule:nonzero;fill:rgb(15.689087%,9.799194%,10.978699%);fill-opacity:1;" d="M 672.621094 699.6875 C 672.621094 699.6875 672.257812 699.089844 671.503906 698.210938 C 671.128906 697.765625 670.632812 697.28125 670.070312 696.757812 C 669.484375 696.242188 668.765625 695.746094 668 695.253906 C 667.585938 695.039062 667.160156 694.828125 666.726562 694.605469 C 666.285156 694.425781 665.808594 694.242188 665.324219 694.0625 C 664.832031 693.929688 664.324219 693.796875 663.800781 693.667969 C 663.253906 693.605469 662.71875 693.503906 662.164062 693.414062 C 661.035156 693.324219 659.875 693.3125 658.664062 693.394531 C 657.460938 693.382812 656.21875 693.699219 655 693.871094 L 653.152344 694.261719 C 652.898438 694.3125 652.425781 694.425781 652.34375 694.425781 L 651.394531 694.726562 C 650.808594 694.949219 650.050781 695.089844 649.597656 695.3125 C 649.113281 695.523438 648.640625 695.726562 648.164062 695.9375 C 647.75 696.230469 647.347656 696.523438 646.902344 696.777344 C 646.507812 697.082031 646.21875 697.453125 645.851562 697.777344 C 645.488281 698.101562 645.339844 698.574219 645.054688 698.9375 C 644.753906 699.3125 644.570312 699.757812 644.410156 700.179688 C 644.015625 701.019531 643.753906 701.867188 643.5625 702.632812 C 643.328125 703.402344 643.160156 704.097656 643.046875 704.675781 C 642.804688 705.824219 642.613281 706.503906 642.613281 706.503906 C 642.613281 706.503906 642.460938 705.847656 642.25 704.65625 C 642.140625 704.046875 642.019531 703.320312 642.027344 702.464844 C 642.007812 702.039062 641.996094 701.574219 641.988281 701.089844 C 641.996094 700.605469 642.109375 700.089844 642.179688 699.535156 C 642.28125 698.445312 642.746094 697.242188 643.378906 696.0625 C 643.773438 695.515625 644.148438 694.898438 644.621094 694.363281 C 645.125 693.871094 645.703125 693.414062 646.277344 692.929688 C 646.921875 692.566406 647.578125 692.191406 648.246094 691.808594 C 648.941406 691.414062 649.488281 691.292969 650.132812 691.042969 L 651.0625 690.707031 L 652.191406 690.414062 L 654.261719 689.902344 C 655.683594 689.75 657.089844 689.457031 658.542969 689.507812 C 659.964844 689.4375 661.398438 689.6875 662.761719 689.921875 C 663.4375 690.113281 664.101562 690.273438 664.738281 690.484375 C 665.34375 690.769531 665.949219 691.042969 666.535156 691.304688 C 667.082031 691.648438 667.617188 691.960938 668.121094 692.304688 C 668.566406 692.699219 669 693.070312 669.421875 693.445312 C 670.210938 694.222656 670.804688 695.03125 671.25 695.789062 C 671.703125 696.535156 671.996094 697.242188 672.199219 697.816406 C 672.59375 698.988281 672.621094 699.6875 672.621094 699.6875 "/>
<path style=" stroke:none;fill-rule:nonzero;fill:rgb(15.689087%,9.799194%,10.978699%);fill-opacity:1;" d="M 636.414062 675.097656 C 636.414062 675.097656 633.234375 681.902344 637.554688 683.476562 C 641.925781 685.09375 674.863281 672.855469 686.429688 682.953125 C 686.429688 682.953125 683.019531 661.242188 636.414062 675.097656 "/>
<path style=" stroke:none;fill-rule:nonzero;fill:rgb(15.689087%,9.799194%,10.978699%);fill-opacity:1;" d="M 608.789062 677.410156 C 608.789062 677.410156 613.664062 683.0625 609.898438 685.761719 C 606.164062 688.457031 571.128906 685.398438 562.667969 698.230469 C 562.667969 698.230469 560.164062 676.417969 608.789062 677.410156 "/>
<path style=" stroke:none;fill-rule:nonzero;fill:rgb(15.689087%,9.799194%,10.978699%);fill-opacity:1;" d="M 587.328125 651.769531 C 611.453125 651.789062 639.292969 661.816406 655.714844 643.519531 C 655.714844 643.519531 692.125 638.105469 703.601562 708.671875 C 703.601562 708.671875 709.898438 708.957031 708.539062 700.6875 C 707.144531 692.433594 709.457031 629.429688 692.15625 623.96875 C 692.15625 623.96875 708.980469 568.09375 663.003906 570.425781 C 617.046875 572.726562 552.707031 620.402344 531.144531 624.300781 C 509.613281 628.179688 539.644531 727.921875 548.558594 734.496094 C 548.558594 734.496094 549.796875 737.304688 552.511719 718.640625 C 552.511719 718.640625 552.765625 704.59375 552.070312 693.03125 C 551.414062 681.507812 553.90625 671.398438 554.703125 669.835938 C 555.460938 668.28125 564.183594 651.796875 587.328125 651.769531 "/>
<path style=" stroke:none;fill-rule:nonzero;fill:rgb(10.5896%,7.449341%,8.628845%);fill-opacity:1;" d="M 637.898438 651.464844 C 637.898438 651.464844 642.199219 647.074219 648.023438 640.09375 C 649.46875 638.335938 651 636.417969 652.566406 634.359375 C 654.152344 632.308594 655.675781 630.054688 657.269531 627.753906 C 658.8125 625.410156 660.296875 622.925781 661.679688 620.363281 C 663.113281 617.816406 664.253906 615.101562 665.304688 612.375 C 666.234375 609.628906 667.132812 606.839844 667.453125 604.03125 C 667.707031 602.640625 667.675781 601.246094 667.808594 599.871094 C 667.707031 598.507812 667.828125 597.125 667.546875 595.824219 C 667.445312 595.167969 667.34375 594.507812 667.242188 593.863281 C 667.070312 593.238281 666.898438 592.609375 666.726562 591.984375 C 666.476562 590.710938 665.898438 589.582031 665.445312 588.429688 C 664.425781 586.179688 663.195312 584.148438 661.863281 582.382812 C 661.257812 581.441406 660.5 580.695312 659.832031 579.925781 C 659.148438 579.179688 658.570312 578.382812 657.867188 577.796875 C 656.503906 576.585938 655.414062 575.371094 654.34375 574.574219 C 652.273438 572.886719 651.09375 571.917969 651.09375 571.917969 C 651.09375 571.917969 652.453125 572.625 654.847656 573.867188 C 656.058594 574.472656 657.371094 575.472656 658.957031 576.535156 C 659.761719 577.027344 660.480469 577.765625 661.308594 578.433594 C 662.125 579.140625 663.003906 579.855469 663.761719 580.777344 C 665.414062 582.480469 667.019531 584.542969 668.351562 586.976562 C 668.96875 588.21875 669.707031 589.460938 670.128906 590.875 C 670.382812 591.5625 670.625 592.269531 670.855469 592.984375 C 671.007812 593.722656 671.160156 594.460938 671.320312 595.207031 C 671.703125 596.699219 671.675781 598.265625 671.855469 599.832031 C 671.816406 601.386719 671.886719 603.003906 671.613281 604.566406 C 671.289062 607.75 670.371094 610.839844 669.382812 613.867188 C 668.203125 616.816406 666.910156 619.714844 665.34375 622.390625 C 663.859375 625.109375 662.09375 627.570312 660.390625 629.945312 C 656.894531 634.621094 653.191406 638.601562 649.839844 641.789062 C 643.136719 648.195312 637.898438 651.464844 637.898438 651.464844 "/>
<path style=" stroke:none;fill-rule:nonzero;fill:rgb(10.5896%,7.449341%,8.628845%);fill-opacity:1;" d="M 619.476562 653.101562 C 619.476562 653.101562 620.296875 651.890625 621.707031 649.769531 C 623.140625 647.660156 625.03125 644.539062 627.269531 640.8125 C 629.5 637.085938 631.875 632.589844 634.082031 627.664062 C 635.234375 625.230469 636.164062 622.613281 637.113281 619.96875 C 637.941406 617.300781 638.746094 614.554688 639.082031 611.777344 C 639.472656 609.011719 639.636719 606.203125 639.121094 603.566406 C 638.625 600.960938 637.796875 598.417969 636.203125 596.429688 C 635.878906 595.871094 635.464844 595.410156 635.011719 594.972656 C 634.578125 594.53125 634.144531 594.074219 633.71875 593.632812 C 632.710938 592.925781 631.84375 592.046875 630.773438 591.480469 C 628.734375 590.21875 626.574219 589.378906 624.566406 588.640625 C 622.496094 588.097656 620.628906 587.429688 618.882812 587.148438 C 617.15625 586.792969 615.640625 586.460938 614.378906 586.351562 C 611.847656 585.996094 610.402344 585.792969 610.402344 585.792969 C 610.402344 585.792969 611.867188 585.792969 614.421875 585.785156 C 615.710938 585.753906 617.265625 585.914062 619.054688 586.085938 C 620.851562 586.167969 622.839844 586.613281 625.03125 587.078125 C 627.167969 587.691406 629.5 588.421875 631.824219 589.652344 C 633.015625 590.175781 634.074219 591.074219 635.246094 591.8125 C 635.78125 592.257812 636.285156 592.761719 636.800781 593.265625 C 637.335938 593.742188 637.839844 594.265625 638.242188 594.894531 C 640.140625 597.144531 641.3125 600.085938 641.875 603.074219 C 642.492188 606.09375 642.339844 609.191406 641.945312 612.191406 C 641.542969 615.203125 640.65625 618.070312 639.757812 620.867188 C 638.757812 623.625 637.636719 626.28125 636.386719 628.753906 C 633.941406 633.742188 631.117188 638.054688 628.632812 641.679688 C 626.148438 645.316406 623.777344 648.121094 622.152344 650.101562 C 620.507812 652.0625 619.476562 653.101562 619.476562 653.101562 "/>
<path style=" stroke:none;fill-rule:nonzero;fill:rgb(10.5896%,7.449341%,8.628845%);fill-opacity:1;" d="M 610.433594 651.769531 C 610.433594 651.769531 610.566406 650.527344 610.734375 648.363281 C 610.9375 646.203125 611.070312 643.113281 611.097656 639.429688 C 611.089844 635.730469 610.96875 631.429688 610.300781 626.9375 C 609.980469 624.683594 609.464844 622.402344 608.828125 620.128906 C 608.121094 617.898438 607.335938 615.636719 606.113281 613.636719 C 604.941406 611.617188 603.589844 609.6875 601.832031 608.253906 C 601.441406 607.839844 600.984375 607.507812 600.511719 607.203125 C 600.058594 606.890625 599.621094 606.527344 599.136719 606.242188 C 598.140625 605.757812 597.21875 605.132812 596.160156 604.832031 C 595.644531 604.636719 595.140625 604.457031 594.636719 604.273438 C 594.109375 604.152344 593.585938 604.03125 593.070312 603.910156 C 592.042969 603.617188 591.003906 603.496094 589.972656 603.394531 C 588.953125 603.246094 587.953125 603.226562 586.976562 603.234375 C 585.996094 603.234375 585.046875 603.164062 584.136719 603.285156 C 582.320312 603.417969 580.636719 603.527344 579.160156 603.800781 C 577.679688 604.011719 576.386719 604.214844 575.328125 604.488281 C 573.214844 604.953125 571.984375 605.183594 571.984375 605.183594 C 571.984375 605.183594 573.136719 604.710938 575.183594 603.941406 C 576.195312 603.527344 577.464844 603.152344 578.941406 602.75 C 580.394531 602.265625 582.097656 601.921875 583.964844 601.628906 C 584.894531 601.417969 585.894531 601.386719 586.925781 601.296875 C 587.953125 601.195312 589.015625 601.15625 590.125 601.246094 C 591.234375 601.265625 592.363281 601.324219 593.527344 601.570312 C 594.101562 601.660156 594.695312 601.75 595.273438 601.882812 C 595.859375 602.054688 596.433594 602.246094 597.027344 602.425781 C 599.359375 603.175781 601.691406 604.417969 603.660156 606.132812 C 605.710938 607.789062 607.304688 609.960938 608.636719 612.203125 C 609.96875 614.472656 610.785156 616.949219 611.511719 619.363281 C 612.191406 621.804688 612.574219 624.261719 612.824219 626.621094 C 613.308594 631.359375 613.117188 635.773438 612.753906 639.507812 C 611.949219 647 610.433594 651.769531 610.433594 651.769531 "/>
<path style=" stroke:none;fill-rule:nonzero;fill:rgb(10.5896%,7.449341%,8.628845%);fill-opacity:1;" d="M 598.421875 652.261719 C 598.421875 652.261719 598.019531 651.3125 597.3125 649.65625 C 596.625 648 595.492188 645.699219 594.121094 642.960938 C 592.726562 640.246094 591.03125 637.125 588.972656 633.953125 C 587.972656 632.347656 586.804688 630.785156 585.632812 629.207031 C 584.429688 627.644531 583.148438 626.109375 581.757812 624.695312 C 580.402344 623.230469 578.910156 621.9375 577.394531 620.734375 C 575.839844 619.574219 574.277344 618.484375 572.632812 617.664062 C 571.8125 617.25 571.007812 616.847656 570.167969 616.542969 C 569.359375 616.179688 568.542969 615.898438 567.726562 615.6875 C 566.917969 615.414062 566.121094 615.253906 565.324219 615.109375 C 564.546875 614.917969 563.789062 614.816406 563.042969 614.757812 C 561.546875 614.566406 560.175781 614.625 558.945312 614.574219 C 557.722656 614.675781 556.632812 614.726562 555.742188 614.847656 C 553.996094 615.152344 552.957031 615.292969 552.957031 615.292969 C 552.957031 615.292969 553.90625 614.910156 555.621094 614.304688 C 556.492188 614.039062 557.582031 613.808594 558.824219 613.503906 C 560.085938 613.34375 561.515625 613.039062 563.113281 613.101562 C 563.910156 613.0625 564.746094 613.089844 565.59375 613.191406 C 566.464844 613.253906 567.34375 613.375 568.238281 613.585938 C 569.148438 613.746094 570.066406 613.980469 570.984375 614.292969 C 571.925781 614.546875 572.824219 614.96875 573.742188 615.363281 C 575.578125 616.203125 577.386719 617.242188 579.082031 618.492188 C 580.746094 619.777344 582.382812 621.148438 583.835938 622.683594 C 586.773438 625.753906 589.207031 629.226562 591.144531 632.632812 C 593.101562 636.035156 594.554688 639.386719 595.636719 642.304688 C 597.785156 648.152344 598.421875 652.261719 598.421875 652.261719 "/>
<path style=" stroke:none;fill-rule:nonzero;fill:rgb(10.5896%,7.449341%,8.628845%);fill-opacity:1;" d="M 584.1875 651.847656 C 584.1875 651.847656 583.542969 651.253906 582.382812 650.273438 C 581.242188 649.265625 579.515625 647.941406 577.457031 646.375 C 576.40625 645.617188 575.285156 644.789062 574.054688 643.960938 C 572.863281 643.09375 571.511719 642.328125 570.167969 641.449219 C 568.816406 640.589844 567.34375 639.84375 565.898438 639.003906 C 564.375 638.296875 562.910156 637.417969 561.316406 636.832031 C 559.761719 636.15625 558.207031 635.460938 556.613281 634.984375 C 555.824219 634.722656 555.039062 634.449219 554.269531 634.175781 C 553.472656 633.976562 552.695312 633.78125 551.929688 633.582031 C 551.152344 633.390625 550.394531 633.195312 549.648438 633.015625 C 548.898438 632.882812 548.152344 632.761719 547.4375 632.640625 C 545.992188 632.390625 544.621094 632.148438 543.339844 632.105469 C 542.054688 632.003906 540.875 631.914062 539.824219 631.824219 C 538.777344 631.84375 537.855469 631.863281 537.101562 631.875 C 535.574219 631.894531 534.6875 631.863281 534.6875 631.863281 C 534.6875 631.863281 535.523438 631.640625 537.03125 631.320312 C 537.796875 631.15625 538.703125 630.964844 539.765625 630.753906 C 540.835938 630.601562 542.046875 630.53125 543.378906 630.449219 C 544.042969 630.421875 544.742188 630.339844 545.457031 630.347656 C 546.175781 630.398438 546.921875 630.449219 547.679688 630.492188 C 548.445312 630.550781 549.234375 630.601562 550.039062 630.664062 C 550.839844 630.753906 551.636719 630.945312 552.472656 631.097656 C 553.289062 631.257812 554.128906 631.410156 554.976562 631.582031 C 555.804688 631.824219 556.640625 632.078125 557.480469 632.328125 C 559.175781 632.804688 560.832031 633.488281 562.476562 634.175781 C 564.140625 634.832031 565.667969 635.78125 567.242188 636.558594 C 568.746094 637.4375 570.207031 638.367188 571.570312 639.316406 C 574.285156 641.246094 576.648438 643.253906 578.535156 645.125 C 582.3125 648.851562 584.1875 651.847656 584.1875 651.847656 "/>
<path style=" stroke:none;fill-rule:nonzero;fill:rgb(10.5896%,7.449341%,8.628845%);fill-opacity:1;" d="M 655.714844 643.519531 C 655.714844 643.519531 658.128906 640.46875 661.75 635.882812 C 665.335938 631.296875 670.097656 625.199219 674.390625 618.828125 C 676.558594 615.65625 678.566406 612.382812 680.292969 609.253906 C 681.140625 607.679688 681.929688 606.132812 682.605469 604.648438 C 683.261719 603.152344 683.847656 601.71875 684.3125 600.367188 C 684.765625 599.011719 685.109375 597.75 685.382812 596.621094 C 685.59375 595.480469 685.777344 594.46875 685.796875 593.632812 C 685.898438 592.792969 685.867188 592.125 685.867188 591.671875 C 685.867188 591.207031 685.867188 590.964844 685.867188 590.964844 C 685.867188 590.964844 685.917969 591.207031 686.027344 591.652344 C 686.109375 592.097656 686.332031 592.761719 686.359375 593.621094 C 686.472656 594.488281 686.472656 595.539062 686.453125 596.761719 C 686.371094 597.972656 686.238281 599.335938 685.917969 600.800781 C 685.613281 602.265625 685.179688 603.832031 684.613281 605.445312 C 684.050781 607.0625 683.382812 608.726562 682.574219 610.40625 C 681 613.777344 678.960938 617.171875 676.78125 620.441406 C 674.5625 623.695312 672.1875 626.824219 669.785156 629.613281 C 667.414062 632.417969 665.074219 634.925781 662.984375 636.984375 C 660.914062 639.0625 659.054688 640.660156 657.785156 641.800781 C 656.492188 642.933594 655.714844 643.519531 655.714844 643.519531 "/>
<g clip-path="url(#clip5)" clip-rule="nonzero">
<path style=" stroke:none;fill-rule:nonzero;fill:rgb(71.759033%,14.118958%,19.219971%);fill-opacity:1;" d="M 497.691406 1327.492188 L 645.972656 1327.492188 C 680.0625 1081.269531 600.914062 882.417969 555.015625 846.890625 C 539.554688 853.082031 510.429688 864.152344 472.46875 875.671875 C 426.519531 889.648438 466.964844 1042.613281 489.800781 1142.539062 C 489.800781 1142.539062 493.078125 1241.128906 497.691406 1327.492188 "/>
</g>
<g clip-path="url(#clip6)" clip-rule="nonzero">
<path style=" stroke:none;fill-rule:nonzero;fill:rgb(57.249451%,12.939453%,16.859436%);fill-opacity:1;" d="M 497.691406 1327.492188 L 510.746094 1327.492188 C 508.554688 1246.835938 515.234375 1146.09375 515.234375 1146.09375 C 515.234375 1146.09375 469.390625 956.1875 479.171875 873.601562 C 476.960938 874.300781 474.738281 874.996094 472.46875 875.671875 C 426.519531 889.648438 466.964844 1042.613281 489.800781 1142.539062 C 489.800781 1142.539062 493.078125 1241.128906 497.691406 1327.492188 "/>
</g>
<path style=" stroke:none;fill-rule:nonzero;fill:rgb(98.429871%,94.898987%,81.568909%);fill-opacity:1;" d="M 472.46875 875.671875 C 472.46875 875.671875 482.804688 1004.269531 465.453125 1034.453125 C 465.453125 1034.453125 299.777344 878.742188 264.4375 767.265625 C 264.4375 767.265625 249.289062 736.648438 296.023438 620.109375 C 340.496094 509.15625 340.304688 490.464844 348.976562 458.582031 C 357.679688 426.691406 400.445312 454.753906 426.296875 473.09375 C 452.199219 491.445312 427.316406 538.492188 413.09375 548.21875 C 398.769531 557.964844 389.351562 626.199219 389.261719 667.613281 C 389.261719 667.613281 387.132812 732.386719 377.058594 742.515625 C 377.058594 742.515625 392.472656 760.519531 380.398438 767.40625 C 380.398438 767.40625 396.367188 770.527344 406.292969 793.683594 C 416.183594 816.808594 423.429688 818.332031 434.976562 826.148438 C 446.578125 833.925781 467.160156 855.304688 472.46875 875.671875 "/>
<path style=" stroke:none;fill-rule:nonzero;fill:rgb(84.709167%,81.17981%,63.139343%);fill-opacity:1;" d="M 348.976562 458.582031 C 340.304688 490.464844 340.496094 509.15625 296.023438 620.109375 C 249.289062 736.648438 264.4375 767.265625 264.4375 767.265625 C 299.777344 878.742188 465.453125 1034.453125 465.453125 1034.453125 C 475.507812 1017.011719 476.261719 966.621094 475.121094 927.265625 C 428.355469 887.398438 331.523438 834.269531 304.96875 790.210938 C 270.789062 733.546875 302.9375 659.855469 317.453125 617.210938 C 332 574.542969 350.148438 489.636719 363.199219 470.710938 C 372.464844 457.269531 414.03125 478.851562 437.300781 492.453125 C 436.421875 484.820312 433.140625 477.933594 426.296875 473.09375 C 400.445312 454.753906 357.679688 426.691406 348.976562 458.582031 "/>
<path style=" stroke:none;fill-rule:nonzero;fill:rgb(71.759033%,14.118958%,19.219971%);fill-opacity:1;" d="M 266.78125 711.410156 C 257.859375 753.914062 264.4375 767.265625 264.4375 767.265625 C 269.394531 782.917969 276.925781 799.449219 286.191406 816.253906 C 329.789062 757.003906 296.335938 726.003906 266.78125 711.410156 "/>
<path style=" stroke:none;fill-rule:nonzero;fill:rgb(45.098877%,10.978699%,14.118958%);fill-opacity:1;" d="M 555.015625 846.890625 C 555.015625 846.890625 545.46875 1023.394531 558.671875 1040.351562 C 571.863281 1057.277344 614.257812 1076.523438 614.257812 1076.523438 L 593.171875 1116.261719 C 593.171875 1116.261719 624.472656 1234.464844 648.871094 1240.535156 C 673.289062 1246.59375 637.082031 783.394531 555.015625 846.890625 "/>
<g clip-path="url(#clip7)" clip-rule="nonzero">
<path style=" stroke:none;fill-rule:nonzero;fill:rgb(98.429871%,94.898987%,81.568909%);fill-opacity:1;" d="M 546.253906 1327.492188 C 567.90625 1312.828125 596.148438 1286.917969 609.835938 1245.976562 L 601.710938 1239.726562 C 601.710938 1239.726562 582.460938 1292.046875 528.449219 1327.492188 L 546.253906 1327.492188 "/>
</g>
<path style=" stroke:none;fill-rule:nonzero;fill:rgb(98.429871%,94.898987%,81.568909%);fill-opacity:1;" d="M 832.503906 1260.355469 C 799.183594 1239.585938 781.820312 1215.378906 781.820312 1215.378906 L 775.652344 1223.566406 C 792.53125 1248.714844 814.375 1264.832031 834.492188 1275.089844 L 832.503906 1260.355469 "/>
<path style=" stroke:none;fill-rule:nonzero;fill:rgb(17.248535%,18.429565%,32.548523%);fill-opacity:1;" d="M 517.164062 828.089844 C 517.164062 828.089844 566.464844 1019.367188 480.492188 1139.285156 C 480.492188 1139.285156 465.097656 1132.550781 466.078125 1116.816406 C 467.097656 1101.09375 545.15625 1035.230469 497.441406 831.804688 C 497.441406 831.804688 506.898438 827.140625 517.164062 828.089844 "/>
<path style=" stroke:none;fill-rule:nonzero;fill:rgb(17.248535%,18.429565%,32.548523%);fill-opacity:1;" d="M 762.8125 816.6875 C 762.8125 816.6875 834.84375 914.453125 830.28125 1076.976562 C 830.28125 1076.976562 823.84375 1124.601562 824.851562 1108.878906 C 825.832031 1093.125 808.660156 924.703125 743.089844 820.402344 C 743.089844 820.402344 752.546875 815.757812 762.8125 816.6875 "/>
</g>
</svg>
