<?xml version="1.0" encoding="UTF-8"?>
<svg xmlns="http://www.w3.org/2000/svg" xmlns:xlink="http://www.w3.org/1999/xlink" width="1190.25pt" height="1683.749945pt" viewBox="0 0 1190.25 1683.749945" version="1.2">
<defs>
<clipPath id="clip1">
  <path d="M 570 602 L 833.921875 602 L 833.921875 866 L 570 866 Z M 570 602 "/>
</clipPath>
<clipPath id="clip2">
  <path d="M 570 602 L 833.921875 602 L 833.921875 866 L 570 866 Z M 570 602 "/>
</clipPath>
</defs>
<g id="surface1">
<path style=" stroke:none;fill-rule:nonzero;fill:rgb(12.548828%,12.939453%,16.468811%);fill-opacity:1;" d="M 532.054688 721.199219 L 527.925781 662.863281 C 552.183594 663.71875 672.78125 640.050781 672.78125 640.050781 L 679.308594 643.472656 C 623.601562 675.699219 532.054688 721.199219 532.054688 721.199219 "/>
<path style=" stroke:none;fill-rule:nonzero;fill:rgb(89.408875%,58.81958%,45.489502%);fill-opacity:1;" d="M 430.273438 631.980469 C 430.273438 631.980469 464.746094 650.773438 467.460938 677.003906 C 475.097656 696.503906 526.230469 669.59375 526.230469 669.59375 L 528.277344 617.457031 L 430.273438 631.980469 "/>
<path style=" stroke:none;fill-rule:nonzero;fill:rgb(89.408875%,58.81958%,45.489502%);fill-opacity:1;" d="M 532.109375 632.019531 C 531.886719 629.457031 530.269531 628.957031 527.753906 625.910156 C 521.6875 625.1875 508.367188 625.066406 509.628906 627.324219 C 510.890625 629.582031 519.425781 637.773438 525.480469 638.476562 C 529.554688 639.261719 532.414062 635.488281 532.109375 632.019531 "/>
<path style=" stroke:none;fill-rule:nonzero;fill:rgb(89.408875%,58.81958%,45.489502%);fill-opacity:1;" d="M 539.101562 570.304688 C 544.351562 607.070312 518.84375 641.140625 482.132812 646.390625 C 445.425781 651.644531 411.410156 626.097656 406.167969 589.328125 C 400.921875 552.5625 426.425781 518.496094 463.140625 513.242188 C 499.847656 507.988281 533.855469 533.53125 539.101562 570.304688 "/>
<path style=" stroke:none;fill-rule:nonzero;fill:rgb(43.919373%,19.999695%,23.529053%);fill-opacity:1;" d="M 405.589844 602.492188 C 405.589844 602.492188 355.84375 571.171875 390.042969 530.449219 C 422.597656 492.382812 438.148438 488.785156 467.210938 493.070312 C 489.097656 497.054688 503.003906 504.347656 513.257812 525.847656 C 480.140625 560.046875 458.863281 531.023438 429.851562 557.132812 C 410.667969 574.230469 403.046875 590.945312 405.589844 602.492188 "/>
<path style=" stroke:none;fill-rule:nonzero;fill:rgb(50.19989%,25.099182%,29.798889%);fill-opacity:1;" d="M 513.1875 525.949219 C 513.230469 525.894531 513.257812 525.851562 513.257812 525.851562 C 507.289062 513.261719 449.8125 472.582031 410.570312 527.765625 C 428.25 511.992188 441.054688 510.886719 450.292969 515.464844 C 437.667969 518.355469 424.511719 524.421875 412.214844 535.402344 C 450.292969 515.464844 471.773438 544.417969 472.515625 544.457031 C 495.5 545.632812 509.28125 530.75 512.511719 526.800781 C 513.042969 526.382812 513.320312 526.140625 513.320312 526.140625 C 513.28125 526.074219 513.230469 526.011719 513.1875 525.949219 "/>
<path style=" stroke:none;fill-rule:nonzero;fill:rgb(50.19989%,25.099182%,29.798889%);fill-opacity:1;" d="M 383.492188 579.21875 C 383.492188 579.21875 380.609375 549.503906 423.21875 543.785156 C 388.3125 562.105469 383.492188 579.21875 383.492188 579.21875 "/>
<path style=" stroke:none;fill-rule:nonzero;fill:rgb(33.729553%,14.898682%,17.248535%);fill-opacity:1;" d="M 451.042969 631.507812 C 440.074219 636.304688 426.96875 630.542969 421.777344 618.640625 C 416.578125 606.734375 421.257812 593.191406 432.226562 588.386719 C 438.847656 585.488281 446.230469 586.460938 452.199219 590.285156 C 449.109375 573.167969 448.074219 550.117188 436.925781 551.710938 C 420.484375 554.0625 383.320312 578.488281 395.347656 608.261719 C 406.148438 629.335938 423.421875 649.628906 439.867188 647.277344 C 439.867188 647.277344 446.609375 641.011719 451.109375 631.472656 L 451.042969 631.507812 "/>
<path style=" stroke:none;fill-rule:nonzero;fill:rgb(66.268921%,43.139648%,32.939148%);fill-opacity:1;" d="M 446.246094 625.445312 C 439.558594 625.445312 433.734375 620.605469 432.777344 613.882812 C 431.722656 606.5 436.933594 599.648438 444.417969 598.578125 C 444.976562 598.5 445.488281 598.460938 445.953125 598.460938 C 451.699219 598.460938 450.554688 604.371094 451.53125 611.195312 C 452.582031 618.578125 455.710938 624.234375 448.230469 625.304688 C 447.5625 625.402344 446.898438 625.445312 446.246094 625.445312 "/>
<path style=" stroke:none;fill-rule:nonzero;fill:rgb(89.408875%,58.81958%,45.489502%);fill-opacity:1;" d="M 520.839844 585.191406 C 520.839844 585.191406 526.488281 591.207031 541.976562 590.226562 C 557.496094 590.601562 528.175781 614.257812 526.230469 614.539062 "/>
<path style=" stroke:none;fill-rule:nonzero;fill:rgb(14.509583%,15.689087%,20.388794%);fill-opacity:1;" d="M 573.101562 898.648438 L 459.539062 898.648438 L 459.539062 846.097656 L 573.101562 846.097656 L 573.101562 898.648438 "/>
<path style=" stroke:none;fill-rule:nonzero;fill:rgb(12.548828%,12.939453%,16.468811%);fill-opacity:1;" d="M 601.242188 869.804688 L 516.828125 881.34375 L 454.210938 675.363281 L 533.808594 664.480469 L 601.242188 869.804688 "/>
<path style=" stroke:none;fill-rule:nonzero;fill:rgb(14.509583%,15.689087%,20.388794%);fill-opacity:1;" d="M 526.230469 665.515625 L 557.855469 689.683594 L 554.703125 746.667969 L 572.621094 770.554688 L 563.355469 811.320312 L 526.230469 665.515625 "/>
<path style=" stroke:none;fill-rule:nonzero;fill:rgb(100%,100%,100%);fill-opacity:1;" d="M 578.804688 869.742188 L 501.363281 880.324219 L 454.210938 675.363281 L 526.988281 665.414062 L 578.804688 869.742188 "/>
<path style=" stroke:none;fill-rule:nonzero;fill:rgb(73.329163%,16.079712%,24.708557%);fill-opacity:1;" d="M 523.78125 696.570312 L 502.796875 699.441406 L 498.6875 669.28125 L 519.671875 666.410156 L 523.78125 696.570312 "/>
<path style=" stroke:none;fill-rule:nonzero;fill:rgb(60.389709%,59.609985%,59.609985%);fill-opacity:1;" d="M 509.179688 667.847656 L 503.492188 702.164062 L 454.101562 675.378906 Z M 509.179688 667.847656 "/>
<path style=" stroke:none;fill-rule:nonzero;fill:rgb(60.389709%,59.609985%,59.609985%);fill-opacity:1;" d="M 509.179688 667.847656 L 523.84375 699.386719 L 532.496094 664.660156 Z M 509.179688 667.847656 "/>
<path style=" stroke:none;fill-rule:nonzero;fill:rgb(12.548828%,12.939453%,16.468811%);fill-opacity:1;" d="M 447.800781 676.238281 L 416.332031 875.273438 C 416.332031 875.273438 415.691406 895.039062 518.089844 881.167969 L 489.394531 670.550781 L 447.800781 676.238281 "/>
<path style=" stroke:none;fill-rule:nonzero;fill:rgb(14.509583%,15.689087%,20.388794%);fill-opacity:1;" d="M 488.753906 670.640625 L 464.746094 702.410156 L 484.59375 760.117188 L 482.527344 787.511719 L 509.453125 822.5625 L 488.753906 670.640625 "/>
<path style=" stroke:none;fill-rule:nonzero;fill:rgb(73.329163%,16.079712%,24.708557%);fill-opacity:1;" d="M 518.925781 696.4375 L 509.828125 698.476562 L 523.78125 840.566406 L 549.425781 866.597656 L 557.191406 831.246094 L 518.925781 696.4375 "/>
<path style=" stroke:none;fill-rule:nonzero;fill:rgb(14.509583%,15.689087%,20.388794%);fill-opacity:1;" d="M 573.335938 895.039062 L 518.925781 896.621094 C 558.613281 982.910156 552.933594 1110.59375 552.933594 1110.59375 L 558.136719 1107.496094 C 579.042969 1005.128906 573.335938 895.039062 573.335938 895.039062 "/>
<path style=" stroke:none;fill-rule:nonzero;fill:rgb(14.509583%,15.689087%,20.388794%);fill-opacity:1;" d="M 460.25 895.039062 L 514.660156 896.621094 C 474.972656 982.910156 480.652344 1110.59375 480.652344 1110.59375 L 475.449219 1107.496094 C 454.542969 1005.128906 460.25 895.039062 460.25 895.039062 "/>
<path style=" stroke:none;fill-rule:nonzero;fill:rgb(50.19989%,25.099182%,29.798889%);fill-opacity:1;" d="M 429.21875 524.15625 C 429.21875 524.15625 438.949219 501.976562 471.378906 514.859375 C 439.40625 513.957031 429.21875 524.15625 429.21875 524.15625 "/>
<path style=" stroke:none;fill-rule:nonzero;fill:rgb(33.729553%,14.898682%,17.248535%);fill-opacity:1;" d="M 486.136719 569.855469 C 486.136719 569.855469 486.0625 569.441406 485.96875 568.71875 C 485.945312 568.351562 485.917969 567.898438 485.917969 567.375 C 485.960938 566.863281 485.9375 566.261719 486.078125 565.628906 C 486.160156 564.988281 486.335938 564.304688 486.582031 563.589844 C 486.859375 562.886719 487.140625 562.121094 487.636719 561.433594 C 487.859375 561.070312 488.101562 560.714844 488.410156 560.398438 C 488.710938 560.070312 488.976562 559.703125 489.355469 559.449219 C 489.722656 559.183594 490.0625 558.863281 490.460938 558.640625 L 491.675781 557.992188 C 492.542969 557.71875 493.410156 557.398438 494.289062 557.335938 C 495.164062 557.164062 496.015625 557.230469 496.835938 557.269531 C 497.660156 557.25 498.410156 557.511719 499.136719 557.628906 C 499.867188 557.734375 500.507812 558.019531 501.109375 558.222656 C 502.320312 558.59375 503.238281 559.128906 503.886719 559.464844 C 504.53125 559.8125 504.886719 560.027344 504.886719 560.027344 C 504.886719 560.027344 504.464844 559.972656 503.75 559.855469 C 503.394531 559.789062 502.964844 559.710938 502.472656 559.621094 C 501.988281 559.503906 501.421875 559.476562 500.824219 559.382812 C 500.222656 559.320312 499.582031 559.175781 498.902344 559.167969 C 498.222656 559.164062 497.507812 559.035156 496.785156 559.109375 C 496.058594 559.121094 495.320312 559.175781 494.601562 559.324219 C 493.855469 559.390625 493.175781 559.6875 492.484375 559.917969 L 491.511719 560.398438 C 491.1875 560.5625 490.925781 560.808594 490.628906 561.007812 C 490.082031 561.457031 489.53125 561.917969 489.128906 562.496094 C 488.675781 563.03125 488.332031 563.632812 488 564.203125 C 487.710938 564.800781 487.425781 565.371094 487.230469 565.929688 C 486.992188 566.484375 486.871094 567.023438 486.703125 567.488281 C 486.578125 567.964844 486.46875 568.386719 486.378906 568.730469 C 486.238281 569.445312 486.136719 569.855469 486.136719 569.855469 "/>
<path style=" stroke:none;fill-rule:nonzero;fill:rgb(33.729553%,14.898682%,17.248535%);fill-opacity:1;" d="M 533.375 557.957031 C 533.375 557.957031 533.117188 557.636719 532.691406 557.058594 C 532.25 556.507812 531.628906 555.742188 530.796875 554.917969 C 530.386719 554.5 529.914062 554.09375 529.40625 553.6875 C 529.167969 553.464844 528.871094 553.308594 528.597656 553.117188 C 528.320312 552.921875 528.035156 552.742188 527.726562 552.597656 C 527.136719 552.242188 526.460938 552.050781 525.800781 551.84375 L 524.773438 551.640625 L 523.71875 551.613281 C 523.367188 551.59375 523.011719 551.683594 522.660156 551.710938 C 522.304688 551.726562 521.953125 551.816406 521.609375 551.933594 C 521.269531 552.046875 520.917969 552.109375 520.578125 552.230469 C 520.246094 552.375 519.917969 552.511719 519.597656 552.648438 C 518.933594 552.890625 518.351562 553.296875 517.761719 553.597656 C 517.164062 553.894531 516.660156 554.289062 516.160156 554.601562 C 515.679688 554.945312 515.1875 555.210938 514.816406 555.519531 C 514.421875 555.8125 514.078125 556.070312 513.796875 556.277344 C 513.21875 556.691406 512.871094 556.917969 512.871094 556.917969 C 512.871094 556.917969 513.089844 556.574219 513.507812 555.996094 C 513.933594 555.417969 514.503906 554.550781 515.410156 553.699219 C 515.855469 553.265625 516.296875 552.742188 516.898438 552.335938 C 517.484375 551.914062 518.042969 551.378906 518.78125 551.039062 C 519.480469 550.652344 520.222656 550.246094 521.070312 550.03125 C 521.476562 549.886719 521.894531 549.765625 522.34375 549.722656 C 522.785156 549.667969 523.222656 549.558594 523.675781 549.566406 L 525.027344 549.644531 C 525.46875 549.726562 525.902344 549.839844 526.335938 549.941406 C 527.175781 550.203125 527.972656 550.582031 528.648438 551.054688 C 529.367188 551.46875 529.917969 552.050781 530.4375 552.5625 C 530.679688 552.835938 530.914062 553.105469 531.140625 553.367188 C 531.335938 553.648438 531.523438 553.917969 531.703125 554.179688 C 532.402344 555.226562 532.804688 556.203125 533.054688 556.878906 C 533.265625 557.558594 533.375 557.957031 533.375 557.957031 "/>
<path style=" stroke:none;fill-rule:nonzero;fill:rgb(9.799194%,10.198975%,12.939453%);fill-opacity:1;" d="M 614.53125 1104.414062 C 619.957031 1089.84375 602.078125 1083.003906 597.019531 1089.769531 C 587.988281 1101.859375 567.429688 1097.125 554.007812 1097.882812 C 550.101562 1098.402344 549.671875 1101.730469 549.695312 1104.191406 L 549.757812 1111.539062 L 555.550781 1112.589844 L 556.808594 1108.746094 C 571.324219 1113.605469 605.878906 1123.574219 614.53125 1104.414062 "/>
<path style=" stroke:none;fill-rule:nonzero;fill:rgb(9.799194%,10.198975%,12.939453%);fill-opacity:1;" d="M 495.871094 1104.113281 C 495.871094 1110.515625 487.71875 1115.703125 477.664062 1115.703125 C 467.605469 1115.703125 459.457031 1110.515625 459.457031 1104.113281 C 459.457031 1097.710938 467.605469 1092.523438 477.664062 1092.523438 C 487.71875 1092.523438 495.871094 1097.710938 495.871094 1104.113281 "/>
<path style=" stroke:none;fill-rule:nonzero;fill:rgb(89.408875%,58.81958%,45.489502%);fill-opacity:1;" d="M 666.820312 636.023438 C 664.472656 646.089844 671.003906 650.078125 681.09375 647.757812 C 691.1875 645.433594 692.957031 643.054688 692.957031 643.054688 C 674.46875 630.9375 706.816406 630.945312 706.359375 622.085938 C 695.695312 615.054688 669.164062 625.988281 666.820312 636.023438 "/>
<g clip-path="url(#clip1)" clip-rule="nonzero">
<path style=" stroke:none;fill-rule:nonzero;fill:rgb(95.289612%,37.249756%,15.689087%);fill-opacity:1;" d="M 833.855469 734.132812 C 833.855469 806.839844 775.003906 865.777344 702.414062 865.777344 C 629.832031 865.777344 570.984375 806.839844 570.984375 734.132812 C 570.984375 661.429688 629.832031 602.488281 702.414062 602.488281 C 775.003906 602.488281 833.855469 661.429688 833.855469 734.132812 "/>
</g>
<path style=" stroke:none;fill-rule:nonzero;fill:rgb(94.509888%,30.589294%,16.468811%);fill-opacity:1;" d="M 702.414062 640.914062 C 651.019531 640.914062 609.351562 682.648438 609.351562 734.136719 C 609.351562 785.617188 651.019531 827.351562 702.414062 827.351562 C 753.820312 827.351562 795.488281 785.617188 795.488281 734.136719 C 795.488281 682.648438 753.820312 640.914062 702.414062 640.914062 "/>
<path style=" stroke:none;fill-rule:nonzero;fill:rgb(70.199585%,21.958923%,11.369324%);fill-opacity:1;" d="M 702.414062 827.351562 C 651.019531 827.351562 609.351562 785.617188 609.351562 734.136719 C 609.351562 682.648438 651.019531 640.914062 702.414062 640.914062 C 753.820312 640.914062 795.488281 682.648438 795.488281 734.136719 C 795.488281 785.617188 753.820312 827.351562 702.414062 827.351562 M 702.414062 651.8125 C 657.03125 651.8125 620.234375 688.671875 620.234375 734.136719 C 620.234375 779.597656 657.03125 816.453125 702.414062 816.453125 C 747.808594 816.453125 784.605469 779.597656 784.605469 734.136719 C 784.605469 688.671875 747.808594 651.8125 702.414062 651.8125 "/>
<path style=" stroke:none;fill-rule:nonzero;fill:rgb(98.039246%,74.508667%,40.779114%);fill-opacity:1;" d="M 589.160156 737.558594 C 587.394531 737.558594 585.964844 736.128906 585.964844 734.355469 C 585.964844 670.203125 638.070312 618.007812 702.121094 618.007812 C 703.886719 618.007812 705.316406 619.441406 705.316406 621.214844 C 705.316406 622.980469 703.886719 624.414062 702.121094 624.414062 C 641.597656 624.414062 592.359375 673.734375 592.359375 734.355469 C 592.359375 736.128906 590.925781 737.558594 589.160156 737.558594 "/>
<path style=" stroke:none;fill-rule:nonzero;fill:rgb(70.199585%,21.958923%,11.369324%);fill-opacity:1;" d="M 709.578125 809.117188 L 699.382812 809.117188 L 699.382812 793.832031 C 692.992188 793.316406 687.867188 792.300781 684.019531 790.785156 C 680.171875 789.273438 676.414062 786.992188 672.753906 783.9375 C 669.085938 780.886719 666.03125 777.351562 663.585938 773.335938 L 671.910156 767.019531 C 679.140625 776.585938 688.300781 781.910156 699.382812 783 L 699.382812 734.75 C 691.214844 730.75 686.035156 728.019531 683.851562 726.566406 C 679.433594 723.550781 676.15625 720.203125 674.023438 716.511719 C 671.890625 712.824219 670.828125 708.5625 670.828125 703.726562 C 670.828125 699.050781 671.992188 694.714844 674.335938 690.710938 C 676.675781 686.710938 679.863281 683.460938 683.898438 680.96875 C 687.925781 678.472656 693.089844 676.917969 699.382812 676.289062 L 699.382812 659.148438 L 709.578125 659.148438 L 709.578125 676.757812 C 714.644531 677.695312 718.972656 679.359375 722.570312 681.746094 C 726.164062 684.140625 729.613281 687.671875 732.921875 692.347656 L 724.597656 699.128906 C 720.601562 692.945312 715.59375 689.203125 709.578125 687.902344 L 709.578125 726.800781 C 723.136719 733.980469 731.574219 739.804688 734.886719 744.28125 C 739.128906 750.003906 741.25 756.324219 741.25 763.246094 C 741.25 768.972656 739.6875 774.210938 736.554688 778.972656 C 733.421875 783.730469 729.191406 787.441406 723.863281 790.089844 C 720.398438 791.804688 715.632812 793.054688 709.578125 793.832031 L 709.578125 809.117188 M 709.578125 738.882812 L 709.578125 782.6875 C 715.832031 781.804688 720.835938 779.515625 724.578125 775.828125 C 728.324219 772.140625 730.203125 768.007812 730.203125 763.433594 C 730.203125 758.964844 728.765625 754.832031 725.898438 751.039062 C 723.027344 747.246094 717.585938 743.195312 709.578125 738.882812 M 699.382812 687.125 C 695.472656 687.4375 692.320312 688.308594 689.925781 689.738281 C 687.527344 691.167969 685.640625 693.089844 684.253906 695.507812 C 682.871094 697.917969 682.1875 700.585938 682.1875 703.492188 C 682.1875 707.234375 683.277344 710.40625 685.472656 713.003906 C 688.386719 716.539062 693.027344 719.734375 699.382812 722.589844 L 699.382812 687.125 "/>
<g clip-path="url(#clip2)" clip-rule="nonzero">
<path style=" stroke:none;fill-rule:nonzero;fill:rgb(70.588684%,27.449036%,10.978699%);fill-opacity:1;" d="M 702.414062 865.777344 C 629.832031 865.777344 570.984375 806.839844 570.984375 734.132812 C 570.984375 661.429688 629.832031 602.488281 702.414062 602.488281 C 775.003906 602.488281 833.855469 661.429688 833.855469 734.132812 C 833.855469 806.839844 775.003906 865.777344 702.414062 865.777344 M 702.414062 609.101562 C 633.472656 609.101562 577.589844 665.082031 577.589844 734.132812 C 577.589844 803.1875 633.472656 859.167969 702.414062 859.167969 C 771.363281 859.167969 827.25 803.1875 827.25 734.132812 C 827.25 665.082031 771.363281 609.101562 702.414062 609.101562 "/>
</g>
<path style=" stroke:none;fill-rule:nonzero;fill:rgb(12.548828%,12.939453%,16.468811%);fill-opacity:1;" d="M 435.066406 716.335938 L 450.65625 676.546875 L 488.871094 739.15625 C 476.078125 828.050781 599.644531 822.867188 599.644531 822.867188 L 609.359375 828.726562 C 564.855469 850.347656 454.210938 858.914062 435.066406 716.335938 "/>
<path style=" stroke:none;fill-rule:nonzero;fill:rgb(33.729553%,14.898682%,17.248535%);fill-opacity:1;" d="M 531.871094 569.347656 C 532.550781 574.917969 529.386719 563.722656 527.097656 564.003906 C 524.8125 564.285156 524.257812 575.929688 523.578125 570.363281 C 522.902344 564.792969 524.207031 560.050781 526.496094 559.765625 C 528.785156 559.488281 531.191406 563.78125 531.871094 569.347656 "/>
<path style=" stroke:none;fill-rule:nonzero;fill:rgb(33.729553%,14.898682%,17.248535%);fill-opacity:1;" d="M 504.945312 576.945312 C 505.621094 582.515625 502.542969 572.292969 500.253906 572.570312 C 497.964844 572.851562 497.332031 583.527344 496.652344 577.957031 C 495.976562 572.386719 497.277344 567.644531 499.570312 567.367188 C 501.859375 567.082031 504.265625 571.375 504.945312 576.945312 "/>
<path style=" stroke:none;fill-rule:nonzero;fill:rgb(89.408875%,58.81958%,45.489502%);fill-opacity:1;" d="M 610.945312 835.753906 C 600.542969 835.699219 599.882812 830.527344 599.941406 819.964844 C 600.003906 809.410156 608.214844 798.164062 631.113281 806.265625 L 623.445312 813.5 C 621.226562 814.691406 621.628906 814.167969 627.324219 818.371094 C 636.574219 827.421875 621.355469 835.816406 610.945312 835.753906 "/>
<path style=" stroke:none;fill-rule:nonzero;fill:rgb(89.408875%,58.81958%,45.489502%);fill-opacity:1;" d="M 746.332031 617.183594 C 752 608.4375 748.039062 605.050781 739.199219 599.304688 C 730.351562 593.558594 716.457031 594.265625 710.652344 617.882812 L 720.898438 615.429688 C 723.113281 614.230469 722.457031 614.28125 722.839844 621.355469 C 725.308594 634.066406 740.667969 625.925781 746.332031 617.183594 "/>
<path style=" stroke:none;fill-rule:nonzero;fill:rgb(33.729553%,14.898682%,17.248535%);fill-opacity:1;" d="M 528.164062 620.347656 C 512.851562 625.933594 504.558594 617.585938 504.246094 617.203125 C 503.800781 616.652344 502.996094 616.5625 502.445312 617.007812 C 501.894531 617.453125 501.804688 618.257812 502.25 618.816406 C 502.515625 619.148438 507.511719 625.1875 517.535156 625.1875 C 520.589844 625.1875 524.117188 624.625 528.125 623.164062 L 528.164062 620.347656 "/>
</g>
</svg>
