<?xml version="1.0" encoding="UTF-8"?>
<svg xmlns="http://www.w3.org/2000/svg" xmlns:xlink="http://www.w3.org/1999/xlink" width="1190.25pt" height="1683.749945pt" viewBox="0 0 1190.25 1683.749945" version="1.2">
<defs>
<clipPath id="clip1">
  <path d="M 308.355469 920 L 705 920 L 705 1242 L 308.355469 1242 Z M 308.355469 920 "/>
</clipPath>
</defs>
<g id="surface1">
<path style=" stroke:none;fill-rule:nonzero;fill:rgb(18.03894%,9.01947%,3.138733%);fill-opacity:1;" d="M 644.578125 1140.128906 C 645.503906 1159.148438 646.324219 1178.171875 646.953125 1197.222656 C 647.703125 1220.054688 666.589844 1238.242188 689.441406 1237.800781 C 701.503906 1237.539062 713.570312 1237.28125 725.632812 1237.023438 C 748.484375 1236.597656 766.628906 1217 765.84375 1193.316406 C 765.113281 1170.984375 764.132812 1148.667969 763.003906 1126.363281 L 644.578125 1140.128906 "/>
<path style=" stroke:none;fill-rule:nonzero;fill:rgb(26.269531%,13.729858%,5.488586%);fill-opacity:1;" d="M 819.523438 1159.511719 C 819.523438 1179.363281 799.230469 1183.242188 778.144531 1195.472656 L 681.90625 1237.476562 C 659.050781 1237.476562 423 1179.363281 423 1159.511719 L 423 910.765625 C 423 890.902344 441.515625 874.792969 464.371094 874.792969 L 778.144531 874.792969 C 800.996094 874.792969 819.523438 890.902344 819.523438 910.765625 L 819.523438 1159.511719 "/>
<path style=" stroke:none;fill-rule:nonzero;fill:rgb(26.269531%,13.729858%,5.488586%);fill-opacity:1;" d="M 418.792969 1117.128906 L 610.5625 1130.347656 C 617.421875 972.984375 614.382812 815.296875 601.351562 658.226562 C 599.398438 634.609375 579.117188 617.242188 556.375 619.445312 C 544.359375 620.582031 518.308594 621.027344 478.601562 623.023438 C 438.910156 625.023438 385.691406 619.445312 385.691406 619.445312 C 385.691406 619.445312 425.738281 963.046875 418.792969 1117.128906 "/>
<path style=" stroke:none;fill-rule:nonzero;fill:rgb(35.289001%,19.219971%,7.839966%);fill-opacity:1;" d="M 430.667969 1220.648438 C 428.714844 1242.257812 408.433594 1258.144531 385.691406 1256.128906 C 373.679688 1255.082031 361.664062 1254.046875 349.652344 1253.011719 C 326.890625 1251.003906 310.234375 1232.480469 312.121094 1211.636719 C 328.636719 1029.382812 328.636719 846.179688 312.121094 663.910156 C 310.234375 643.074219 326.890625 624.558594 349.652344 622.542969 C 361.664062 621.507812 373.679688 620.472656 385.691406 619.425781 C 408.433594 617.410156 428.714844 633.304688 430.667969 654.90625 C 447.730469 843.164062 447.730469 1032.390625 430.667969 1220.648438 "/>
<path style=" stroke:none;fill-rule:nonzero;fill:rgb(35.289001%,19.219971%,7.839966%);fill-opacity:1;" d="M 560.609375 1165.886719 C 561.542969 1183.289062 562.367188 1200.699219 562.988281 1218.121094 C 563.746094 1239.019531 582.628906 1255.664062 605.484375 1255.257812 C 617.542969 1255.015625 629.613281 1254.785156 641.671875 1254.546875 C 664.515625 1254.148438 682.664062 1236.226562 681.886719 1214.550781 C 681.144531 1194.121094 680.175781 1173.703125 679.046875 1153.292969 L 560.609375 1165.886719 "/>
<path style=" stroke:none;fill-rule:nonzero;fill:rgb(13.328552%,7.058716%,4.708862%);fill-opacity:1;" d="M 799.140625 1225.660156 C 816.859375 1225.660156 875.191406 1225.660156 875.191406 1225.660156 C 875.191406 1225.660156 882.089844 1211.914062 868.660156 1206.011719 C 855.242188 1200.117188 799.140625 1175.453125 799.140625 1175.453125 C 799.140625 1175.453125 781.417969 1225.660156 799.140625 1225.660156 "/>
<path style=" stroke:none;fill-rule:nonzero;fill:rgb(9.01947%,22.749329%,38.42926%);fill-opacity:1;" d="M 791.730469 1182.140625 C 791.730469 1182.140625 791.710938 1180.882812 791.667969 1178.523438 C 791.582031 1176.117188 791.453125 1172.601562 791.296875 1168.125 C 790.90625 1159.160156 790.148438 1146.328125 788.835938 1130.988281 C 788.132812 1123.328125 787.320312 1115.039062 786.347656 1106.304688 C 785.285156 1097.578125 784.082031 1088.402344 782.65625 1079 C 781.242188 1069.609375 779.46875 1059.988281 777.46875 1050.429688 C 775.492188 1040.902344 773.058594 1031.355469 770.117188 1022.832031 C 768.664062 1018.585938 767.027344 1014.628906 765.429688 1011.636719 C 764.640625 1010.214844 763.835938 1009.039062 763.367188 1008.640625 C 762.664062 1008.039062 763.800781 1009.714844 762.679688 1008.796875 C 762.875 1009.019531 762.550781 1008.808594 762.394531 1008.734375 L 761.738281 1008.382812 C 761.257812 1008.132812 760.703125 1007.835938 760.054688 1007.53125 C 758.789062 1006.902344 757.269531 1006.234375 755.625 1005.597656 C 752.296875 1004.3125 748.511719 1003.054688 744.582031 1001.96875 C 736.675781 999.796875 728.304688 998.132812 720.210938 996.871094 C 712.082031 995.660156 704.230469 994.671875 696.894531 994.042969 C 689.5625 993.449219 682.792969 992.929688 676.753906 992.746094 C 670.722656 992.503906 665.453125 992.394531 661.125 992.414062 C 656.804688 992.394531 653.417969 992.488281 651.164062 992.570312 C 648.898438 992.644531 647.804688 992.753906 647.945312 992.765625 L 657.636719 910.921875 C 657.773438 910.933594 659.265625 911.347656 661.816406 912.0625 C 664.332031 912.773438 668.023438 913.835938 672.722656 915.179688 C 677.355469 916.539062 682.976562 918.195312 689.414062 920.089844 C 695.832031 922.082031 703.09375 924.191406 710.980469 926.78125 C 718.878906 929.351562 727.472656 932.117188 736.582031 935.503906 C 745.710938 938.863281 755.375 942.59375 765.632812 947.394531 C 770.773438 949.828125 776.089844 952.492188 781.640625 955.820312 C 784.425781 957.515625 787.28125 959.347656 790.25 961.503906 C 791.730469 962.566406 793.238281 963.742188 794.78125 965.027344 C 795.558594 965.695312 796.308594 966.3125 797.113281 967.054688 C 797.917969 967.8125 798.59375 968.40625 799.695312 969.515625 L 801.183594 971.042969 C 801.488281 971.347656 801.542969 971.429688 801.644531 971.558594 L 801.960938 971.929688 L 802.265625 972.300781 L 802.414062 972.476562 L 802.496094 972.566406 L 803.117188 973.253906 L 804.492188 975.019531 C 805.457031 976.257812 806.160156 977.324219 806.851562 978.414062 C 807.59375 979.542969 808.128906 980.535156 808.675781 981.550781 C 810.839844 985.578125 812.1875 989.101562 813.34375 992.46875 C 815.527344 999.101562 816.839844 1005.117188 817.875 1010.945312 C 819.910156 1022.574219 820.910156 1033.539062 821.78125 1044.234375 C 822.601562 1054.917969 822.972656 1065.300781 823.332031 1075.273438 C 823.703125 1085.253906 823.871094 1094.851562 823.945312 1103.925781 C 824.082031 1112.992188 824.136719 1121.550781 824.121094 1129.441406 C 824.15625 1145.207031 824.054688 1158.316406 824.007812 1167.503906 C 823.960938 1176.746094 823.945312 1182.03125 823.945312 1182.03125 L 791.730469 1182.140625 "/>
<path style=" stroke:none;fill-rule:nonzero;fill:rgb(97.648621%,66.668701%,47.059631%);fill-opacity:1;" d="M 804.753906 822.714844 C 810.679688 823.417969 812.84375 814.945312 820.421875 808.414062 C 827.800781 802.058594 835.671875 830.210938 828.835938 842.394531 C 822.289062 854.078125 810.699219 864.886719 797.59375 863.988281 C 786.976562 863.277344 777.089844 857.242188 775.574219 853.800781 C 773.105469 848.214844 771.070312 844.023438 771.847656 837.480469 C 772.4375 832.558594 774.539062 830.757812 775.886719 826.332031 C 777.773438 820.171875 794.421875 809.429688 797.605469 803.710938 C 801.3125 797.023438 816.054688 810.613281 804.753906 822.714844 "/>
<path style=" stroke:none;fill-rule:nonzero;fill:rgb(100%,100%,100%);fill-opacity:1;" d="M 653.34375 742.578125 C 653.34375 742.578125 654.160156 745.507812 655.582031 750.664062 C 655.933594 751.921875 656.332031 753.308594 656.75 754.824219 C 657.117188 756.039062 657.515625 757.351562 657.933594 758.757812 C 658.347656 760.171875 658.792969 761.683594 659.265625 763.273438 C 659.835938 764.847656 660.4375 766.492188 661.066406 768.214844 C 662.242188 771.867188 663.871094 775.003906 665.421875 778.769531 C 666.3125 780.417969 667.21875 782.101562 668.152344 783.832031 L 668.855469 785.164062 L 669.660156 786.328125 C 670.1875 787.125 670.730469 787.917969 671.277344 788.734375 C 671.84375 789.519531 672.304688 790.492188 672.960938 791.175781 C 673.597656 791.917969 674.226562 792.667969 674.875 793.414062 C 675.515625 794.191406 676.152344 794.980469 676.800781 795.765625 L 679.066406 797.847656 L 681.351562 800.019531 C 682.097656 800.78125 683.089844 801.316406 683.949219 801.992188 L 686.640625 803.980469 C 687.09375 804.304688 687.519531 804.675781 688.007812 804.980469 L 689.542969 805.839844 C 691.625 806.96875 693.621094 808.238281 695.796875 809.355469 C 698.097656 810.375 700.390625 811.382812 702.667969 812.382812 C 703.777344 812.9375 705 813.363281 706.238281 813.761719 C 707.46875 814.175781 708.6875 814.59375 709.898438 815.007812 C 712.351562 815.824219 714.710938 816.757812 717.269531 817.332031 C 722.292969 818.609375 727.113281 820.0625 731.996094 820.882812 C 736.8125 821.828125 741.363281 822.855469 745.730469 823.402344 C 750.066406 824.046875 754.050781 824.640625 757.585938 825.167969 C 761.171875 825.554688 764.300781 825.90625 766.878906 826.195312 C 772.050781 826.757812 775 827.09375 775 827.09375 L 775.582031 854.914062 C 775.582031 854.914062 772.476562 855.273438 767.046875 855.894531 C 764.316406 856.207031 761.007812 856.578125 757.207031 857.011719 C 753.359375 857.308594 749.011719 857.652344 744.265625 858.011719 C 739.542969 858.464844 734.277344 858.511719 728.710938 858.679688 C 723.179688 858.972656 717.152344 858.640625 710.90625 858.464844 C 707.808594 858.445312 704.546875 858.019531 701.261719 857.707031 C 699.605469 857.53125 697.949219 857.363281 696.277344 857.1875 C 694.613281 857.03125 692.929688 856.835938 691.199219 856.476562 C 687.742188 855.820312 684.261719 855.152344 680.757812 854.496094 C 677.234375 853.644531 673.65625 852.515625 670.074219 851.480469 L 667.382812 850.675781 C 666.488281 850.371094 665.597656 849.972656 664.710938 849.621094 L 659.347656 847.417969 C 657.582031 846.632812 655.75 846.011719 654.039062 845.050781 C 652.300781 844.105469 650.578125 843.164062 648.867188 842.21875 C 647.148438 841.246094 645.4375 840.285156 643.734375 839.324219 C 642.136719 838.183594 640.535156 837.066406 638.953125 835.945312 C 637.371094 834.800781 635.800781 833.652344 634.238281 832.523438 C 632.648438 831.402344 631.351562 830.0625 629.917969 828.839844 C 628.523438 827.574219 627.132812 826.324219 625.757812 825.085938 L 623.710938 823.207031 L 621.910156 821.253906 C 619.53125 818.664062 617.183594 816.089844 614.953125 813.546875 C 611.050781 808.441406 607.046875 803.464844 604.246094 798.921875 C 602.746094 796.625 601.3125 794.425781 599.945312 792.332031 C 598.695312 790.148438 597.503906 788.085938 596.382812 786.144531 C 595.273438 784.191406 594.238281 782.351562 593.277344 780.65625 C 592.488281 779.214844 591.777344 777.890625 591.128906 776.6875 C 588.597656 771.996094 587.152344 769.304688 587.152344 769.304688 L 653.34375 742.578125 "/>
<path style=" stroke:none;fill-rule:nonzero;fill:rgb(20.779419%,12.159729%,9.01947%);fill-opacity:1;" d="M 766.59375 1241.1875 C 784.3125 1241.1875 842.644531 1241.1875 842.644531 1241.1875 C 842.644531 1241.1875 849.542969 1227.4375 836.125 1221.535156 C 822.695312 1215.632812 766.59375 1190.976562 766.59375 1190.976562 C 766.59375 1190.976562 748.875 1241.1875 766.59375 1241.1875 "/>
<path style=" stroke:none;fill-rule:nonzero;fill:rgb(12.159729%,29.798889%,49.798584%);fill-opacity:1;" d="M 759.183594 1197.664062 C 759.183594 1197.664062 759.167969 1196.40625 759.121094 1194.039062 C 759.039062 1191.640625 758.90625 1188.125 758.75 1183.648438 C 758.363281 1174.675781 757.613281 1161.84375 756.289062 1146.503906 C 755.585938 1138.84375 754.773438 1130.550781 753.800781 1121.820312 C 752.738281 1113.09375 751.535156 1103.925781 750.121094 1094.527344 C 748.699219 1085.125 746.921875 1075.503906 744.925781 1065.945312 C 742.945312 1056.417969 740.523438 1046.878906 737.570312 1038.359375 C 736.121094 1034.113281 734.492188 1030.152344 732.890625 1027.152344 C 732.097656 1025.730469 731.292969 1024.5625 730.820312 1024.164062 C 730.125 1023.5625 731.253906 1025.230469 730.144531 1024.324219 C 730.339844 1024.546875 730.007812 1024.332031 729.847656 1024.257812 L 729.191406 1023.90625 C 728.710938 1023.65625 728.15625 1023.359375 727.507812 1023.046875 C 726.242188 1022.425781 724.726562 1021.761719 723.078125 1021.113281 C 719.75 1019.828125 715.96875 1018.566406 712.035156 1017.484375 C 704.136719 1015.320312 695.757812 1013.65625 687.667969 1012.386719 C 679.535156 1011.183594 671.683594 1010.195312 664.351562 1009.566406 C 657.015625 1008.972656 650.246094 1008.457031 644.207031 1008.269531 C 638.175781 1008.03125 632.90625 1007.910156 628.578125 1007.9375 C 624.257812 1007.917969 620.875 1008.011719 618.617188 1008.09375 C 616.351562 1008.167969 615.269531 1008.28125 615.398438 1008.289062 L 625.089844 926.449219 C 625.230469 926.457031 626.71875 926.875 629.269531 927.578125 C 631.785156 928.296875 635.476562 929.351562 640.175781 930.703125 C 644.808594 932.0625 650.433594 933.71875 656.867188 935.617188 C 663.289062 937.605469 670.546875 939.707031 678.4375 942.304688 C 686.335938 944.867188 694.925781 947.644531 704.035156 951.019531 C 713.164062 954.378906 722.828125 958.117188 733.085938 962.910156 C 738.226562 965.351562 743.546875 968.007812 749.09375 971.347656 C 751.878906 973.03125 754.738281 974.871094 757.707031 977.019531 C 759.183594 978.089844 760.691406 979.265625 762.238281 980.550781 C 763.015625 981.210938 763.761719 981.828125 764.566406 982.578125 C 765.382812 983.328125 766.046875 983.921875 767.148438 985.03125 L 768.636719 986.558594 C 768.941406 986.871094 769.007812 986.953125 769.109375 987.074219 L 769.71875 987.816406 L 769.875 988 L 769.949219 988.09375 L 770.570312 988.769531 L 771.949219 990.535156 C 772.910156 991.773438 773.613281 992.839844 774.308594 993.929688 C 775.046875 995.070312 775.582031 996.050781 776.136719 997.066406 C 778.292969 1001.089844 779.652344 1004.625 780.808594 1007.984375 C 782.980469 1014.617188 784.296875 1020.632812 785.339844 1026.460938 C 787.367188 1038.097656 788.375 1049.054688 789.234375 1059.757812 C 790.058594 1070.441406 790.425781 1080.816406 790.796875 1090.796875 C 791.15625 1100.769531 791.324219 1110.363281 791.398438 1119.441406 C 791.535156 1128.515625 791.59375 1137.074219 791.574219 1144.957031 C 791.609375 1160.730469 791.507812 1173.84375 791.460938 1183.027344 C 791.417969 1192.273438 791.398438 1197.554688 791.398438 1197.554688 L 759.183594 1197.664062 "/>
<path style=" stroke:none;fill-rule:nonzero;fill:rgb(75.689697%,19.999695%,19.219971%);fill-opacity:1;" d="M 552.589844 715.609375 C 567.371094 708.195312 581.621094 706.152344 590.601562 706.152344 C 601.730469 706.152344 622.425781 708.632812 642.617188 718.734375 C 669.242188 732.058594 703.039062 878.847656 693.75 926.179688 C 690.726562 941.574219 669.519531 951.722656 658.679688 962.058594 C 616.617188 1002.183594 520.296875 975.878906 497.628906 908.3125 C 497.628906 891.003906 524.875 729.523438 552.589844 715.609375 "/>
<path style=" stroke:none;fill-rule:nonzero;fill:rgb(12.159729%,29.798889%,49.798584%);fill-opacity:1;" d="M 693.75 926.179688 C 693.03125 947.71875 677.019531 975.816406 660.679688 989.75 C 617.617188 1026.433594 507.238281 1014.421875 497.628906 908.3125 C 497.628906 908.3125 534.132812 944.386719 604.355469 946.386719 C 658.691406 947.941406 693.75 926.179688 693.75 926.179688 "/>
<path style=" stroke:none;fill-rule:nonzero;fill:rgb(57.649231%,16.859436%,16.468811%);fill-opacity:1;" d="M 528.914062 928.722656 C 508.28125 918.796875 497.710938 908.398438 497.628906 908.3125 C 497.710938 908.398438 508.289062 918.789062 528.914062 928.714844 C 528.914062 928.714844 528.914062 928.722656 528.914062 928.722656 "/>
<path style=" stroke:none;fill-rule:nonzero;fill:rgb(20.779419%,11.759949%,4.708862%);fill-opacity:1;" d="M 500.503906 926.835938 C 500.503906 926.828125 500.503906 926.828125 500.503906 926.828125 C 500.503906 926.828125 500.503906 926.828125 500.503906 926.835938 M 500.476562 926.699219 C 500.464844 926.679688 500.464844 926.660156 500.457031 926.640625 C 500.464844 926.660156 500.464844 926.679688 500.476562 926.699219 M 500.4375 926.539062 C 500.429688 926.511719 500.421875 926.484375 500.421875 926.457031 C 500.421875 926.484375 500.429688 926.511719 500.4375 926.539062 M 500.410156 926.4375 C 499.191406 920.914062 498.265625 915.09375 497.683594 908.953125 C 498.265625 915.09375 499.179688 920.914062 500.410156 926.4375 M 497.683594 908.925781 C 497.671875 908.878906 497.671875 908.824219 497.671875 908.777344 C 497.671875 908.832031 497.671875 908.871094 497.683594 908.925781 M 497.664062 908.710938 C 497.65625 908.683594 497.65625 908.664062 497.65625 908.636719 C 497.65625 908.664062 497.65625 908.683594 497.664062 908.710938 M 497.644531 908.507812 C 497.636719 908.488281 497.636719 908.480469 497.636719 908.460938 C 497.636719 908.480469 497.644531 908.5 497.644531 908.507812 "/>
<path style=" stroke:none;fill-rule:nonzero;fill:rgb(9.799194%,24.708557%,41.178894%);fill-opacity:1;" d="M 582.742188 1006.699219 C 546.644531 1000.222656 511.527344 975.703125 500.503906 926.835938 C 500.503906 926.828125 500.503906 926.828125 500.503906 926.828125 C 500.496094 926.78125 500.484375 926.742188 500.476562 926.699219 C 500.464844 926.679688 500.464844 926.660156 500.457031 926.640625 C 500.449219 926.605469 500.449219 926.578125 500.4375 926.539062 C 500.429688 926.511719 500.421875 926.484375 500.421875 926.457031 C 500.410156 926.449219 500.410156 926.4375 500.410156 926.4375 C 499.179688 920.914062 498.265625 915.09375 497.683594 908.953125 C 497.683594 908.941406 497.683594 908.933594 497.683594 908.925781 C 497.671875 908.871094 497.671875 908.832031 497.671875 908.777344 C 497.664062 908.757812 497.664062 908.738281 497.664062 908.710938 C 497.65625 908.683594 497.65625 908.664062 497.65625 908.636719 C 497.644531 908.601562 497.644531 908.554688 497.644531 908.507812 C 497.644531 908.5 497.636719 908.480469 497.636719 908.460938 C 497.636719 908.414062 497.628906 908.359375 497.628906 908.3125 C 497.710938 908.398438 508.28125 918.796875 528.914062 928.722656 C 530.285156 944.867188 535.257812 960.179688 545.527344 973.050781 C 555.46875 985.503906 568.453125 998.132812 582.742188 1006.699219 "/>
<path style=" stroke:none;fill-rule:nonzero;fill:rgb(97.648621%,66.668701%,47.059631%);fill-opacity:1;" d="M 633.175781 716.523438 C 660.855469 731.660156 556.503906 729.1875 558.824219 717.410156 C 561.144531 705.644531 569.507812 668.40625 556.113281 647.308594 C 542.722656 626.214844 619.050781 653.316406 619.050781 653.316406 C 619.050781 653.316406 605.503906 701.386719 633.175781 716.523438 "/>
<path style=" stroke:none;fill-rule:nonzero;fill:rgb(97.648621%,66.668701%,47.059631%);fill-opacity:1;" d="M 530.421875 590.320312 C 530.441406 484.273438 603.132812 434.648438 637.964844 434.648438 C 700.808594 434.648438 723.402344 449.550781 730.839844 541.8125 C 732.992188 568.484375 733.1875 678.617188 686.769531 690.527344 C 601.683594 712.339844 530.414062 645.117188 530.421875 590.320312 "/>
<path style=" stroke:none;fill-rule:nonzero;fill:rgb(35.289001%,19.219971%,7.839966%);fill-opacity:1;" d="M 700.890625 488.140625 C 688.019531 485.902344 680.3125 486.597656 674.359375 487.28125 C 668.539062 487.949219 664.386719 488.621094 658.699219 486.578125 C 627.308594 475.273438 609.570312 479.546875 594.375 501.539062 C 581.464844 520.238281 584.128906 545.882812 582.640625 564.292969 C 582.234375 569.316406 578.089844 567.753906 573.660156 566.199219 C 569.277344 564.65625 564.613281 563.117188 562.988281 567.921875 C 560.683594 574.757812 551.242188 574.292969 549.160156 581.1875 C 543.140625 601.089844 550.769531 642.636719 559.34375 653.832031 C 544.0625 656.644531 516.320312 638.632812 512.0625 591.003906 C 507.117188 535.539062 484.476562 452.132812 560.359375 428.671875 C 585.109375 404.117188 629.863281 410.507812 672.859375 416.902344 C 708.03125 422.128906 742.039062 427.367188 762.957031 415.644531 C 769.285156 445.40625 760.804688 504.554688 725.214844 502.289062 C 718.214844 495.671875 710.148438 489.742188 700.890625 488.140625 "/>
<path style=" stroke:none;fill-rule:nonzero;fill:rgb(15.689087%,8.628845%,9.799194%);fill-opacity:1;" d="M 628.070312 535.613281 C 628.070312 541.582031 630.675781 546.410156 633.886719 546.410156 C 637.09375 546.410156 639.695312 541.582031 639.695312 535.613281 C 639.695312 529.65625 637.09375 524.824219 633.886719 524.824219 C 630.675781 524.824219 628.070312 529.65625 628.070312 535.613281 "/>
<path style=" stroke:none;fill-rule:nonzero;fill:rgb(15.689087%,8.628845%,9.799194%);fill-opacity:1;" d="M 686.695312 535.613281 C 686.695312 541.582031 689.304688 546.410156 692.511719 546.410156 C 695.722656 546.410156 698.320312 541.582031 698.320312 535.613281 C 698.320312 529.65625 695.722656 524.824219 692.511719 524.824219 C 689.304688 524.824219 686.695312 529.65625 686.695312 535.613281 "/>
<path style=" stroke:none;fill-rule:nonzero;fill:rgb(40.779114%,9.799194%,9.01947%);fill-opacity:1;" d="M 601.542969 610.359375 C 605.261719 645.332031 631.359375 657.691406 655.183594 657.691406 C 679.007812 657.691406 698.320312 638.375 698.320312 614.539062 L 601.542969 610.359375 "/>
<path style=" stroke:none;fill-rule:nonzero;fill:rgb(70.588684%,12.548828%,14.898682%);fill-opacity:1;" d="M 671.972656 633.359375 C 660.132812 630.832031 646.519531 629.242188 634.636719 632.5625 C 626.988281 634.710938 621.945312 639.214844 616.3125 643.222656 C 626.847656 653.507812 641.386719 657.691406 655.183594 657.691406 C 669.605469 657.691406 682.328125 650.59375 690.171875 639.734375 C 684.464844 636.902344 678.378906 634.726562 671.972656 633.359375 "/>
<path style=" stroke:none;fill-rule:nonzero;fill:rgb(35.289001%,19.219971%,7.839966%);fill-opacity:1;" d="M 642.785156 507.914062 C 648.019531 508.375 648.628906 500.382812 643.957031 498.707031 C 640.628906 497.503906 632.453125 497.226562 624.765625 502.140625 C 615.960938 507.753906 613.707031 521.847656 613.707031 521.847656 C 613.707031 521.847656 615.742188 514.648438 625.820312 510.179688 C 631.859375 507.507812 636.457031 507.347656 642.785156 507.914062 "/>
<path style=" stroke:none;fill-rule:nonzero;fill:rgb(35.289001%,19.219971%,7.839966%);fill-opacity:1;" d="M 683.863281 507.914062 C 678.628906 508.375 678.019531 500.382812 682.679688 498.707031 C 686.03125 497.503906 694.195312 497.226562 701.882812 502.140625 C 710.6875 507.753906 712.941406 521.847656 712.941406 521.847656 C 712.941406 521.847656 710.90625 514.648438 700.828125 510.179688 C 694.789062 507.507812 690.183594 507.347656 683.863281 507.914062 "/>
<path style=" stroke:none;fill-rule:nonzero;fill:rgb(97.648621%,66.668701%,47.059631%);fill-opacity:1;" d="M 516.320312 567.921875 C 516.320312 585.757812 528.222656 600.226562 542.910156 600.226562 C 557.59375 600.226562 569.496094 585.757812 569.496094 567.921875 C 569.496094 550.082031 557.59375 535.613281 542.910156 535.613281 C 528.222656 535.613281 516.320312 550.082031 516.320312 567.921875 "/>
<path style=" stroke:none;fill-rule:nonzero;fill:rgb(79.998779%,44.309998%,32.548523%);fill-opacity:1;" d="M 549.132812 578.503906 C 546.402344 578.503906 543.742188 576.5625 544.574219 573.40625 C 546.183594 567.273438 546.8125 562.710938 545.183594 556.308594 C 542.472656 545.613281 535.722656 542.402344 535.722656 542.402344 C 535.722656 542.402344 549.226562 546.992188 553.285156 556.605469 C 556.835938 565.023438 555.191406 573.027344 553.441406 576.125 C 552.515625 577.773438 550.804688 578.503906 549.132812 578.503906 "/>
<path style=" stroke:none;fill-rule:nonzero;fill:rgb(100%,100%,100%);fill-opacity:1;" d="M 560.636719 708.121094 C 565.464844 718.835938 600.722656 720.28125 614.382812 727.273438 C 605.058594 729.511719 588.992188 752.21875 588.992188 752.21875 C 588.992188 752.21875 549.113281 732.519531 560.636719 708.121094 "/>
<path style=" stroke:none;fill-rule:nonzero;fill:rgb(100%,100%,100%);fill-opacity:1;" d="M 627.550781 712.507812 C 643.660156 731.402344 616.175781 721.992188 614.382812 727.273438 C 627.070312 729.003906 648.371094 745.539062 648.371094 745.539062 C 648.371094 745.539062 660.902344 718.070312 627.550781 712.507812 "/>
<path style=" stroke:none;fill-rule:nonzero;fill:rgb(98.81897%,98.81897%,98.81897%);fill-opacity:1;" d="M 612.484375 789.964844 C 612.484375 816.285156 593.238281 837.621094 569.496094 837.621094 C 545.746094 837.621094 526.5 816.285156 526.5 789.964844 C 526.5 763.632812 545.746094 742.300781 569.496094 742.300781 C 593.238281 742.300781 612.484375 763.632812 612.484375 789.964844 "/>
<path style=" stroke:none;fill-rule:nonzero;fill:rgb(35.289001%,19.219971%,7.839966%);fill-opacity:1;" d="M 749.84375 909.75 L 678.464844 932.96875 L 674.886719 927.429688 L 758.261719 838 L 834.515625 823.605469 L 838.425781 829.671875 L 749.84375 909.75 "/>
<path style=" stroke:none;fill-rule:nonzero;fill:rgb(43.528748%,26.269531%,13.729858%);fill-opacity:1;" d="M 755.679688 918.777344 L 678.464844 932.96875 L 761.21875 843.867188 L 838.425781 829.671875 L 755.679688 918.777344 "/>
<path style=" stroke:none;fill-rule:nonzero;fill:rgb(22.749329%,11.759949%,4.309082%);fill-opacity:1;" d="M 696.222656 902.632812 C 696.222656 902.632812 695.898438 902.570312 695.289062 902.449219 C 695.128906 894.222656 694.464844 885.035156 693.382812 875.285156 C 695.25 875.804688 697.136719 875.960938 698.738281 875.960938 C 701.132812 875.960938 702.871094 875.609375 702.871094 875.609375 L 696.222656 902.632812 "/>
<path style=" stroke:none;fill-rule:nonzero;fill:rgb(62.748718%,16.079712%,15.289307%);fill-opacity:1;" d="M 695.289062 902.449219 C 694 902.199219 691.441406 901.699219 687.824219 900.996094 C 685.140625 900.46875 681.886719 899.839844 678.167969 899.109375 C 674.421875 898.230469 670.207031 897.25 665.597656 896.175781 C 660.984375 895.195312 655.988281 893.667969 650.691406 892.179688 C 645.382812 890.800781 639.796875 888.710938 633.988281 886.703125 C 631.074219 885.785156 628.144531 884.425781 625.164062 883.175781 C 622.1875 881.824219 619.125 880.761719 616.121094 879.105469 C 613.09375 877.503906 610.050781 875.886719 606.992188 874.265625 C 603.96875 872.480469 600.988281 870.410156 597.972656 868.449219 C 594.914062 866.605469 592.164062 863.996094 589.28125 861.722656 C 586.347656 859.472656 583.742188 856.78125 581.152344 854.070312 L 577.292969 850.027344 C 576.148438 848.554688 575.011719 847.09375 573.882812 845.640625 C 571.828125 842.996094 569.792969 840.367188 568.148438 837.601562 C 568.589844 837.621094 569.042969 837.621094 569.496094 837.621094 C 585.433594 837.621094 599.351562 828 606.777344 813.703125 C 611.792969 822.03125 618.402344 830.507812 627.0625 838.054688 C 658.226562 865.21875 690.117188 874.222656 692.566406 875.042969 C 692.835938 875.136719 693.113281 875.21875 693.382812 875.285156 C 694.464844 885.035156 695.128906 894.222656 695.289062 902.449219 "/>
<path style=" stroke:none;fill-rule:nonzero;fill:rgb(81.568909%,81.568909%,81.568909%);fill-opacity:1;" d="M 569.496094 837.621094 C 569.042969 837.621094 568.589844 837.621094 568.148438 837.601562 C 567.972656 837.316406 567.804688 837.019531 567.640625 836.734375 C 563.707031 830.691406 560.960938 824.585938 558.289062 818.765625 C 556.152344 813 553.886719 807.394531 552.601562 802.417969 C 551.878906 799.902344 551.1875 797.476562 550.519531 795.183594 C 549.984375 792.832031 549.476562 790.613281 549.003906 788.519531 C 548.53125 786.429688 548.097656 784.460938 547.691406 782.644531 C 547.382812 781.046875 547.105469 779.585938 546.847656 778.261719 C 545.867188 773.035156 545.292969 770.054688 545.292969 770.054688 C 545.292969 770.054688 564.355469 768.039062 577.941406 768.039062 C 585.40625 768.039062 591.214844 768.648438 591.316406 770.527344 C 591.371094 771.46875 593.738281 792.09375 606.777344 813.703125 C 599.351562 828 585.433594 837.621094 569.496094 837.621094 "/>
<path style=" stroke:none;fill-rule:nonzero;fill:rgb(97.648621%,66.668701%,47.059631%);fill-opacity:1;" d="M 719.082031 885.269531 C 724.484375 887.832031 729.238281 880.476562 738.496094 876.699219 C 747.503906 873.007812 746.015625 902.207031 735.667969 911.589844 C 725.742188 920.589844 711.324219 927.140625 699.179688 922.128906 C 689.339844 918.066406 681.886719 909.203125 681.542969 905.464844 C 680.980469 899.375 680.378906 894.761719 683.199219 888.800781 C 685.316406 884.324219 687.886719 883.277344 690.570312 879.523438 C 694.324219 874.277344 713.515625 869.390625 718.351562 864.976562 C 723.996094 859.824219 733.648438 877.394531 719.082031 885.269531 "/>
<path style=" stroke:none;fill-rule:nonzero;fill:rgb(100%,100%,100%);fill-opacity:1;" d="M 592.027344 761.671875 C 592.027344 761.671875 592.007812 764.707031 591.972656 770.027344 C 591.960938 771.332031 591.960938 772.785156 591.953125 774.355469 C 592 775.699219 592.046875 777.152344 592.09375 778.703125 C 592.128906 780.269531 592.164062 781.925781 592.210938 783.671875 C 592.371094 785.429688 592.527344 787.273438 592.703125 789.195312 C 592.886719 793.175781 593.730469 796.929688 594.3125 801.195312 C 594.800781 803.15625 595.300781 805.175781 595.808594 807.238281 L 596.179688 808.808594 L 596.726562 810.261719 C 597.078125 811.253906 597.429688 812.253906 597.789062 813.25 C 598.175781 814.242188 598.410156 815.351562 598.925781 816.277344 C 599.398438 817.230469 599.871094 818.191406 600.351562 819.164062 C 600.8125 820.152344 601.285156 821.144531 601.757812 822.140625 C 602.367188 823.078125 602.96875 824.003906 603.578125 824.9375 L 605.382812 827.8125 C 605.964844 828.804688 606.835938 829.628906 607.535156 830.5625 L 609.773438 833.308594 C 610.15625 833.773438 610.496094 834.261719 610.914062 834.707031 L 612.234375 835.992188 C 614.03125 837.695312 615.703125 839.507812 617.582031 841.203125 C 619.597656 842.839844 621.59375 844.457031 623.582031 846.066406 C 624.546875 846.917969 625.628906 847.667969 626.726562 848.390625 C 627.820312 849.128906 628.910156 849.878906 629.992188 850.609375 C 632.164062 852.070312 634.21875 853.617188 636.550781 854.867188 C 641.089844 857.484375 645.371094 860.175781 649.859375 862.3125 C 654.261719 864.535156 658.359375 866.746094 662.410156 868.464844 C 666.402344 870.261719 670.066406 871.917969 673.320312 873.378906 C 676.652344 874.738281 679.566406 875.914062 681.960938 876.894531 C 686.75 878.847656 689.496094 879.957031 689.496094 879.957031 L 681.203125 906.519531 C 681.203125 906.519531 678.1875 905.742188 672.914062 904.363281 C 670.269531 903.679688 667.070312 902.847656 663.390625 901.882812 C 659.707031 900.78125 655.554688 899.542969 651.03125 898.183594 C 646.492188 896.925781 641.597656 895.09375 636.402344 893.269531 C 631.183594 891.578125 625.738281 889.144531 620.058594 886.785156 C 617.210938 885.683594 614.371094 884.148438 611.46875 882.714844 C 610.015625 881.984375 608.5625 881.242188 607.09375 880.503906 C 605.621094 879.78125 604.144531 879.023438 602.699219 878.097656 C 599.777344 876.3125 596.835938 874.507812 593.886719 872.703125 C 590.980469 870.734375 588.132812 868.484375 585.246094 866.347656 L 583.09375 864.710938 C 582.390625 864.128906 581.722656 863.480469 581.039062 862.859375 L 576.980469 859.085938 C 575.65625 857.789062 574.222656 856.632812 573.011719 855.199219 C 571.78125 853.773438 570.5625 852.359375 569.339844 850.953125 C 568.136719 849.519531 566.9375 848.09375 565.734375 846.679688 C 564.6875 845.140625 563.644531 843.617188 562.609375 842.097656 C 561.582031 840.554688 560.554688 839.027344 559.546875 837.507812 C 558.5 836 557.796875 834.375 556.929688 832.808594 C 556.105469 831.238281 555.28125 829.664062 554.476562 828.109375 L 553.285156 825.777344 C 552.960938 825 552.648438 824.222656 552.332031 823.445312 C 551.082031 820.328125 549.871094 817.277344 548.699219 814.304688 C 546.921875 808.421875 545.007812 802.695312 544.027344 797.644531 C 543.464844 795.082031 542.910156 792.621094 542.390625 790.277344 C 542 787.910156 541.632812 785.664062 541.289062 783.554688 C 540.949219 781.425781 540.632812 779.4375 540.335938 777.605469 C 540.132812 775.996094 539.9375 774.503906 539.773438 773.171875 C 539.105469 767.898438 538.726562 764.882812 538.726562 764.882812 L 592.027344 761.671875 "/>
<g clip-path="url(#clip1)" clip-rule="nonzero">
<path style=" stroke:none;fill-rule:nonzero;fill:rgb(35.289001%,19.219971%,7.839966%);fill-opacity:1;" d="M 704.980469 1205.222656 C 704.980469 1225.078125 686.453125 1241.1875 663.601562 1241.1875 L 349.835938 1241.1875 C 326.984375 1241.1875 308.449219 1225.078125 308.449219 1205.222656 L 308.449219 956.480469 C 308.449219 936.617188 326.984375 920.515625 349.835938 920.515625 L 663.601562 920.515625 C 686.453125 920.515625 704.980469 936.617188 704.980469 956.480469 L 704.980469 1205.222656 "/>
</g>
<path style=" stroke:none;fill-rule:nonzero;fill:rgb(98.81897%,81.17981%,67.059326%);fill-opacity:1;" d="M 652.816406 577.226562 L 641.746094 577.226562 C 648.515625 566.882812 655.667969 556.808594 663.082031 546.917969 C 661.640625 544.539062 659.394531 542.699219 656.710938 541.785156 C 654 545.28125 651.328125 548.824219 648.738281 552.421875 C 642.867188 560.539062 637.53125 569.066406 631.710938 577.226562 L 629.371094 577.226562 C 636.539062 567.355469 642.949219 556.882812 650.257812 547.121094 C 651.71875 545.160156 653.226562 543.226562 654.722656 541.285156 C 654.113281 541.191406 653.484375 541.128906 652.84375 541.117188 C 659.457031 541.136719 664.8125 546.503906 664.8125 553.125 L 664.8125 565.21875 C 664.8125 571.851562 659.441406 577.226562 652.816406 577.226562 M 617.128906 577.226562 C 610.496094 577.226562 605.132812 571.851562 605.132812 565.21875 L 605.132812 553.125 C 605.132812 546.492188 610.496094 541.117188 617.128906 541.117188 L 628.882812 541.117188 C 629.898438 544.292969 631.757812 546.410156 633.886719 546.410156 C 636.011719 546.410156 637.871094 544.292969 638.890625 541.117188 L 652.816406 541.117188 L 640.515625 541.117188 C 635.503906 547.539062 630.601562 554.042969 625.839844 560.648438 C 622.695312 565.007812 619.484375 569.328125 616.683594 573.90625 C 616.054688 574.941406 615.425781 575.980469 614.769531 576.996094 C 615.535156 577.144531 616.324219 577.226562 617.128906 577.226562 "/>
<path style=" stroke:none;fill-rule:nonzero;fill:rgb(29.019165%,21.569824%,24.708557%);fill-opacity:1;" d="M 633.886719 546.410156 C 631.757812 546.410156 629.898438 544.292969 628.882812 541.117188 L 638.890625 541.117188 C 637.871094 544.292969 636.011719 546.410156 633.886719 546.410156 "/>
<path style=" stroke:none;fill-rule:nonzero;fill:rgb(99.21875%,89.7995%,81.568909%);fill-opacity:1;" d="M 629.371094 577.226562 L 617.128906 577.226562 C 616.324219 577.226562 615.535156 577.144531 614.769531 576.996094 C 615.425781 575.980469 616.054688 574.941406 616.683594 573.90625 C 619.484375 569.328125 622.695312 565.007812 625.839844 560.648438 C 630.601562 554.042969 635.503906 547.539062 640.515625 541.117188 L 652.816406 541.117188 C 652.828125 541.117188 652.835938 541.117188 652.84375 541.117188 C 653.484375 541.128906 654.113281 541.191406 654.722656 541.285156 C 653.226562 543.226562 651.71875 545.160156 650.257812 547.121094 C 642.949219 556.882812 636.539062 567.355469 629.371094 577.226562 "/>
<path style=" stroke:none;fill-rule:nonzero;fill:rgb(99.21875%,89.7995%,81.568909%);fill-opacity:1;" d="M 641.746094 577.226562 L 631.710938 577.226562 C 637.53125 569.066406 642.867188 560.539062 648.738281 552.421875 C 651.328125 548.824219 654 545.28125 656.710938 541.785156 C 659.394531 542.699219 661.640625 544.539062 663.082031 546.917969 C 655.667969 556.808594 648.515625 566.882812 641.746094 577.226562 "/>
<path style=" stroke:none;fill-rule:nonzero;fill:rgb(9.799194%,21.958923%,34.118652%);fill-opacity:1;" d="M 654.074219 541.117188 L 650.664062 541.117188 C 656.488281 541.117188 661.214844 546.253906 661.214844 552.589844 L 661.214844 564.15625 C 661.214844 570.492188 656.488281 575.636719 650.664062 575.636719 L 619.273438 575.636719 C 613.445312 575.636719 608.722656 570.492188 608.722656 564.15625 L 608.722656 552.589844 C 608.722656 546.253906 613.445312 541.117188 619.273438 541.117188 L 615.859375 541.117188 C 608.765625 541.117188 603.003906 546.882812 603.003906 553.976562 L 603.003906 566.929688 C 603.003906 574.035156 608.765625 579.789062 615.859375 579.789062 L 654.074219 579.789062 C 661.179688 579.789062 666.929688 574.035156 666.929688 566.929688 L 666.929688 553.976562 C 666.929688 546.882812 661.179688 541.117188 654.074219 541.117188 "/>
<path style=" stroke:none;fill-rule:nonzero;fill:rgb(74.899292%,91.758728%,98.429871%);fill-opacity:1;" d="M 732.789062 575.804688 L 731.355469 575.804688 C 731.457031 572.390625 731.523438 569.113281 731.542969 566.003906 C 735.289062 560.601562 739.125 555.273438 743.039062 550 C 743.242188 550.878906 743.34375 551.804688 743.34375 552.757812 L 743.34375 564.320312 C 743.34375 570.660156 738.617188 575.804688 732.789062 575.804688 "/>
<path style=" stroke:none;fill-rule:nonzero;fill:rgb(98.81897%,81.17981%,67.059326%);fill-opacity:1;" d="M 731.355469 575.804688 L 724.917969 575.804688 C 727.082031 572.507812 729.292969 569.242188 731.542969 566.003906 C 731.523438 569.113281 731.457031 572.390625 731.355469 575.804688 "/>
<path style=" stroke:none;fill-rule:nonzero;fill:rgb(74.899292%,91.758728%,98.429871%);fill-opacity:1;" d="M 731.375 551.867188 C 731.339844 550.796875 731.300781 549.777344 731.253906 548.796875 C 731.632812 548.289062 732.003906 547.789062 732.375 547.289062 C 733.714844 545.503906 735.074219 543.746094 736.433594 541.988281 C 737.027344 542.21875 737.589844 542.515625 738.125 542.855469 C 735.84375 545.835938 733.585938 548.832031 731.375 551.867188 "/>
<path style=" stroke:none;fill-rule:nonzero;fill:rgb(98.81897%,81.17981%,67.059326%);fill-opacity:1;" d="M 714.957031 575.804688 L 712.648438 575.804688 C 718.992188 566.910156 724.800781 557.59375 731.253906 548.796875 C 731.300781 549.777344 731.339844 550.796875 731.375 551.867188 C 731.207031 552.109375 731.03125 552.347656 730.855469 552.582031 C 725.371094 560.175781 720.351562 568.125 714.957031 575.804688 "/>
<path style=" stroke:none;fill-rule:nonzero;fill:rgb(98.81897%,81.17981%,67.059326%);fill-opacity:1;" d="M 698.109375 575.230469 C 693.890625 573.722656 690.847656 569.410156 690.847656 564.320312 L 690.847656 552.757812 C 690.847656 550.40625 691.496094 548.222656 692.613281 546.410156 C 694.425781 546.355469 696.035156 544.753906 697.082031 542.285156 C 698.402344 541.636719 699.863281 541.285156 701.402344 541.285156 L 699.253906 541.285156 L 730.800781 541.285156 L 722.644531 541.285156 C 717.632812 547.707031 712.71875 554.210938 707.957031 560.816406 C 704.824219 565.171875 701.613281 569.492188 698.8125 574.074219 C 698.578125 574.460938 698.339844 574.839844 698.109375 575.230469 "/>
<path style=" stroke:none;fill-rule:nonzero;fill:rgb(29.019165%,21.569824%,24.708557%);fill-opacity:1;" d="M 692.613281 546.410156 C 693.707031 544.613281 695.257812 543.171875 697.082031 542.285156 C 696.035156 544.753906 694.425781 546.355469 692.613281 546.410156 "/>
<path style=" stroke:none;fill-rule:nonzero;fill:rgb(86.669922%,95.689392%,99.21875%);fill-opacity:1;" d="M 731.253906 548.796875 C 731.144531 546.078125 730.996094 543.726562 730.839844 541.8125 C 730.828125 541.636719 730.8125 541.460938 730.800781 541.285156 L 734.9375 541.285156 L 732.789062 541.285156 C 734.066406 541.285156 735.296875 541.535156 736.433594 541.988281 C 735.074219 543.746094 733.714844 545.503906 732.375 547.289062 C 732.003906 547.789062 731.632812 548.289062 731.253906 548.796875 "/>
<path style=" stroke:none;fill-rule:nonzero;fill:rgb(99.21875%,89.7995%,81.568909%);fill-opacity:1;" d="M 712.648438 575.804688 L 701.402344 575.804688 C 700.253906 575.804688 699.144531 575.597656 698.109375 575.230469 C 698.339844 574.839844 698.578125 574.460938 698.8125 574.074219 C 701.613281 569.492188 704.824219 565.171875 707.957031 560.816406 C 712.71875 554.210938 717.632812 547.707031 722.644531 541.285156 L 730.800781 541.285156 C 730.8125 541.460938 730.828125 541.636719 730.839844 541.8125 C 730.996094 543.726562 731.144531 546.078125 731.253906 548.796875 C 724.800781 557.59375 718.992188 566.910156 712.648438 575.804688 "/>
<path style=" stroke:none;fill-rule:nonzero;fill:rgb(86.669922%,95.689392%,99.21875%);fill-opacity:1;" d="M 731.542969 566.003906 C 731.578125 560.757812 731.515625 555.984375 731.375 551.867188 C 733.585938 548.832031 735.84375 545.835938 738.125 542.855469 C 740.539062 544.402344 742.34375 546.964844 743.039062 550 C 739.125 555.273438 735.289062 560.601562 731.542969 566.003906 "/>
<path style=" stroke:none;fill-rule:nonzero;fill:rgb(99.21875%,89.7995%,81.568909%);fill-opacity:1;" d="M 724.917969 575.804688 L 714.957031 575.804688 C 720.351562 568.125 725.371094 560.175781 730.855469 552.582031 C 731.03125 552.347656 731.207031 552.109375 731.375 551.867188 C 731.515625 555.984375 731.578125 560.757812 731.542969 566.003906 C 729.292969 569.242188 727.082031 572.507812 724.917969 575.804688 "/>
<path style=" stroke:none;fill-rule:nonzero;fill:rgb(9.799194%,21.958923%,34.118652%);fill-opacity:1;" d="M 736.203125 541.285156 L 732.789062 541.285156 C 738.617188 541.285156 743.34375 546.417969 743.34375 552.757812 L 743.34375 564.320312 C 743.34375 570.660156 738.617188 575.804688 732.789062 575.804688 L 701.402344 575.804688 C 695.574219 575.804688 690.847656 570.660156 690.847656 564.320312 L 690.847656 552.757812 C 690.847656 546.417969 695.574219 541.285156 701.402344 541.285156 L 697.988281 541.285156 C 690.886719 541.285156 685.132812 547.039062 685.132812 554.144531 L 685.132812 567.097656 C 685.132812 572.269531 688.195312 576.738281 692.605469 578.773438 C 694.242188 579.53125 696.0625 579.957031 697.988281 579.957031 L 736.203125 579.957031 C 743.296875 579.957031 749.058594 574.191406 749.058594 567.097656 L 749.058594 554.144531 C 749.058594 547.039062 743.296875 541.285156 736.203125 541.285156 "/>
<path style=" stroke:none;fill-rule:nonzero;fill:rgb(9.799194%,21.958923%,34.118652%);fill-opacity:1;" d="M 664.757812 553.699219 L 664.757812 563.3125 C 672.15625 560.75 680.238281 560.878906 687.546875 563.777344 C 688.675781 560.925781 689.804688 558.078125 690.929688 555.21875 C 682.550781 551.90625 673.386719 551.425781 664.757812 553.699219 "/>
<path style=" stroke:none;fill-rule:nonzero;fill:rgb(97.648621%,66.668701%,47.059631%);fill-opacity:1;" d="M 669.613281 564.488281 L 669.269531 564.523438 C 669.050781 568.355469 667.984375 571.863281 667.292969 575.617188 C 666.921875 577.589844 666.679688 579.570312 666.460938 581.539062 C 666.460938 585.074219 666.402344 588.46875 665.414062 591.625 C 667.125 592.59375 669.019531 593.195312 671.074219 593.195312 C 678.140625 593.195312 692.566406 590.996094 692.566406 578.835938 C 692.566406 567.800781 676.667969 564.488281 669.613281 564.488281 "/>
<path style=" stroke:none;fill-rule:nonzero;fill:rgb(100%,100%,100%);fill-opacity:1;" d="M 673.867188 563.839844 C 672.074219 563.25 670.019531 563.832031 669.269531 564.496094 C 669.253906 564.773438 669.214844 565.023438 669.1875 565.292969 L 669.59375 565.515625 C 676.726562 567.558594 685.605469 572.09375 688.304688 578.835938 C 688.792969 570.984375 680.953125 566.207031 673.867188 563.839844 "/>
<path style=" stroke:none;fill-rule:nonzero;fill:rgb(79.998779%,44.309998%,32.548523%);fill-opacity:1;" d="M 671.074219 593.195312 C 669.796875 593.195312 668.964844 593.074219 668.484375 592.871094 C 669.316406 593.085938 670.1875 593.195312 671.074219 593.195312 C 678.140625 593.195312 692.566406 590.996094 692.566406 578.835938 C 692.566406 590.996094 678.140625 593.195312 671.074219 593.195312 M 692.566406 578.808594 C 692.566406 578.808594 692.566406 578.800781 692.566406 578.800781 C 692.566406 578.800781 692.566406 578.808594 692.566406 578.808594 M 692.566406 578.773438 C 692.566406 578.773438 692.566406 578.773438 692.566406 578.761719 C 692.566406 578.773438 692.566406 578.773438 692.566406 578.773438 "/>
<path style=" stroke:none;fill-rule:nonzero;fill:rgb(8.239746%,16.079712%,25.099182%);fill-opacity:1;" d="M 692.566406 578.746094 C 692.566406 578.734375 692.566406 578.734375 692.566406 578.726562 C 692.566406 578.734375 692.566406 578.734375 692.566406 578.746094 M 692.566406 578.707031 C 692.566406 578.707031 692.566406 578.699219 692.566406 578.699219 C 692.566406 578.699219 692.566406 578.707031 692.566406 578.707031 M 692.566406 578.679688 C 692.566406 578.671875 692.566406 578.671875 692.566406 578.660156 C 692.566406 578.671875 692.566406 578.671875 692.566406 578.679688 M 692.566406 578.644531 C 692.566406 578.644531 692.566406 578.632812 692.566406 578.632812 C 692.566406 578.632812 692.566406 578.644531 692.566406 578.644531 M 692.566406 578.617188 C 692.566406 578.605469 692.566406 578.605469 692.566406 578.597656 C 692.566406 578.605469 692.566406 578.605469 692.566406 578.617188 M 692.566406 578.578125 C 692.566406 578.578125 692.566406 578.570312 692.566406 578.570312 C 692.566406 578.570312 692.566406 578.578125 692.566406 578.578125 M 692.566406 578.550781 C 692.566406 578.542969 692.566406 578.542969 692.566406 578.53125 C 692.566406 578.542969 692.566406 578.542969 692.566406 578.550781 M 692.566406 578.515625 C 692.566406 578.515625 692.566406 578.503906 692.566406 578.503906 C 692.566406 578.503906 692.566406 578.515625 692.566406 578.515625 M 692.566406 578.484375 C 692.566406 578.476562 692.566406 578.476562 692.566406 578.46875 C 692.566406 578.476562 692.566406 578.476562 692.566406 578.484375 M 692.566406 578.449219 C 692.566406 578.441406 692.566406 578.441406 692.566406 578.441406 C 692.566406 578.441406 692.566406 578.449219 692.566406 578.449219 M 692.558594 578.410156 C 692.558594 578.410156 692.558594 578.410156 692.558594 578.402344 C 692.558594 578.410156 692.558594 578.410156 692.558594 578.410156 M 692.558594 578.382812 C 692.558594 578.382812 692.558594 578.375 692.558594 578.375 C 692.558594 578.375 692.558594 578.382812 692.558594 578.382812 M 692.558594 578.347656 C 692.558594 578.347656 692.558594 578.347656 692.558594 578.339844 C 692.558594 578.347656 692.558594 578.347656 692.558594 578.347656 M 692.558594 578.320312 C 692.558594 578.320312 692.558594 578.308594 692.558594 578.308594 C 692.558594 578.308594 692.558594 578.308594 692.558594 578.320312 M 692.558594 578.253906 C 692.558594 578.246094 692.558594 578.246094 692.558594 578.246094 C 692.558594 578.246094 692.558594 578.246094 692.558594 578.253906 "/>
<path style=" stroke:none;fill-rule:nonzero;fill:rgb(79.998779%,44.309998%,32.548523%);fill-opacity:1;" d="M 671.074219 593.195312 C 670.1875 593.195312 669.316406 593.085938 668.484375 592.871094 C 666.78125 592.160156 669.632812 590.542969 672.804688 590.542969 C 672.988281 590.542969 673.175781 590.542969 673.367188 590.558594 C 673.617188 590.570312 673.875 590.578125 674.136719 590.578125 C 680.460938 590.578125 687.769531 585.785156 688.296875 578.828125 C 688.304688 578.828125 688.304688 578.835938 688.304688 578.835938 C 688.3125 578.660156 688.324219 578.476562 688.324219 578.300781 C 688.414062 575.007812 686.980469 571.261719 683.253906 567.320312 C 688.128906 569.417969 692.234375 572.859375 692.550781 578.179688 C 692.550781 578.199219 692.550781 578.207031 692.550781 578.21875 C 692.558594 578.226562 692.558594 578.234375 692.558594 578.246094 C 692.558594 578.246094 692.558594 578.246094 692.558594 578.253906 C 692.558594 578.265625 692.558594 578.273438 692.558594 578.28125 C 692.558594 578.292969 692.558594 578.300781 692.558594 578.308594 C 692.558594 578.308594 692.558594 578.320312 692.558594 578.320312 C 692.558594 578.328125 692.558594 578.339844 692.558594 578.339844 C 692.558594 578.347656 692.558594 578.347656 692.558594 578.347656 C 692.558594 578.355469 692.558594 578.367188 692.558594 578.375 C 692.558594 578.375 692.558594 578.382812 692.558594 578.382812 C 692.558594 578.394531 692.558594 578.402344 692.558594 578.402344 C 692.558594 578.410156 692.558594 578.410156 692.558594 578.410156 C 692.566406 578.421875 692.566406 578.429688 692.566406 578.441406 C 692.566406 578.441406 692.566406 578.441406 692.566406 578.449219 C 692.566406 578.457031 692.566406 578.46875 692.566406 578.46875 C 692.566406 578.476562 692.566406 578.476562 692.566406 578.484375 C 692.566406 578.484375 692.566406 578.496094 692.566406 578.503906 C 692.566406 578.503906 692.566406 578.515625 692.566406 578.515625 C 692.566406 578.523438 692.566406 578.523438 692.566406 578.53125 C 692.566406 578.542969 692.566406 578.542969 692.566406 578.550781 C 692.566406 578.550781 692.566406 578.558594 692.566406 578.570312 C 692.566406 578.570312 692.566406 578.578125 692.566406 578.578125 C 692.566406 578.585938 692.566406 578.597656 692.566406 578.597656 C 692.566406 578.605469 692.566406 578.605469 692.566406 578.617188 C 692.566406 578.617188 692.566406 578.625 692.566406 578.632812 C 692.566406 578.632812 692.566406 578.644531 692.566406 578.644531 C 692.566406 578.652344 692.566406 578.660156 692.566406 578.660156 C 692.566406 578.671875 692.566406 578.671875 692.566406 578.679688 C 692.566406 578.679688 692.566406 578.691406 692.566406 578.699219 C 692.566406 578.699219 692.566406 578.707031 692.566406 578.707031 C 692.566406 578.71875 692.566406 578.726562 692.566406 578.726562 C 692.566406 578.734375 692.566406 578.734375 692.566406 578.746094 C 692.566406 578.753906 692.566406 578.761719 692.566406 578.761719 C 692.566406 578.773438 692.566406 578.773438 692.566406 578.773438 C 692.566406 578.78125 692.566406 578.792969 692.566406 578.800781 C 692.566406 578.800781 692.566406 578.808594 692.566406 578.808594 C 692.566406 578.820312 692.566406 578.828125 692.566406 578.835938 C 692.566406 590.996094 678.140625 593.195312 671.074219 593.195312 "/>
<path style=" stroke:none;fill-rule:nonzero;fill:rgb(81.568909%,64.709473%,65.489197%);fill-opacity:1;" d="M 688.304688 578.835938 C 688.304688 578.835938 688.304688 578.828125 688.296875 578.828125 C 688.3125 578.652344 688.324219 578.476562 688.324219 578.300781 C 688.324219 578.476562 688.3125 578.660156 688.304688 578.835938 "/>
</g>
</svg>
