<?xml version="1.0" encoding="UTF-8"?>
<svg xmlns="http://www.w3.org/2000/svg" xmlns:xlink="http://www.w3.org/1999/xlink" width="1190.25pt" height="1683.749945pt" viewBox="0 0 1190.25 1683.749945" version="1.2">
<defs>
<clipPath id="clip1">
  <path d="M 219.375 937 L 970.519531 937 L 970.519531 1010 L 219.375 1010 Z M 219.375 937 "/>
</clipPath>
<clipPath id="clip2">
  <path d="M 324 955 L 911 955 L 911 1080.851562 L 324 1080.851562 Z M 324 955 "/>
</clipPath>
</defs>
<g id="surface1">
<path style=" stroke:none;fill-rule:evenodd;fill:rgb(96.078491%,72.938538%,32.548523%);fill-opacity:1;" d="M 726.835938 669.414062 L 726.835938 991.128906 L 231.214844 991.128906 L 231.214844 669.414062 L 726.835938 669.414062 "/>
<path style=" stroke:none;fill-rule:evenodd;fill:rgb(98.81897%,90.979004%,73.728943%);fill-opacity:1;" d="M 585.332031 677.699219 L 585.332031 677.964844 L 585.398438 678.195312 C 585.566406 677.898438 585.664062 677.597656 585.464844 677.53125 C 585.433594 677.53125 585.398438 677.53125 585.367188 677.53125 Z M 588.78125 679.320312 C 588.816406 679.289062 588.816406 679.289062 588.816406 679.253906 C 588.847656 679.253906 588.847656 679.222656 588.882812 679.222656 Z M 314.164062 681.441406 C 314.097656 681.441406 314.066406 681.441406 314 681.441406 C 313.933594 681.410156 314 681.574219 314 681.640625 C 313.964844 681.773438 313.964844 681.9375 313.964844 682.136719 L 314.164062 681.972656 C 314.164062 681.871094 314.164062 681.738281 314.164062 681.609375 Z M 493.859375 684.226562 C 493.828125 684.226562 493.792969 684.191406 493.761719 684.191406 C 493.5625 684.191406 493.53125 684.425781 493.5625 684.722656 L 493.628906 684.621094 C 493.726562 684.523438 493.792969 684.359375 493.859375 684.226562 Z M 492.964844 685.253906 C 492.832031 685.351562 492.667969 685.417969 492.5 685.449219 C 492.367188 685.484375 492.203125 685.515625 492.039062 685.515625 C 492.335938 685.515625 492.667969 685.449219 492.964844 685.253906 Z M 350.46875 689.492188 C 350.46875 689.425781 350.46875 689.292969 350.4375 689.292969 C 350.402344 689.292969 350.371094 689.328125 350.371094 689.328125 L 350.46875 689.492188 L 350.46875 689.59375 L 350.632812 689.726562 Z M 351.296875 690.1875 C 351.332031 690.222656 351.398438 690.253906 351.464844 690.253906 C 351.53125 690.289062 351.5625 690.320312 351.628906 690.320312 Z M 351.695312 690.320312 L 351.796875 690.355469 L 351.628906 690.320312 Z M 351.859375 690.355469 L 351.925781 690.355469 Z M 670.574219 678.128906 C 671.46875 679.554688 672 682.765625 672.394531 687.4375 C 673.226562 696.75 673.125 711.359375 672.59375 729.085938 C 672.164062 744.0625 671.335938 761.222656 670.472656 779.316406 C 669.941406 790.214844 669.414062 801.480469 668.882812 812.8125 C 668.121094 829.773438 667.390625 846.871094 666.726562 863.074219 C 665.433594 893.554688 666.230469 947.460938 666.03125 965.1875 C 665.996094 966.3125 666.960938 967.242188 668.121094 967.273438 C 669.28125 967.308594 670.242188 966.414062 670.273438 965.285156 C 670.804688 951.667969 670.242188 905.8125 671.632812 883.78125 C 672.726562 866.652344 673.953125 847.898438 675.082031 828.847656 C 675.644531 819.074219 676.210938 809.234375 676.671875 799.492188 C 677.371094 784.285156 677.867188 769.375 678.164062 755.460938 C 678.628906 733.660156 678.597656 714.34375 677.898438 700.226562 C 677.269531 687.40625 675.878906 678.726562 673.953125 675.976562 C 673.359375 675.082031 672.097656 674.816406 671.167969 675.410156 C 670.207031 676.007812 669.941406 677.199219 670.574219 678.128906 Z M 626.84375 679.71875 C 627.339844 697.378906 627.175781 715.105469 626.742188 732.863281 C 626.3125 749.859375 625.582031 766.855469 624.785156 783.886719 C 624.257812 795.21875 623.691406 806.550781 623.128906 817.914062 C 622.332031 834.945312 621.605469 852.007812 620.941406 869.003906 C 620.011719 894.679688 620.210938 939.011719 620.445312 964.492188 C 620.410156 965.652344 621.371094 966.546875 622.53125 966.578125 C 623.726562 966.578125 624.65625 965.652344 624.6875 964.523438 C 624.984375 945.96875 625.019531 908.664062 626.015625 890.007812 C 627.007812 871.421875 628.167969 852.835938 629.296875 834.214844 C 629.894531 824.273438 630.457031 814.335938 630.921875 804.394531 C 631.648438 789.453125 632.179688 774.542969 632.445312 759.601562 C 632.910156 732.832031 632.511719 706.09375 630.886719 679.554688 C 630.855469 678.492188 629.894531 677.632812 628.765625 677.699219 C 627.636719 677.730469 626.777344 678.660156 626.84375 679.71875 Z M 527.710938 678.558594 C 525.355469 688.234375 523.734375 720.769531 522.96875 760.925781 C 522.671875 775.472656 522.507812 791.078125 522.507812 806.914062 C 522.472656 817.085938 522.539062 827.355469 522.640625 837.5625 C 522.804688 857.539062 523.070312 877.1875 523.300781 895.011719 C 523.566406 918.402344 522.9375 950.476562 522.804688 964.257812 C 522.769531 965.386719 523.699219 966.347656 524.859375 966.347656 C 526.054688 966.378906 527.015625 965.484375 527.015625 964.359375 C 527.746094 944.679688 529.070312 900.082031 529.335938 863.835938 C 529.46875 844.617188 529.632812 824.441406 529.632812 804.726562 C 529.632812 787.664062 529.535156 770.933594 529.535156 755.492188 C 529.5 736.640625 529.535156 719.675781 529.898438 706.324219 C 530.199219 693.402344 530.726562 683.894531 531.65625 679.386719 C 531.921875 678.328125 531.226562 677.300781 530.132812 677.070312 C 529.039062 676.835938 527.945312 677.5 527.710938 678.558594 Z M 440.515625 679.917969 C 441.609375 678.492188 442.769531 681.175781 442.871094 690.421875 C 442.871094 690.488281 442.871094 690.554688 442.835938 690.621094 C 442.902344 693.136719 442.902344 693.039062 442.9375 695.855469 L 443.003906 713.945312 C 442.902344 722.890625 442.769531 731.835938 442.570312 740.78125 C 442.40625 749.726562 442.171875 758.640625 441.941406 767.585938 C 441.675781 776.863281 441.410156 786.140625 441.046875 795.417969 C 440.714844 804.695312 440.316406 813.972656 439.851562 823.25 C 439.023438 840.542969 438.0625 857.871094 437.167969 875.167969 C 435.773438 901.109375 434.878906 915.953125 433.886719 941.929688 C 433.851562 943.054688 432.890625 943.949219 431.730469 943.914062 C 430.570312 943.882812 429.640625 942.953125 429.640625 941.828125 C 430.039062 910.882812 430.371094 891.003906 431.429688 860.058594 C 431.960938 844.617188 432.492188 829.144531 433.15625 813.707031 C 433.820312 798.234375 434.648438 782.792969 435.277344 767.355469 L 437.796875 713.8125 L 438.394531 695.855469 C 438.460938 692.839844 438.691406 692.308594 438.726562 690.222656 L 438.757812 689.394531 C 438.527344 681.90625 439.488281 679.253906 440.515625 679.917969 Z M 350.371094 689.328125 C 350.203125 689.09375 350.136719 688.796875 350.136719 688.5 C 350.070312 687.4375 350.964844 686.511719 352.058594 686.476562 C 352.589844 686.445312 353.152344 686.609375 353.652344 687.042969 C 353.882812 687.273438 354.316406 687.902344 354.480469 688.898438 C 354.878906 691.015625 354.910156 696.449219 354.945312 697.214844 L 357 777.460938 C 357.296875 790.050781 357.664062 802.605469 357.894531 815.195312 C 358.128906 827.753906 358.292969 840.34375 358.394531 852.933594 C 358.722656 890.671875 356.171875 899.585938 356.203125 937.355469 C 356.238281 938.480469 355.308594 939.410156 354.117188 939.410156 C 352.957031 939.441406 351.992188 938.515625 351.960938 937.390625 C 351.296875 910.980469 353.089844 913.402344 352.390625 886.996094 C 351.960938 869.367188 351.496094 851.773438 351.132812 834.183594 C 350.898438 822.851562 350.699219 811.519531 350.566406 800.222656 C 350.4375 792.667969 350.402344 785.113281 350.304688 777.59375 C 350.238281 769.539062 350.203125 761.488281 350.238281 753.472656 C 350.304688 734.71875 350.601562 716 350.566406 697.277344 C 350.566406 696.582031 350.765625 691.582031 350.46875 689.59375 C 350.371094 689.492188 350.304688 689.394531 350.371094 689.328125 Z M 392.507812 687.9375 C 392.507812 687.9375 391.183594 716.496094 390.222656 743.894531 C 389.722656 758.011719 389.324219 771.828125 389.160156 781.238281 C 389.058594 788.988281 388.925781 796.742188 388.863281 804.496094 C 388.761719 816.125 388.695312 827.753906 388.730469 839.382812 C 388.730469 857.472656 388.628906 916.382812 388.828125 934.472656 C 389.027344 958.394531 395.226562 897.53125 395.625 858.765625 C 395.722656 845.84375 395.824219 832.957031 395.855469 820.035156 C 395.921875 807.113281 395.855469 794.191406 395.855469 781.269531 L 396.554688 688.035156 C 396.585938 686.976562 395.691406 686.046875 394.597656 686.015625 C 393.46875 686.015625 392.542969 686.84375 392.507812 687.9375 Z M 585.367188 677.53125 C 585.433594 677.234375 585.597656 676.902344 585.796875 676.671875 C 586.328125 676.074219 586.824219 675.976562 587.058594 675.941406 C 587.820312 675.777344 588.417969 676.042969 588.847656 676.472656 C 589.144531 676.703125 589.578125 677.234375 589.476562 678.160156 C 589.445312 678.425781 589.046875 679.488281 588.945312 679.949219 C 588.21875 683.628906 587.785156 687.40625 587.488281 691.183594 C 587.023438 696.980469 586.859375 702.8125 586.492188 708.476562 C 586.03125 715.070312 585.167969 735.183594 583.941406 761.988281 C 583.210938 777.921875 582.414062 796.246094 581.453125 815.496094 C 580.792969 829.476562 579.996094 843.921875 579.234375 858.300781 C 578.074219 880.535156 576.914062 902.632812 575.984375 922.546875 C 575.023438 943.585938 574.390625 951.835938 574.09375 965.683594 C 574.09375 966.808594 573.132812 967.703125 571.972656 967.703125 C 570.8125 967.703125 569.851562 966.777344 569.851562 965.652344 C 569.785156 946.101562 570.214844 927.449219 571.175781 895.542969 C 571.707031 878.179688 572.371094 859.957031 573.097656 841.96875 C 573.496094 832.921875 573.894531 823.945312 574.328125 815.164062 C 574.789062 805.984375 575.289062 797.007812 575.816406 788.394531 C 576.480469 776.929688 577.175781 766.09375 577.839844 756.289062 C 579.433594 732.132812 580.859375 714.242188 581.453125 708.113281 C 582.019531 702.414062 582.347656 696.582031 583.011719 690.785156 C 583.445312 686.84375 584.039062 682.964844 584.902344 679.15625 C 584.9375 678.957031 585.167969 678.625 585.367188 678.292969 C 585.332031 678.195312 585.332031 678.0625 585.332031 677.964844 C 585.265625 677.765625 585.234375 677.53125 585.367188 677.53125 Z M 265.03125 682.4375 C 264.300781 683.398438 263.671875 685.320312 263.238281 688.003906 C 262.578125 692.609375 262.34375 699.765625 262.410156 707.949219 C 262.644531 729.882812 264.929688 759.269531 264.964844 765.101562 C 265.261719 785.972656 265.460938 806.847656 265.792969 827.722656 C 266.058594 843.359375 266.421875 858.996094 266.6875 874.667969 C 266.988281 890.308594 267.25 905.945312 267.382812 921.585938 C 267.617188 943.914062 267.117188 946.167969 266.855469 968.53125 C 266.820312 969.660156 267.75 970.585938 268.910156 970.621094 C 270.101562 970.652344 271.0625 969.757812 271.097656 968.632812 C 272.355469 931.324219 273.484375 914.128906 273.386719 876.824219 C 273.351562 858.167969 273.1875 839.550781 272.820312 820.894531 C 272.457031 802.242188 271.859375 783.621094 271.363281 765 C 271.164062 759.136719 268.148438 729.78125 267.285156 707.847656 C 266.953125 699.929688 266.921875 693.003906 267.449219 688.53125 C 267.648438 686.710938 267.847656 685.351562 268.347656 684.722656 C 268.976562 683.828125 268.777344 682.601562 267.847656 681.972656 C 266.953125 681.34375 265.695312 681.574219 265.03125 682.4375 Z M 313.964844 682.667969 C 313.933594 685.382812 314.066406 690.984375 314.066406 693.46875 L 314.265625 712.453125 C 314.429688 724.515625 314.5625 736.574219 314.597656 748.601562 C 314.597656 760.660156 314.53125 772.722656 314.398438 784.75 L 309.921875 966.84375 C 309.921875 967.96875 308.992188 968.898438 307.800781 968.898438 C 306.640625 968.898438 305.675781 967.96875 305.675781 966.84375 C 305.214844 925.128906 306.539062 909.824219 306.507812 868.109375 C 306.507812 854.195312 306.539062 840.277344 306.738281 826.363281 C 306.902344 812.445312 307.269531 798.53125 307.632812 784.617188 C 308 772.589844 308.296875 760.59375 308.5625 748.566406 C 308.828125 736.507812 309.058594 724.515625 309.226562 712.453125 L 309.589844 693.402344 C 309.6875 690.519531 309.753906 683.398438 309.886719 681.410156 C 310.054688 679.421875 311.878906 679.054688 312.074219 679.054688 C 312.242188 679.054688 313.898438 679.386719 314.164062 681.441406 C 314.597656 681.542969 314.496094 681.738281 314.164062 681.972656 C 314.132812 682.238281 314.066406 682.46875 313.964844 682.667969 Z M 493.5625 684.722656 C 493.628906 685.1875 493.828125 685.714844 493.828125 685.75 C 493.894531 689.957031 493.925781 694.199219 493.894531 698.40625 C 493.859375 704.699219 493.761719 711.027344 493.695312 717.324219 L 492.402344 794.789062 C 492.039062 810.855469 491.773438 826.925781 491.441406 843.027344 C 490.941406 867.117188 490.414062 891.234375 490.015625 915.355469 C 489.582031 942.160156 489.386719 940.105469 489.1875 966.910156 C 489.1875 968.035156 488.257812 968.929688 487.0625 968.964844 C 485.902344 968.964844 484.941406 968.035156 484.941406 966.910156 C 484.34375 926.6875 483.78125 915.324219 484.015625 875.066406 C 484.082031 861.679688 484.214844 848.261719 484.476562 834.84375 C 484.742188 821.425781 485.140625 808.039062 485.574219 794.621094 L 488.589844 717.226562 C 488.855469 710.929688 489.152344 704.601562 489.386719 698.304688 C 489.519531 694.132812 489.648438 689.925781 489.714844 685.75 C 489.714844 685.648438 489.648438 683.761719 489.847656 683.132812 C 490.28125 681.871094 491.308594 681.542969 492.070312 681.609375 C 493.199219 681.675781 494.027344 682.632812 493.960938 683.695312 C 493.960938 683.894531 493.925781 684.058594 493.859375 684.226562 C 493.925781 684.292969 493.792969 684.488281 493.628906 684.621094 L 493.5625 684.722656 "/>
<path style=" stroke:none;fill-rule:nonzero;fill:rgb(81.959534%,19.219971%,13.729858%);fill-opacity:1;" d="M 449.234375 768.117188 L 449.269531 768.148438 C 449.269531 768.148438 449.269531 768.183594 449.300781 768.214844 L 449.300781 768.148438 Z M 449.5 770.171875 C 449.367188 770.238281 449.5 770.566406 449.667969 770.601562 C 449.765625 770.632812 449.898438 770.535156 449.898438 770.433594 C 449.863281 770.269531 449.898438 770.105469 449.863281 769.871094 L 449.800781 769.773438 C 449.734375 769.90625 449.601562 770.136719 449.5 770.171875 Z M 449.863281 771.363281 C 449.863281 771.394531 449.898438 771.429688 449.964844 771.429688 C 450.394531 771.527344 450.363281 771 450.164062 770.46875 C 450.0625 770.734375 449.964844 771.066406 449.863281 771.363281 Z M 444.261719 774.179688 C 443.203125 772.6875 442.703125 771 443.5 769.308594 C 443.796875 768.746094 444.0625 768.117188 444.558594 767.617188 C 445.554688 766.625 446.714844 765.730469 447.476562 765.433594 C 447.910156 765.265625 448.375 764.902344 449.035156 764.933594 C 449.335938 764.933594 449.699219 765.101562 449.996094 765.199219 L 450.164062 765.101562 L 450.261719 765.066406 C 450.195312 765.101562 450.164062 765.167969 450.097656 765.234375 C 450.261719 765.265625 450.394531 765.265625 450.394531 765.132812 C 450.394531 765.066406 450.394531 765.035156 450.363281 765.035156 C 450.992188 764.867188 451.6875 764.96875 452.21875 765.398438 C 452.816406 765.664062 452.816406 766.195312 452.980469 766.460938 C 453.082031 766.59375 453.046875 766.722656 453.082031 766.824219 C 454.042969 767.617188 454.441406 768.546875 454.804688 769.34375 C 455.832031 771.59375 454.738281 773.617188 453.347656 775.105469 C 451.789062 776.761719 449.003906 777.160156 446.382812 775.933594 C 445.621094 775.570312 444.925781 774.941406 444.261719 774.179688 Z M 450.363281 765.035156 C 450.363281 765.035156 450.296875 765.035156 450.261719 765.066406 Z M 575.75 817.714844 C 572.601562 819.238281 569.683594 820.664062 567.296875 822.054688 C 563.914062 824.011719 557.449219 829.078125 553.804688 834.644531 C 551.714844 837.859375 550.421875 841.273438 552.34375 844.15625 C 553.304688 845.613281 554.796875 845.214844 556.289062 844.453125 C 559.707031 842.761719 563.152344 838.917969 564.511719 837.195312 C 568.523438 832.160156 571.707031 826.5625 574.425781 820.730469 C 574.890625 819.734375 575.320312 818.710938 575.75 817.714844 Z M 487.859375 789.785156 C 487.496094 789.585938 487.792969 790.480469 487.859375 790.777344 L 487.894531 790.8125 C 488.191406 790.414062 488.289062 790.050781 487.859375 789.785156 Z M 377.023438 804.460938 C 379.84375 802.539062 382.296875 800.453125 383.988281 798.828125 C 384.949219 797.867188 386.839844 795.980469 388.132812 794.027344 C 388.5625 793.363281 388.925781 792.367188 389.058594 791.972656 C 388.628906 791.671875 388.03125 791.707031 387.46875 791.804688 C 386.375 792.003906 385.246094 792.601562 384.519531 793.261719 C 380.339844 796.941406 377.789062 800.949219 377.023438 804.460938 Z M 351.796875 791.277344 C 350.898438 791.011719 350.136719 790.84375 349.9375 790.878906 C 347.949219 791.042969 346.09375 792.105469 344.402344 793.460938 C 341.617188 795.683594 339.296875 798.796875 337.804688 801.347656 C 337.304688 802.175781 336.179688 804.859375 335.617188 807.34375 C 335.449219 808.105469 335.417969 809.066406 335.417969 809.695312 C 336.078125 809.332031 337.109375 808.734375 338.003906 808.074219 C 341.449219 805.488281 346.191406 801.050781 351.03125 796.046875 C 351.230469 794.457031 351.464844 792.867188 351.796875 791.277344 Z M 358.160156 788.425781 C 363.730469 782.230469 368.605469 776.234375 370.792969 772.554688 C 371.6875 771.03125 374.273438 766.890625 375.699219 763.011719 C 376.097656 761.953125 376.394531 760.925781 376.527344 760 C 376.5625 759.734375 376.59375 759.46875 376.59375 759.269531 C 375.929688 759.734375 374.835938 760.527344 374.074219 761.289062 C 371.65625 763.742188 369.398438 766.921875 368.871094 767.617188 C 365.554688 771.992188 362.636719 776.863281 360.449219 782 C 359.554688 784.117188 358.789062 786.238281 358.160156 788.425781 Z M 414.886719 788.988281 C 418.632812 783.953125 421.851562 778.882812 424.503906 774.644531 C 425.332031 773.285156 427.550781 770.203125 429.210938 766.988281 C 429.707031 766.027344 430.136719 765.035156 430.46875 764.140625 C 430.238281 764.304688 430.039062 764.539062 429.808594 764.738281 C 427.417969 767.15625 425.199219 770.304688 424.667969 771.03125 C 421.75 774.972656 419.132812 779.414062 416.976562 784.050781 C 416.214844 785.675781 415.515625 787.332031 414.886719 788.988281 Z M 430.867188 761.855469 C 430.800781 761.886719 430.933594 761.988281 431 762.054688 L 431.035156 762.117188 C 431.066406 761.921875 431.035156 761.820312 430.867188 761.855469 Z M 510.304688 795.449219 C 510.605469 795.21875 510.835938 795.019531 511.035156 794.820312 C 511.664062 794.222656 513.6875 792.105469 515.144531 789.816406 C 515.445312 789.386719 515.742188 788.789062 515.976562 788.261719 C 514.78125 788.394531 512.925781 788.957031 511.929688 790.910156 C 511.300781 792.203125 510.738281 793.761719 510.304688 795.449219 Z M 592.761719 781.335938 C 592.992188 780.738281 592.957031 780.308594 592.496094 780.210938 C 591.996094 780.144531 592.5625 781.039062 592.761719 781.335938 Z M 620.011719 767.949219 C 623.363281 777.789062 621.039062 785.875 615.703125 792.667969 C 608.34375 801.976562 594.847656 808.734375 583.011719 814.300781 C 581.851562 817.25 580.59375 820.132812 579.234375 822.984375 C 576.316406 829.179688 572.867188 835.109375 568.558594 840.445312 C 566.601562 842.894531 561 848.695312 556.15625 849.953125 C 553.074219 850.746094 550.191406 850.117188 548.101562 846.9375 C 545.152344 842.367188 546.3125 836.964844 549.660156 831.894531 C 553.769531 825.699219 561.066406 820.035156 564.878906 817.878906 C 568.492188 815.828125 573.230469 813.671875 578.371094 811.355469 C 579.566406 808.304688 580.660156 805.257812 581.753906 802.242188 C 579.234375 803.933594 576.546875 805.289062 573.828125 806.050781 C 571.175781 806.78125 568.558594 806.449219 566.667969 805.289062 C 564.746094 804.164062 563.386719 802.175781 563.253906 799.359375 C 562.820312 799.789062 562.359375 800.1875 561.925781 800.585938 C 559.773438 802.472656 557.484375 804.097656 554.929688 805.257812 C 553.171875 806.050781 550.457031 806.847656 548.167969 806.617188 C 545.878906 806.382812 543.921875 805.289062 542.863281 802.972656 C 541.835938 800.785156 541.800781 798.332031 542.464844 795.847656 C 543.425781 792.234375 546.011719 788.492188 547.933594 785.742188 C 546.179688 785.511719 544.355469 785.144531 542.664062 784.847656 C 541.601562 784.648438 540.109375 784.582031 539.449219 784.550781 C 539.347656 784.816406 539.214844 785.179688 539.148438 785.445312 C 538.917969 786.40625 538.683594 787.464844 538.453125 788.328125 C 538.222656 789.121094 537.921875 789.816406 537.625 790.347656 C 535.269531 794.523438 528.074219 804.828125 520.914062 809.796875 C 516.238281 813.042969 511.5 813.972656 507.652344 811.71875 C 505.929688 810.722656 504.667969 809.035156 503.875 806.847656 C 502.8125 807.246094 501.71875 807.609375 500.65625 807.90625 C 495.484375 809.332031 490.546875 808.902344 487.496094 806.019531 C 486.300781 804.894531 485.507812 803.433594 485.074219 801.777344 C 481.792969 804.429688 477.183594 807.972656 473.039062 809.929688 C 468.628906 811.984375 464.585938 812.050781 462.03125 810.09375 C 459.246094 807.90625 458.417969 805.023438 458.816406 801.8125 C 458.851562 801.644531 458.851562 801.445312 458.882812 801.28125 C 456.460938 803.601562 453.578125 806.21875 450.5625 808.238281 C 447.3125 810.425781 443.898438 811.917969 440.582031 812.148438 C 437.796875 812.316406 435.90625 811.519531 434.582031 810.292969 C 433.121094 808.96875 432.292969 806.980469 432.226562 804.5625 C 432.226562 804.363281 432.195312 804.164062 432.226562 803.964844 C 428.644531 807.011719 423.804688 810.855469 419.394531 812.8125 C 414.554688 815.03125 410.144531 814.898438 407.328125 812.117188 C 406.464844 811.289062 405.835938 810.292969 405.371094 809.167969 C 401.292969 812.613281 397.015625 815.363281 392.574219 816.953125 C 382.230469 820.664062 375.5 818.3125 372.449219 813.574219 C 371.6875 813.871094 370.925781 814.167969 370.164062 814.402344 C 364.558594 816.191406 359.023438 815.960938 354.746094 812.25 C 352.957031 810.65625 351.859375 808.605469 351.296875 806.285156 C 351.03125 805.191406 350.867188 804 350.800781 802.839844 C 350.269531 803.367188 349.738281 803.867188 349.207031 804.363281 C 344.136719 809.167969 339.59375 812.8125 337.007812 813.972656 C 335.714844 814.566406 334.652344 814.632812 333.925781 814.433594 C 331.835938 813.839844 330.675781 811.75 330.941406 808.734375 C 331.273438 805.257812 333.328125 800.386719 334.089844 799.160156 C 335.816406 796.210938 338.535156 792.667969 341.75 790.148438 C 344.167969 788.261719 346.820312 786.96875 349.574219 786.738281 C 349.9375 786.703125 351.230469 786.933594 352.789062 787.367188 C 353.519531 784.816406 354.414062 782.328125 355.476562 779.878906 C 357.863281 774.3125 361.078125 769.109375 364.691406 764.40625 C 365.554688 763.277344 370.492188 756.71875 374.109375 754.632812 C 376.5625 753.238281 378.714844 753.472656 380.175781 755.0625 C 381.734375 756.71875 382.03125 759.566406 381.101562 762.816406 C 379.808594 767.488281 376.195312 773.183594 375.070312 775.105469 C 372.050781 780.042969 364.359375 789.023438 356.503906 797.140625 C 356.46875 797.40625 356.46875 797.671875 356.4375 797.933594 C 356.304688 799.757812 356.203125 801.878906 356.535156 803.867188 C 356.769531 805.421875 357.265625 806.945312 358.457031 807.972656 C 361.210938 810.328125 364.824219 810.09375 368.371094 808.902344 C 369.132812 808.671875 369.898438 808.371094 370.625 808.039062 C 370.195312 802.441406 373.179688 795.050781 380.472656 788.65625 C 382.328125 787.066406 385.214844 785.742188 387.898438 785.710938 C 390.121094 785.644531 392.242188 786.40625 393.835938 788.195312 C 395.394531 789.984375 395.558594 792.433594 394.398438 795.050781 C 393.039062 798.132812 389.691406 801.613281 388.132812 803.105469 C 385.8125 805.324219 382.199219 808.238281 378.152344 810.691406 C 380.140625 812.910156 384.386719 813.144531 390.386719 810.957031 C 395.460938 809.101562 400.234375 805.421875 404.675781 801.015625 C 404.875 799.492188 405.140625 798.066406 405.371094 796.875 C 406.433594 791.605469 408.324219 786.238281 410.675781 781.136719 C 413.0625 776.066406 415.980469 771.261719 419.132812 766.988281 C 420.09375 765.699219 425.230469 758.773438 429.011719 756.75 C 431.863281 755.195312 434.382812 755.59375 436.140625 757.613281 C 437.796875 759.566406 438.09375 762.714844 436.902344 766.226562 C 435.308594 770.765625 431.398438 776.234375 430.171875 778.1875 C 425.496094 785.578125 419.03125 795.382812 411.472656 803.367188 C 411.472656 803.535156 411.472656 803.667969 411.472656 803.832031 C 411.472656 805.089844 411.472656 806.351562 412.269531 807.113281 C 412.765625 807.644531 413.5625 807.378906 414.355469 807.179688 C 415.75 806.847656 417.207031 806.117188 418.734375 805.222656 C 424.171875 802.042969 429.773438 796.710938 431.730469 794.921875 C 432.691406 794.027344 433.621094 793.164062 434.515625 792.234375 C 435.410156 791.375 436.273438 790.445312 437.101562 789.488281 C 437.300781 789.289062 437.632812 788.890625 437.960938 788.460938 C 438.460938 787.761719 438.925781 787.167969 439.320312 786.769531 C 442.105469 783.855469 444.890625 786.933594 445.023438 787.167969 C 445.15625 787.332031 446.351562 789.222656 444.824219 791.277344 C 444.59375 791.605469 443.929688 792.433594 443.300781 793.164062 C 442.105469 795.019531 440.714844 797.96875 439.917969 800.71875 C 439.554688 802.011719 439.289062 803.234375 439.320312 804.296875 C 439.355469 804.527344 439.386719 804.828125 439.453125 804.992188 C 439.621094 805.023438 439.886719 805.023438 440.117188 805.023438 C 442.273438 804.859375 444.460938 803.734375 446.550781 802.308594 C 450.261719 799.824219 453.679688 796.378906 456.230469 793.960938 L 460.972656 789.253906 C 461.070312 789.121094 462.664062 787.664062 463.292969 787.101562 C 466.34375 784.449219 469.394531 788.757812 469.425781 788.988281 C 469.691406 790.546875 469.394531 792.5 468.628906 794.621094 C 467.769531 797.140625 466.210938 800.054688 465.878906 802.640625 C 465.8125 803.335938 465.777344 804 466.375 804.496094 C 466.507812 804.59375 466.707031 804.496094 466.875 804.496094 C 467.269531 804.460938 467.703125 804.363281 468.132812 804.230469 C 469.957031 803.699219 472.046875 802.539062 474.066406 801.214844 C 478.277344 798.464844 482.222656 794.953125 483.882812 793.5625 C 484.113281 793.363281 484.875 792.964844 485.636719 792.46875 C 486.101562 791.507812 487.460938 788.988281 488.160156 788.0625 C 488.789062 787.199219 489.484375 786.835938 489.816406 786.703125 C 491.074219 786.140625 492.136719 786.40625 492.933594 786.835938 C 493.628906 787.234375 494.390625 787.863281 494.691406 789.121094 C 494.988281 790.347656 494.789062 791.804688 493.925781 793.296875 C 493.464844 794.125 492.734375 794.984375 491.9375 795.78125 C 491.738281 796.675781 491.605469 797.734375 491.640625 798.730469 C 491.671875 799.589844 491.707031 800.453125 492.269531 800.984375 C 493.132812 801.777344 494.359375 801.878906 495.71875 801.777344 C 497.410156 801.679688 499.230469 801.183594 501.023438 800.550781 C 501.683594 800.289062 502.316406 800.054688 502.945312 799.757812 C 503.109375 795.582031 504.304688 791.042969 505.929688 787.863281 C 508.148438 783.457031 511.367188 781.765625 514.183594 781.300781 C 516.738281 780.871094 519.058594 781.5 520.449219 782.296875 C 521.511719 782.894531 522.175781 783.65625 522.539062 784.285156 C 523.535156 786.039062 523.46875 788.589844 522.175781 791.277344 C 520.484375 794.855469 516.738281 798.863281 515.742188 799.789062 C 514.515625 800.984375 512.425781 802.472656 509.90625 803.933594 C 509.972656 804.128906 510.007812 804.328125 510.074219 804.496094 C 510.304688 805.125 510.503906 805.6875 511 805.984375 C 512.09375 806.617188 513.355469 806.316406 514.683594 805.753906 C 516.304688 805.058594 517.964844 803.867188 519.589844 802.441406 C 525.09375 797.671875 530.164062 790.347656 531.988281 787.132812 C 532.683594 785.941406 532.851562 783.621094 533.445312 782.097656 C 533.8125 781.136719 534.308594 780.34375 534.839844 779.777344 C 535.734375 778.882812 536.960938 778.289062 538.617188 778.121094 C 541.335938 777.824219 545.878906 779.117188 549.726562 779.578125 C 550.519531 779.679688 551.25 779.710938 551.914062 779.644531 C 552.113281 779.644531 552.3125 779.613281 552.476562 779.578125 C 552.875 779.082031 553.339844 778.550781 553.503906 778.386719 C 554.863281 777.160156 556.191406 777.527344 556.621094 777.65625 C 557.617188 777.957031 558.378906 778.585938 558.742188 779.8125 C 558.84375 780.078125 559.140625 780.90625 558.542969 782.230469 C 558.046875 783.191406 557.417969 783.988281 556.589844 784.582031 L 553.902344 788.195312 C 552.511719 790.214844 550.15625 793.164062 548.929688 796.210938 C 548.332031 797.636719 547.933594 799.09375 548.5 800.355469 C 548.566406 800.484375 548.765625 800.453125 548.898438 800.453125 C 549.195312 800.484375 549.492188 800.453125 549.824219 800.421875 C 550.753906 800.289062 551.683594 799.957031 552.378906 799.65625 C 554.367188 798.730469 556.191406 797.4375 557.914062 795.980469 C 560.667969 793.59375 563.085938 790.710938 565.40625 788.09375 L 569.585938 782.859375 C 570.578125 781.566406 572.402344 781.300781 573.730469 782.230469 C 575.054688 783.15625 575.386719 784.980469 574.523438 786.339844 L 572.335938 789.882812 C 571.476562 791.539062 570.578125 793.394531 569.917969 795.316406 C 569.550781 796.445312 569.253906 797.570312 569.1875 798.664062 C 569.121094 799.425781 569.253906 799.988281 569.71875 800.289062 C 570.414062 800.683594 571.34375 800.652344 572.269531 800.386719 C 575.519531 799.527344 578.667969 797.539062 581.519531 795.152344 C 583.046875 793.859375 584.472656 792.46875 585.765625 791.011719 C 586.757812 788.160156 588.515625 783.222656 590.242188 780.40625 C 591.203125 778.851562 592.261719 777.824219 593.15625 777.394531 C 593.988281 776.996094 594.816406 776.929688 595.609375 777.0625 C 597.101562 777.359375 598.496094 778.585938 598.097656 781.105469 C 597.699219 783.523438 594.054688 789.75 593.753906 790.148438 C 592.792969 791.539062 591.699219 792.964844 590.472656 794.355469 C 590.371094 794.6875 590.304688 794.921875 590.242188 795.050781 C 588.648438 799.328125 587.058594 803.734375 585.433594 808.074219 C 593.023438 804.496094 600.816406 800.355469 606.882812 795.285156 C 614.808594 788.625 619.648438 780.34375 615.96875 769.308594 C 615.601562 768.214844 616.199219 766.988281 617.328125 766.625 C 618.421875 766.261719 619.613281 766.855469 620.011719 767.949219 Z M 519.058594 839.582031 C 519.089844 839.582031 519.125 839.648438 519.125 839.78125 C 519.089844 840.046875 518.757812 840.011719 518.363281 839.914062 C 518.496094 839.78125 518.695312 839.648438 518.824219 839.582031 C 518.59375 839.648438 518.363281 839.714844 518.128906 839.878906 C 517.566406 839.683594 516.902344 839.417969 516.570312 839.449219 L 512.03125 839.617188 L 497.871094 840.246094 L 449.964844 842.53125 C 440.449219 843.09375 430.933594 843.65625 421.417969 844.320312 C 411.902344 845.015625 402.386719 845.8125 392.871094 846.671875 C 364.359375 849.222656 335.914062 852.273438 307.433594 855.1875 C 306.273438 855.285156 305.414062 856.3125 305.511719 857.472656 C 305.609375 858.632812 306.640625 859.496094 307.800781 859.394531 C 327.757812 857.972656 347.75 856.613281 367.742188 855.253906 C 381.035156 854.328125 394.363281 853.429688 407.660156 852.472656 C 416.214844 851.875 424.765625 851.246094 433.320312 850.582031 C 439.023438 850.152344 444.726562 849.6875 450.429688 849.257812 L 498.203125 845.28125 L 512.328125 844.023438 L 516.769531 843.625 C 517.167969 843.589844 517.964844 843.757812 518.460938 843.824219 C 519.058594 843.855469 519.523438 843.824219 519.753906 843.757812 C 520.714844 843.492188 521.113281 842.863281 521.28125 842.300781 C 521.378906 841.867188 521.578125 840.941406 520.550781 840.078125 C 520.117188 839.683594 519.589844 839.515625 519.058594 839.582031 Z M 514.683594 853.398438 C 507.453125 854.523438 500.027344 855.1875 492.535156 855.683594 C 474.996094 856.746094 457.027344 856.578125 439.984375 857.605469 C 430.46875 858.300781 420.988281 858.898438 411.472656 859.660156 C 401.992188 860.421875 392.476562 861.25 382.992188 862.144531 C 354.511719 864.761719 326.066406 867.746094 297.652344 870.792969 C 296.460938 870.925781 295.632812 871.953125 295.730469 873.113281 C 295.832031 874.273438 296.859375 875.132812 298.050781 875.035156 C 317.976562 873.476562 337.9375 872.085938 357.894531 870.695312 C 371.191406 869.734375 384.484375 868.839844 397.78125 867.84375 C 403.480469 867.445312 409.183594 867.015625 414.886719 866.550781 C 423.441406 865.855469 431.960938 865.128906 440.515625 864.398438 C 457.492188 862.808594 475.460938 862.476562 492.933594 860.722656 C 500.558594 859.925781 508.117188 858.867188 515.410156 857.375 C 516.539062 857.175781 517.269531 856.117188 517.070312 855.023438 C 516.835938 853.929688 515.808594 853.199219 514.683594 853.398438 Z M 417.472656 837.59375 C 426.425781 837.261719 435.34375 836.996094 444.261719 836.632812 C 450.03125 836.402344 455.765625 836.167969 461.503906 835.871094 C 465.316406 835.671875 469.160156 835.441406 472.972656 835.242188 C 483.285156 834.613281 494.457031 834.84375 505.234375 833.984375 C 510.007812 833.617188 514.683594 833.023438 519.222656 832.0625 C 520.316406 831.863281 521.046875 830.835938 520.847656 829.707031 C 520.648438 828.617188 519.589844 827.886719 518.496094 828.085938 C 514.117188 828.683594 509.609375 828.914062 505 829.011719 C 494.191406 829.210938 483.050781 828.449219 472.742188 828.550781 C 466.34375 828.714844 459.945312 828.847656 453.546875 829.113281 C 447.148438 829.378906 440.746094 829.742188 434.382812 830.171875 C 415.21875 831.433594 396.089844 833.121094 376.960938 834.8125 C 375.796875 834.878906 374.902344 835.871094 375.003906 837.03125 C 375.070312 838.222656 376.0625 839.085938 377.222656 839.019531 C 390.652344 838.488281 404.046875 838.058594 417.472656 837.59375 Z M 966.277344 992.089844 L 723.71875 989.308594 L 720.769531 718.683594 C 720.769531 718.683594 841.085938 710.53125 859.386719 746.644531 C 870.027344 767.617188 891.878906 810.757812 891.878906 810.757812 C 891.878906 810.757812 965.710938 872.550781 966.277344 992.089844 "/>
<path style=" stroke:none;fill-rule:evenodd;fill:rgb(98.81897%,90.979004%,73.728943%);fill-opacity:1;" d="M 783.828125 926.257812 C 778.820312 920.824219 772.488281 918.171875 766.191406 915.886719 C 759.726562 913.566406 753.292969 911.644531 748.453125 907.304688 C 744.90625 904.125 742.21875 899.652344 740.992188 892.695312 C 739.867188 886.363281 739.402344 879.96875 739.335938 873.609375 C 739.203125 863.96875 739.964844 854.328125 740.59375 844.683594 C 740.761719 841.835938 740.992188 838.984375 741.226562 836.136719 C 741.457031 833.320312 741.722656 830.472656 742.019531 827.621094 C 742.386719 824.078125 742.585938 820.433594 742.714844 818.90625 C 742.714844 818.839844 742.714844 818.773438 742.714844 818.710938 C 742.816406 818.609375 742.847656 818.476562 742.847656 818.3125 C 742.816406 817.914062 742.648438 817.75 742.617188 817.714844 C 742.453125 817.582031 741.886719 817.351562 741.6875 818.046875 C 741.65625 818.144531 741.621094 818.410156 741.589844 818.808594 C 741.457031 820.332031 741.226562 823.976562 740.792969 827.488281 C 740.460938 830.339844 740.128906 833.1875 739.867188 836.039062 C 739.601562 838.886719 739.367188 841.734375 739.136719 844.585938 C 738.40625 854.261719 737.542969 863.933594 737.578125 873.609375 C 737.578125 880.101562 738.007812 886.5625 739.136719 893.023438 C 740.429688 900.511719 743.347656 905.316406 747.160156 908.730469 C 752.199219 913.269531 758.863281 915.257812 765.558594 917.640625 C 771.628906 919.796875 777.726562 922.246094 782.566406 927.449219 C 787.441406 932.652344 789.429688 940.667969 790.0625 949.347656 C 790.988281 961.875 789.03125 975.820312 788.4375 985.429688 C 788.402344 985.730469 788.667969 985.992188 788.964844 986.027344 C 789.296875 986.058594 789.5625 985.828125 789.597656 985.496094 C 790.261719 975.855469 792.382812 961.839844 791.585938 949.25 C 791.023438 940.140625 788.902344 931.789062 783.828125 926.257812 Z M 776.003906 860.421875 C 770.664062 861.25 765.460938 861.847656 764.101562 861.648438 C 762.839844 861.449219 759.921875 860.984375 757.4375 860.421875 C 756.042969 860.089844 754.816406 859.761719 754.089844 859.394531 C 753.988281 859.363281 753.824219 859.296875 753.757812 859.261719 C 753.757812 859.296875 753.757812 859.328125 753.757812 859.363281 C 753.757812 859.328125 753.757812 859.296875 753.757812 859.261719 C 753.722656 859.230469 753.691406 859.195312 753.722656 859.195312 C 753.722656 859.164062 753.722656 859.164062 753.722656 859.164062 C 753.691406 858.964844 753.492188 858.800781 753.257812 858.765625 C 752.960938 858.734375 752.695312 858.964844 752.664062 859.261719 C 752.628906 859.527344 752.761719 859.824219 753.128906 860.125 C 753.457031 860.390625 754.089844 860.6875 754.917969 860.953125 C 757.570312 861.878906 762.179688 862.808594 763.867188 863.105469 C 765.261719 863.339844 770.597656 862.972656 776.101562 862.210938 C 780.710938 861.582031 785.417969 860.722656 788.105469 859.824219 C 789.496094 859.363281 790.425781 858.800781 790.722656 858.367188 C 790.921875 858.070312 790.988281 857.738281 790.957031 857.441406 C 790.921875 857.109375 790.757812 856.746094 790.324219 856.445312 C 789.863281 856.117188 788.867188 855.75 787.144531 855.484375 C 784.191406 855.054688 781.242188 854.824219 778.257812 854.757812 C 775.308594 854.65625 772.355469 854.757812 769.40625 854.957031 C 766.851562 855.121094 764.300781 855.386719 761.746094 855.71875 C 759.195312 856.015625 756.675781 856.378906 754.15625 856.777344 C 753.824219 856.8125 753.625 857.109375 753.65625 857.441406 C 753.691406 857.738281 753.988281 857.972656 754.289062 857.90625 C 756.808594 857.574219 759.359375 857.273438 761.878906 857.042969 C 764.398438 856.8125 766.953125 856.613281 769.472656 856.480469 C 772.390625 856.378906 775.308594 856.347656 778.191406 856.480469 C 781.109375 856.613281 783.992188 856.878906 786.84375 857.339844 C 787.507812 857.472656 788.039062 857.574219 788.4375 857.707031 C 788.238281 857.773438 787.972656 857.839844 787.773438 857.90625 C 785.253906 858.800781 780.578125 859.695312 776.003906 860.421875 Z M 753.757812 859.261719 C 753.757812 859.230469 753.757812 859.164062 753.722656 859.164062 C 753.757812 859.195312 753.757812 859.230469 753.757812 859.261719 Z M 740.960938 817.117188 L 740.261719 746.613281 C 740.261719 746.613281 825.335938 736.605469 846.257812 757.25 L 876.328125 820.863281 L 740.960938 817.117188 "/>
<g clip-path="url(#clip1)" clip-rule="nonzero">
<path style=" stroke:none;fill-rule:evenodd;fill:rgb(74.119568%,39.608765%,11.369324%);fill-opacity:1;" d="M 970.519531 976.683594 L 970.519531 1009.683594 L 219.375 1009.683594 L 219.375 976.683594 L 321.890625 976.683594 C 331.105469 958.824219 349.707031 937.785156 386.273438 937.519531 C 424.765625 937.257812 442.074219 957.863281 449.964844 976.683594 L 788.769531 976.683594 C 798.613281 959.785156 817.046875 941.496094 851.097656 941.101562 C 884.484375 940.734375 901.988281 958.925781 911.207031 976.683594 L 970.519531 976.683594 "/>
</g>
<g clip-path="url(#clip2)" clip-rule="nonzero">
<path style=" stroke:none;fill-rule:evenodd;fill:rgb(23.139954%,26.269531%,37.249756%);fill-opacity:1;" d="M 384.980469 955.214844 C 351.664062 955.214844 324.574219 982.582031 324.574219 1016.242188 C 324.574219 1049.90625 351.664062 1077.238281 384.980469 1077.238281 C 418.300781 1077.238281 445.390625 1049.90625 445.390625 1016.242188 C 445.390625 982.582031 418.300781 955.214844 384.980469 955.214844 Z M 910.210938 1019.820312 C 910.210938 1053.484375 883.15625 1080.851562 849.804688 1080.851562 C 816.484375 1080.851562 789.429688 1053.484375 789.429688 1019.820312 C 789.429688 986.160156 816.484375 958.824219 849.804688 958.824219 C 883.15625 958.824219 910.210938 986.160156 910.210938 1019.820312 "/>
</g>
<path style=" stroke:none;fill-rule:evenodd;fill:rgb(96.078491%,72.938538%,32.548523%);fill-opacity:1;" d="M 905.105469 830.835938 Z M 905.40625 831.035156 C 905.4375 831.066406 905.503906 831.066406 905.472656 831.035156 C 905.472656 831 905.4375 831 905.40625 831.035156 Z M 905.304688 831.101562 C 905.273438 831.167969 905.207031 831.234375 905.140625 831.300781 C 903.515625 832.890625 900.101562 838.523438 899.96875 838.917969 C 899.070312 841.902344 898.773438 845.082031 898.9375 848.261719 C 899.105469 851.445312 899.734375 854.625 900.695312 857.539062 C 901.855469 861.050781 903.316406 864.101562 905.007812 866.75 C 907.890625 871.324219 911.503906 874.734375 915.683594 877.386719 C 922.644531 881.824219 931.03125 884.144531 939.820312 886.066406 C 940.148438 886.132812 940.347656 886.429688 940.28125 886.761719 C 940.214844 887.0625 939.917969 887.257812 939.585938 887.195312 C 934.316406 886.167969 929.175781 885.007812 924.367188 883.316406 C 919.230469 881.527344 914.523438 879.140625 910.410156 875.761719 C 907.261719 873.144531 904.507812 869.964844 902.289062 865.957031 C 900.960938 863.636719 899.867188 861.019531 898.9375 858.136719 C 897.976562 855.023438 897.347656 851.675781 897.25 848.328125 C 897.148438 844.949219 897.578125 841.601562 898.609375 838.488281 C 898.742188 838.125 901.65625 833.519531 903.582031 831.300781 C 904.179688 830.601562 904.707031 830.140625 905.039062 830.007812 C 905.371094 829.875 905.601562 829.90625 905.800781 830.039062 C 905.933594 830.105469 906.066406 830.238281 906.132812 830.472656 C 906.234375 830.734375 906.066406 831.066406 905.800781 831.167969 C 905.636719 831.199219 905.472656 831.199219 905.304688 831.101562 "/>
<path style=" stroke:none;fill-rule:evenodd;fill:rgb(98.81897%,90.979004%,73.728943%);fill-opacity:1;" d="M 873.34375 1044.242188 C 867.34375 1050.039062 859.15625 1053.648438 850.070312 1053.617188 C 841.019531 1053.648438 832.796875 1050.070312 826.796875 1044.242188 C 820.730469 1038.375 816.949219 1030.226562 816.914062 1021.214844 C 816.882812 1012.136719 820.628906 1003.953125 826.664062 997.988281 C 832.664062 992.089844 840.917969 988.414062 850.070312 988.378906 L 850.070312 988.347656 C 859.21875 988.414062 867.507812 992.089844 873.476562 997.988281 C 879.511719 1003.953125 883.257812 1012.167969 883.191406 1021.214844 C 883.15625 1030.226562 879.378906 1038.375 873.34375 1044.242188 Z M 874.472656 996.992188 C 868.207031 990.929688 859.585938 987.21875 850.070312 987.253906 C 840.589844 987.1875 831.96875 990.929688 825.667969 996.992188 C 819.304688 1003.15625 815.359375 1011.738281 815.292969 1021.214844 C 815.257812 1030.722656 819.171875 1039.335938 825.535156 1045.566406 C 831.835938 1051.726562 840.488281 1055.539062 850.070312 1055.570312 C 859.652344 1055.539062 868.339844 1051.726562 874.636719 1045.566406 C 881.003906 1039.335938 884.914062 1030.722656 884.882812 1021.214844 C 884.847656 1011.703125 880.871094 1003.15625 874.472656 996.992188 Z M 408.621094 1039.800781 C 402.652344 1045.597656 394.429688 1049.210938 385.378906 1049.210938 C 376.296875 1049.210938 368.074219 1045.632812 362.074219 1039.832031 C 356.039062 1033.9375 352.257812 1025.785156 352.226562 1016.773438 C 352.160156 1007.730469 355.90625 999.511719 361.941406 993.582031 C 367.941406 987.652344 376.230469 984.007812 385.378906 983.941406 L 385.378906 983.90625 C 394.53125 983.972656 402.785156 987.652344 408.785156 993.582031 C 414.820312 999.511719 418.535156 1007.730469 418.46875 1016.773438 C 418.46875 1025.785156 414.6875 1033.9375 408.621094 1039.800781 Z M 385.378906 982.8125 C 375.863281 982.746094 367.246094 986.492188 360.980469 992.554688 C 354.578125 998.714844 350.632812 1007.296875 350.601562 1016.773438 C 350.566406 1026.28125 354.480469 1034.898438 360.8125 1041.125 C 367.113281 1047.289062 375.796875 1051.097656 385.378906 1051.132812 C 394.960938 1051.132812 403.648438 1047.320312 409.949219 1041.125 C 416.28125 1034.929688 420.191406 1026.28125 420.160156 1016.773438 C 420.125 1007.296875 416.148438 998.714844 409.78125 992.554688 C 403.480469 986.492188 394.863281 982.78125 385.378906 982.8125 "/>
<path style=" stroke:none;fill-rule:evenodd;fill:rgb(23.139954%,26.269531%,37.249756%);fill-opacity:1;" d="M 878.683594 797.671875 C 881.101562 796.445312 884.253906 794.722656 884.449219 794.6875 C 887.167969 794.488281 889.226562 796.179688 890.453125 798.5 C 892.605469 802.507812 893.039062 807.578125 893.46875 812.050781 C 894.230469 820.167969 894.664062 828.449219 893.503906 836.535156 C 893.070312 839.683594 892.242188 842.761719 890.816406 845.613281 C 890.484375 846.273438 889.820312 847.996094 888.960938 848.164062 C 888 848.363281 887.101562 846.078125 886.839844 845.480469 C 885.480469 842.5625 884.582031 839.515625 884.121094 836.367188 C 882.828125 827.191406 884.1875 817.449219 881.863281 808.4375 C 881.566406 807.3125 881.234375 805.886719 880.242188 805.125 C 879.777344 804.761719 878.285156 804.828125 878.152344 804.363281 C 877.257812 801.214844 876.992188 798.566406 878.683594 797.671875 "/>
</g>
</svg>
