<?xml version="1.0" encoding="UTF-8"?>
<svg xmlns="http://www.w3.org/2000/svg" xmlns:xlink="http://www.w3.org/1999/xlink" width="1190.25pt" height="1683.749945pt" viewBox="0 0 1190.25 1683.749945" version="1.2">
<defs>
<clipPath id="clip1">
  <path d="M 370.425781 765 L 819.300781 765 L 819.300781 1214.339844 L 370.425781 1214.339844 Z M 370.425781 765 "/>
</clipPath>
</defs>
<g id="surface1">
<g clip-path="url(#clip1)" clip-rule="nonzero">
<path style=" stroke:none;fill-rule:nonzero;fill:rgb(14.509583%,34.509277%,55.288696%);fill-opacity:1;" d="M 819.046875 990.066406 C 819.046875 1114.140625 718.671875 1214.71875 594.867188 1214.71875 C 471.058594 1214.71875 370.683594 1114.140625 370.683594 990.066406 C 370.683594 865.992188 471.058594 765.414062 594.867188 765.414062 C 718.671875 765.414062 819.046875 865.992188 819.046875 990.066406 "/>
</g>
<path style=" stroke:none;fill-rule:nonzero;fill:rgb(100%,100%,100%);fill-opacity:1;" d="M 789.800781 990.066406 C 789.800781 1097.953125 702.519531 1185.414062 594.867188 1185.414062 C 487.199219 1185.414062 399.933594 1097.953125 399.933594 990.066406 C 399.933594 882.179688 487.199219 794.722656 594.867188 794.722656 C 702.519531 794.722656 789.800781 882.179688 789.800781 990.066406 "/>
<path style=" stroke:none;fill-rule:nonzero;fill:rgb(14.509583%,34.509277%,55.288696%);fill-opacity:1;" d="M 609.484375 990.066406 L 602.992188 990.066406 C 602.984375 992.335938 602.09375 994.332031 600.609375 995.828125 C 599.117188 997.304688 597.125 998.207031 594.867188 998.207031 C 592.597656 998.207031 590.613281 997.304688 589.121094 995.828125 C 587.644531 994.332031 586.746094 992.34375 586.746094 990.066406 C 586.746094 987.796875 587.644531 985.800781 589.121094 984.304688 C 590.613281 982.828125 592.605469 981.925781 594.867188 981.925781 C 597.125 981.925781 599.117188 982.828125 600.609375 984.316406 C 602.09375 985.808594 602.984375 987.796875 602.992188 990.066406 L 615.980469 990.066406 C 615.988281 984.238281 613.605469 978.910156 609.800781 975.105469 C 605.992188 971.28125 600.675781 968.902344 594.867188 968.902344 C 589.050781 968.902344 583.726562 971.28125 579.929688 975.105469 C 576.121094 978.917969 573.746094 984.246094 573.746094 990.066406 C 573.746094 995.886719 576.121094 1001.222656 579.929688 1005.03125 C 583.734375 1008.855469 589.050781 1011.234375 594.867188 1011.234375 C 600.667969 1011.234375 605.992188 1008.855469 609.800781 1005.039062 C 613.605469 1001.222656 615.988281 995.894531 615.980469 990.066406 L 609.484375 990.066406 "/>
<path style=" stroke:none;fill-rule:nonzero;fill:rgb(84.309387%,84.309387%,84.309387%);fill-opacity:1;" d="M 611.105469 1170.753906 C 503.445312 1170.753906 416.171875 1083.304688 416.171875 975.417969 C 416.171875 921.84375 437.734375 873.34375 472.582031 838.039062 C 428.304688 873.855469 399.933594 928.609375 399.933594 990.066406 C 399.933594 1097.953125 487.199219 1185.414062 594.867188 1185.414062 C 649.066406 1185.414062 698.058594 1163.21875 733.382812 1127.4375 C 699.941406 1154.492188 657.445312 1170.753906 611.105469 1170.753906 "/>
<path style=" stroke:none;fill-rule:nonzero;fill:rgb(14.509583%,34.509277%,55.288696%);fill-opacity:1;" d="M 601.363281 975.417969 L 601.363281 856.578125 C 601.363281 852.976562 598.453125 850.0625 594.867188 850.0625 C 591.273438 850.0625 588.363281 852.976562 588.363281 856.578125 L 588.363281 975.417969 C 588.363281 979.011719 591.273438 981.925781 594.867188 981.925781 C 598.453125 981.925781 601.363281 979.011719 601.363281 975.417969 "/>
<path style=" stroke:none;fill-rule:nonzero;fill:rgb(14.509583%,34.509277%,55.288696%);fill-opacity:1;" d="M 605.6875 1000.230469 L 669.847656 1046.625 C 672.757812 1048.730469 676.816406 1048.066406 678.914062 1045.152344 C 681.015625 1042.238281 680.363281 1038.167969 677.445312 1036.0625 L 613.285156 989.667969 C 610.375 987.558594 606.316406 988.222656 604.210938 991.136719 C 602.117188 994.050781 602.769531 998.121094 605.6875 1000.230469 "/>
<path style=" stroke:none;fill-rule:nonzero;fill:rgb(14.509583%,34.509277%,55.288696%);fill-opacity:1;" d="M 604.609375 813.175781 C 604.609375 817.96875 600.734375 821.851562 595.945312 821.851562 C 591.15625 821.851562 587.28125 817.96875 587.28125 813.175781 C 587.28125 808.375 591.15625 804.492188 595.945312 804.492188 C 600.734375 804.492188 604.609375 808.375 604.609375 813.175781 "/>
<path style=" stroke:none;fill-rule:nonzero;fill:rgb(14.509583%,34.509277%,55.288696%);fill-opacity:1;" d="M 604.609375 1166.964844 C 604.609375 1171.757812 600.734375 1175.640625 595.945312 1175.640625 C 591.15625 1175.640625 587.28125 1171.757812 587.28125 1166.964844 C 587.28125 1162.171875 591.15625 1158.28125 595.945312 1158.28125 C 600.734375 1158.28125 604.609375 1162.171875 604.609375 1166.964844 "/>
<path style=" stroke:none;fill-rule:nonzero;fill:rgb(14.509583%,34.509277%,55.288696%);fill-opacity:1;" d="M 772.46875 998.75 C 767.679688 998.75 763.804688 994.867188 763.804688 990.066406 C 763.804688 985.273438 767.679688 981.382812 772.46875 981.382812 C 777.253906 981.382812 781.128906 985.273438 781.128906 990.066406 C 781.128906 994.867188 777.253906 998.75 772.46875 998.75 "/>
<path style=" stroke:none;fill-rule:nonzero;fill:rgb(14.509583%,34.509277%,55.288696%);fill-opacity:1;" d="M 419.417969 998.75 C 414.636719 998.75 410.746094 994.867188 410.746094 990.066406 C 410.746094 985.273438 414.636719 981.382812 419.417969 981.382812 C 424.210938 981.382812 428.09375 985.273438 428.09375 990.066406 C 428.09375 994.867188 424.210938 998.75 419.417969 998.75 "/>
<path style=" stroke:none;fill-rule:nonzero;fill:rgb(14.509583%,34.509277%,55.288696%);fill-opacity:1;" d="M 726.894531 871.125 C 723.511719 874.515625 718.027344 874.515625 714.644531 871.125 C 711.25 867.726562 711.25 862.230469 714.644531 858.839844 C 718.007812 855.449219 723.503906 855.449219 726.894531 858.839844 C 730.269531 862.230469 730.269531 867.734375 726.894531 871.125 "/>
<path style=" stroke:none;fill-rule:nonzero;fill:rgb(14.509583%,34.509277%,55.288696%);fill-opacity:1;" d="M 477.253906 1121.292969 C 473.863281 1124.683594 468.386719 1124.683594 464.996094 1121.292969 C 461.609375 1117.90625 461.609375 1112.40625 464.996094 1109.007812 C 468.378906 1105.625 473.863281 1105.625 477.246094 1109.007812 C 480.636719 1112.40625 480.636719 1117.90625 477.253906 1121.292969 "/>
<path style=" stroke:none;fill-rule:nonzero;fill:rgb(14.509583%,34.509277%,55.288696%);fill-opacity:1;" d="M 714.644531 1121.292969 C 711.25 1117.90625 711.25 1112.40625 714.644531 1109.007812 C 718.027344 1105.625 723.503906 1105.625 726.894531 1109.015625 C 730.269531 1112.40625 730.269531 1117.90625 726.894531 1121.285156 C 723.496094 1124.683594 718.007812 1124.683594 714.644531 1121.292969 "/>
<path style=" stroke:none;fill-rule:nonzero;fill:rgb(14.509583%,34.509277%,55.288696%);fill-opacity:1;" d="M 464.996094 871.125 C 461.609375 867.734375 461.609375 862.230469 464.996094 858.839844 C 468.378906 855.449219 473.863281 855.449219 477.246094 858.847656 C 480.636719 862.230469 480.648438 867.734375 477.253906 871.125 C 473.863281 874.515625 468.378906 874.515625 464.996094 871.125 "/>
<path style=" stroke:none;fill-rule:nonzero;fill:rgb(97.24884%,65.098572%,50.19989%);fill-opacity:1;" d="M 658.808594 608.578125 C 658.808594 608.578125 659.894531 610.558594 661.792969 614.015625 C 663.648438 617.457031 666.246094 622.386719 669.230469 628.382812 C 672.207031 634.390625 675.570312 641.460938 678.835938 649.328125 C 680.464844 653.28125 682.066406 657.410156 683.507812 661.820312 C 684.90625 666.273438 686.273438 670.808594 686.796875 676.476562 C 686.925781 677.90625 686.96875 679.433594 686.816406 681.191406 C 686.730469 682.078125 686.585938 683.027344 686.339844 684.039062 L 686.214844 684.558594 L 686.179688 684.652344 L 686 685.238281 L 685.753906 686.019531 C 685.660156 686.308594 685.628906 686.46875 685.476562 686.859375 L 685.042969 687.992188 C 684.746094 688.710938 684.433594 689.554688 684.128906 690.15625 C 683.5 691.390625 682.878906 692.636719 682.160156 693.75 C 679.371094 698.339844 675.996094 701.949219 672.628906 705.085938 C 665.835938 711.304688 658.894531 715.597656 652.875 719.011719 C 646.84375 722.394531 641.664062 724.78125 637.992188 726.371094 C 636.152344 727.171875 634.6875 727.765625 633.667969 728.164062 C 632.589844 728.582031 632.03125 728.792969 632.03125 728.792969 L 626.902344 715.316406 C 626.902344 715.316406 627.351562 715.128906 628.183594 714.773438 C 629.0625 714.398438 630.363281 713.820312 632.015625 713.046875 C 635.304688 711.492188 640.003906 709.148438 645.328125 705.953125 C 650.609375 702.75 656.636719 698.679688 661.785156 693.617188 C 664.335938 691.101562 666.6875 688.332031 668.28125 685.476562 C 668.710938 684.769531 669.015625 684.054688 669.347656 683.351562 C 669.535156 682.984375 669.558594 682.78125 669.679688 682.5 L 669.847656 682.109375 C 669.90625 682 669.992188 681.632812 670.058594 681.398438 L 670.28125 680.605469 L 670.390625 680.214844 L 670.441406 680.019531 L 670.476562 679.917969 L 670.484375 679.867188 C 670.289062 680.605469 670.425781 680.070312 670.382812 680.234375 C 670.382812 680.183594 670.398438 680.046875 670.40625 679.839844 C 670.433594 679.417969 670.40625 678.753906 670.316406 678.007812 C 669.949219 674.929688 668.789062 671.011719 667.457031 667.308594 C 666.109375 663.554688 664.53125 659.824219 662.921875 656.21875 C 659.671875 649.015625 656.25 642.335938 653.210938 636.667969 C 650.175781 631 647.515625 626.320312 645.640625 623.074219 C 643.75 619.871094 642.679688 618.042969 642.679688 618.042969 L 658.808594 608.578125 "/>
<path style=" stroke:none;fill-rule:nonzero;fill:rgb(59.999084%,87.059021%,97.648621%);fill-opacity:1;" d="M 683.992188 652.191406 L 662.886719 665.703125 L 637.296875 622.539062 C 635.660156 601.195312 631.863281 590.683594 627.019531 574.335938 C 654.058594 585.558594 683.992188 652.191406 683.992188 652.191406 "/>
<path style=" stroke:none;fill-rule:nonzero;fill:rgb(18.03894%,20.388794%,28.239441%);fill-opacity:1;" d="M 659.671875 786.054688 C 659.671875 786.054688 637.527344 766.144531 597.402344 766.144531 C 557.289062 766.144531 537.660156 780.785156 537.660156 780.785156 L 521.90625 738.683594 L 544.714844 731.027344 L 544.714844 722.25 L 643.4375 722.25 L 643.4375 729.082031 L 667.855469 742.746094 L 659.671875 786.054688 "/>
<path style=" stroke:none;fill-rule:nonzero;fill:rgb(14.509583%,16.468811%,22.349548%);fill-opacity:1;" d="M 613.726562 751.71875 C 604.296875 752.039062 575.96875 753.722656 568.167969 754.15625 C 553.523438 754.964844 543.6875 740.121094 533.496094 742.746094 L 537.660156 780.785156 C 537.660156 780.785156 557.289062 766.144531 597.402344 766.144531 C 637.527344 766.144531 659.671875 786.054688 659.671875 786.054688 L 649.957031 740.867188 C 636.671875 745.574219 629.757812 751.15625 613.726562 751.71875 "/>
<path style=" stroke:none;fill-rule:nonzero;fill:rgb(10.198975%,11.369324%,15.289307%);fill-opacity:1;" d="M 657.375 906.203125 C 657.375 906.203125 665.296875 927.085938 682.566406 933.570312 C 692.191406 937.199219 691.039062 946.65625 687.035156 949.042969 C 684.398438 949.925781 660.019531 952.953125 654.621094 948.210938 C 649.210938 943.46875 634.355469 931.113281 633.398438 929.476562 C 628.988281 922.03125 635.601562 913.382812 634.355469 909.285156 C 632.5 903.203125 657.375 906.203125 657.375 906.203125 "/>
<path style=" stroke:none;fill-rule:nonzero;fill:rgb(18.03894%,20.388794%,28.239441%);fill-opacity:1;" d="M 678.257812 769.757812 C 679.597656 843.019531 664.847656 914.121094 664.847656 914.121094 L 632.429688 909.890625 C 630.699219 899.566406 640.945312 823.679688 634.984375 766.207031 C 632.429688 741.546875 677.292969 716.566406 678.257812 769.757812 "/>
<path style=" stroke:none;fill-rule:nonzero;fill:rgb(10.198975%,11.369324%,15.289307%);fill-opacity:1;" d="M 532.351562 906.203125 C 532.351562 906.203125 524.433594 927.085938 507.167969 933.570312 C 497.546875 937.199219 498.683594 946.65625 502.691406 949.042969 C 505.335938 949.925781 529.714844 952.953125 535.109375 948.210938 C 540.515625 943.46875 555.371094 931.113281 556.339844 929.476562 C 560.738281 922.03125 554.117188 913.382812 555.371094 909.285156 C 557.238281 903.203125 532.351562 906.203125 532.351562 906.203125 "/>
<path style=" stroke:none;fill-rule:nonzero;fill:rgb(18.03894%,20.388794%,28.239441%);fill-opacity:1;" d="M 506.796875 769.757812 C 505.457031 843.019531 524.882812 914.121094 524.882812 914.121094 L 557.289062 909.890625 C 559.027344 899.566406 544.113281 823.679688 550.074219 766.207031 C 552.625 741.546875 507.761719 716.566406 506.796875 769.757812 "/>
<path style=" stroke:none;fill-rule:nonzero;fill:rgb(76.078796%,92.158508%,98.429871%);fill-opacity:1;" d="M 547.402344 667.632812 C 545.808594 687.796875 545.199219 710.03125 544.714844 722.25 L 643.4375 722.25 C 644.308594 704.730469 644.207031 675.449219 642.394531 652.539062 C 640.359375 626.847656 638.492188 584.625 632.5 578.191406 C 626.496094 571.761719 612.910156 570.46875 610.230469 569.542969 C 604.433594 567.554688 589.042969 567.824219 582.929688 568.234375 C 575.179688 568.761719 559.808594 572.140625 557.40625 577.410156 C 555.007812 582.6875 548.972656 647.84375 547.402344 667.632812 "/>
<path style=" stroke:none;fill-rule:nonzero;fill:rgb(97.24884%,65.098572%,50.19989%);fill-opacity:1;" d="M 605.128906 555.445312 C 605.128906 547.144531 583.71875 544.289062 584.691406 551.691406 C 585.371094 556.796875 584.277344 562.726562 583.523438 565.921875 C 583.191406 567.359375 577.910156 568.828125 577.910156 568.828125 C 577.910156 568.828125 583.320312 579.933594 594.953125 579.949219 C 606.578125 579.96875 610.230469 569.542969 610.230469 569.542969 L 604.890625 566.21875 C 604.890625 566.21875 605.128906 559.59375 605.128906 555.445312 "/>
<path style=" stroke:none;fill-rule:nonzero;fill:rgb(13.328552%,14.898682%,20.388794%);fill-opacity:1;" d="M 632.386719 495.285156 C 632.386719 534.601562 619.871094 541.859375 592.128906 549.4375 C 573.550781 554.519531 540.644531 543.109375 538.414062 486.707031 C 537.761719 470.042969 540.195312 446.496094 552.980469 448.195312 C 561.15625 425.492188 572.261719 429.699219 588.832031 429.699219 C 623.085938 429.699219 660.816406 450.320312 632.386719 495.285156 "/>
<path style=" stroke:none;fill-rule:nonzero;fill:rgb(88.62915%,55.288696%,44.709778%);fill-opacity:1;" d="M 637.296875 503.25 C 637.296875 543.652344 622.847656 560.128906 605.128906 560.128906 C 584.878906 560.128906 557.519531 536.0625 557.519531 503.25 C 557.519531 462.863281 575.375 440.609375 597.402344 440.609375 C 619.441406 440.609375 637.296875 462.863281 637.296875 503.25 "/>
<path style=" stroke:none;fill-rule:nonzero;fill:rgb(97.24884%,65.098572%,50.19989%);fill-opacity:1;" d="M 635.339844 501.039062 C 635.339844 540.015625 627.164062 556.464844 606.230469 556.464844 C 585.277344 556.464844 559.484375 543.046875 557.519531 500.625 C 555.710938 461.691406 576.460938 440.609375 597.402344 440.609375 C 618.355469 440.609375 635.339844 462.0625 635.339844 501.039062 "/>
<path style=" stroke:none;fill-rule:nonzero;fill:rgb(13.328552%,14.898682%,20.388794%);fill-opacity:1;" d="M 600.328125 438.808594 C 582.609375 438.808594 561.496094 448.679688 559.484375 466.074219 C 566.472656 472.847656 575.042969 477.390625 584.609375 479.914062 C 590.695312 481.511719 599.488281 471.46875 606.230469 471.46875 C 615.53125 471.46875 622.695312 481.71875 629.769531 479.050781 C 636.167969 476.644531 640.605469 472.515625 641.179688 465.566406 C 629.726562 452.996094 617.660156 438.808594 600.328125 438.808594 "/>
<path style=" stroke:none;fill-rule:nonzero;fill:rgb(97.24884%,65.098572%,50.19989%);fill-opacity:1;" d="M 547.453125 503.734375 C 538.167969 507.453125 546.589844 525.246094 556.101562 523.683594 C 560.164062 523.019531 566.132812 522.808594 566.132812 516.359375 C 566.132812 509.917969 558.621094 509.679688 558.621094 509.679688 C 558.621094 509.679688 555.949219 500.324219 547.453125 503.734375 "/>
<path style=" stroke:none;fill-rule:nonzero;fill:rgb(71.369934%,37.649536%,31.759644%);fill-opacity:1;" d="M 551.945312 520.625 C 551.945312 520.625 544.65625 513.199219 547.097656 508.464844 C 548.082031 506.554688 549.785156 506.078125 551.226562 506.078125 C 552.625 506.078125 553.761719 506.519531 553.761719 506.519531 C 553.761719 506.519531 553.53125 506.476562 553.167969 506.476562 C 552.234375 506.476562 550.4375 506.765625 549.394531 508.832031 C 547.132812 513.351562 551.945312 520.625 551.945312 520.625 "/>
<path style=" stroke:none;fill-rule:nonzero;fill:rgb(71.369934%,37.649536%,31.759644%);fill-opacity:1;" d="M 612.0625 516.734375 C 610.953125 516.113281 609.5625 515.746094 608.070312 515.746094 C 606.550781 515.746094 605.171875 516.113281 604.066406 516.734375 C 604.660156 514.882812 606.222656 513.546875 608.070312 513.546875 C 609.902344 513.546875 611.453125 514.882812 612.0625 516.734375 "/>
<path style=" stroke:none;fill-rule:nonzero;fill:rgb(98.81897%,98.81897%,98.81897%);fill-opacity:1;" d="M 590.347656 529.011719 C 590.347656 529.011719 592.730469 543.109375 606.230469 543.109375 C 619.71875 543.109375 622.09375 529.011719 622.09375 529.011719 L 590.347656 529.011719 "/>
<path style=" stroke:none;fill-rule:nonzero;fill:rgb(13.328552%,14.898682%,20.388794%);fill-opacity:1;" d="M 576.867188 490.691406 C 579.664062 486.730469 585.542969 487.054688 591.5625 488.71875 C 593.554688 489.28125 592.570312 492.125 590.527344 491.785156 C 586.820312 491.183594 582.503906 491.183594 579.386719 495.195312 C 578.105469 496.824219 575.679688 492.398438 576.867188 490.691406 "/>
<path style=" stroke:none;fill-rule:nonzero;fill:rgb(13.328552%,14.898682%,20.388794%);fill-opacity:1;" d="M 559.910156 496.953125 C 553.761719 472.753906 573.550781 475.855469 573.550781 475.855469 C 573.550781 475.855469 561.875 453.882812 557.375 462.898438 C 555.667969 466.285156 546.335938 494.597656 555.074219 504.386719 C 555.066406 510.359375 560.289062 514.90625 562.140625 514.320312 C 564.003906 513.726562 561.773438 504.292969 559.910156 496.953125 "/>
<path style=" stroke:none;fill-rule:nonzero;fill:rgb(13.328552%,14.898682%,20.388794%);fill-opacity:1;" d="M 588.703125 505.527344 C 588.703125 506.394531 587.992188 507.113281 587.109375 507.113281 C 586.246094 507.113281 585.53125 506.394531 585.53125 505.527344 L 585.53125 500.4375 C 585.53125 499.570312 586.246094 498.855469 587.109375 498.855469 C 587.992188 498.855469 588.703125 499.570312 588.703125 500.4375 L 588.703125 505.527344 "/>
<path style=" stroke:none;fill-rule:nonzero;fill:rgb(13.328552%,14.898682%,20.388794%);fill-opacity:1;" d="M 632.371094 490.691406 C 629.589844 486.730469 623.695312 487.054688 617.683594 488.71875 C 615.675781 489.28125 616.667969 492.125 618.71875 491.785156 C 622.417969 491.183594 626.734375 491.183594 629.859375 495.195312 C 631.140625 496.824219 633.574219 492.398438 632.371094 490.691406 "/>
<path style=" stroke:none;fill-rule:nonzero;fill:rgb(13.328552%,14.898682%,20.388794%);fill-opacity:1;" d="M 620.542969 505.527344 C 620.542969 506.394531 621.253906 507.113281 622.128906 507.113281 C 623 507.113281 623.714844 506.394531 623.714844 505.527344 L 623.714844 500.4375 C 623.714844 499.570312 623 498.855469 622.128906 498.855469 C 621.253906 498.855469 620.542969 499.570312 620.542969 500.4375 L 620.542969 505.527344 "/>
<path style=" stroke:none;fill-rule:nonzero;fill:rgb(74.119568%,73.728943%,73.728943%);fill-opacity:1;" d="M 664.734375 742.746094 L 521.058594 742.746094 L 521.058594 731.34375 L 664.734375 731.34375 L 664.734375 742.746094 "/>
<path style=" stroke:none;fill-rule:nonzero;fill:rgb(82.749939%,82.348633%,82.348633%);fill-opacity:1;" d="M 658.097656 742.746094 L 530.597656 742.746094 L 530.597656 668.386719 L 658.097656 668.386719 L 658.097656 742.746094 "/>
<path style=" stroke:none;fill-rule:nonzero;fill:rgb(97.24884%,65.098572%,50.19989%);fill-opacity:1;" d="M 539.550781 713.199219 L 551.90625 718.433594 L 562.960938 719.929688 L 564.402344 702.425781 L 557.570312 700.496094 L 560.527344 695.585938 C 560.527344 695.585938 564.460938 689.722656 562.242188 688.507812 C 560.019531 687.3125 553.472656 693.9375 550.183594 696.171875 C 546.910156 698.417969 540.203125 700.277344 540.203125 700.277344 L 539.550781 713.199219 "/>
<path style=" stroke:none;fill-rule:nonzero;fill:rgb(97.24884%,65.098572%,50.19989%);fill-opacity:1;" d="M 562.960938 719.929688 C 562.960938 719.929688 575.441406 721.824219 577.207031 721.585938 C 578.960938 721.359375 580.132812 719.25 578.519531 718.886719 C 576.902344 718.519531 561.0625 714.925781 561.0625 714.925781 L 562.960938 719.929688 "/>
<path style=" stroke:none;fill-rule:nonzero;fill:rgb(97.24884%,65.098572%,50.19989%);fill-opacity:1;" d="M 563.019531 715.988281 C 563.019531 715.988281 581.546875 719.03125 583.3125 718.800781 C 585.066406 718.554688 586.226562 716.445312 584.625 716.089844 C 583.015625 715.714844 563.054688 711.238281 563.054688 711.238281 L 563.019531 715.988281 "/>
<path style=" stroke:none;fill-rule:nonzero;fill:rgb(97.24884%,65.098572%,50.19989%);fill-opacity:1;" d="M 562.386719 710.882812 C 562.386719 710.882812 580.910156 713.914062 582.667969 713.683594 C 584.429688 713.457031 585.59375 711.339844 583.988281 710.976562 C 582.371094 710.609375 562.410156 706.132812 562.410156 706.132812 L 562.386719 710.882812 "/>
<path style=" stroke:none;fill-rule:nonzero;fill:rgb(97.24884%,65.098572%,50.19989%);fill-opacity:1;" d="M 560.238281 705.996094 C 560.238281 705.996094 578.773438 709.046875 580.523438 708.800781 C 582.292969 708.570312 583.445312 706.460938 581.84375 706.089844 C 580.226562 705.742188 560.265625 701.253906 560.265625 701.253906 L 560.238281 705.996094 "/>
<path style=" stroke:none;fill-rule:nonzero;fill:rgb(97.24884%,65.098572%,50.19989%);fill-opacity:1;" d="M 546.386719 618.042969 C 546.386719 618.042969 545.460938 619.613281 543.839844 622.359375 C 542.222656 625.136719 539.925781 629.15625 537.277344 634.007812 C 534.640625 638.871094 531.648438 644.585938 528.679688 650.757812 C 525.753906 656.910156 522.777344 663.578125 520.660156 670.078125 C 519.625 673.257812 518.800781 676.597656 518.667969 678.875 C 518.640625 679.410156 518.640625 679.882812 518.667969 680.105469 L 518.683594 680.214844 L 518.683594 680.234375 C 518.699219 680.292969 518.546875 679.714844 518.617188 679.976562 L 518.660156 680.148438 L 519.082031 681.804688 C 519.3125 682.570312 519.421875 682.859375 519.625 683.476562 C 519.878906 684.066406 520.082031 684.675781 520.386719 685.238281 C 522.535156 689.824219 526.441406 693.191406 530.4375 695.476562 C 534.453125 697.753906 538.414062 698.976562 541.152344 699.640625 C 543.902344 700.300781 545.484375 700.429688 545.230469 700.421875 L 544.199219 714.808594 C 543.953125 714.78125 541.765625 714.671875 538.082031 713.964844 C 534.429688 713.234375 529.222656 711.945312 523.253906 708.945312 C 520.292969 707.398438 517.132812 705.433594 514.128906 702.75 C 511.128906 700.074219 508.28125 696.699219 506.136719 692.707031 C 505.566406 691.71875 505.117188 690.675781 504.632812 689.640625 C 504.183594 688.59375 503.675781 687.183594 503.363281 686.214844 L 502.972656 684.914062 L 502.871094 684.582031 L 502.820312 684.414062 L 502.683594 683.851562 C 502.589844 683.445312 502.496094 683.011719 502.429688 682.601562 C 502.167969 681.015625 502.148438 679.636719 502.167969 678.320312 C 502.351562 673.179688 503.429688 669.160156 504.53125 665.152344 C 506.855469 657.257812 509.839844 650.066406 512.765625 643.398438 C 515.707031 636.753906 518.648438 630.710938 521.246094 625.570312 C 523.839844 620.429688 526.078125 616.214844 527.679688 613.25 C 529.316406 610.277344 530.257812 608.578125 530.257812 608.578125 L 546.386719 618.042969 "/>
<path style=" stroke:none;fill-rule:nonzero;fill:rgb(59.999084%,87.059021%,97.648621%);fill-opacity:1;" d="M 505.066406 652.191406 L 527.367188 665.703125 L 554.277344 622.171875 C 555.925781 600.828125 557.636719 589.585938 562.476562 573.238281 C 533.496094 588.964844 505.066406 652.191406 505.066406 652.191406 "/>
</g>
</svg>
