<?xml version="1.0" encoding="UTF-8"?>
<svg xmlns="http://www.w3.org/2000/svg" xmlns:xlink="http://www.w3.org/1999/xlink" width="1190.25pt" height="1683.749945pt" viewBox="0 0 1190.25 1683.749945" version="1.2">
<defs>
<clipPath id="clip1">
  <path d="M 308.839844 507 L 881.71875 507 L 881.71875 1081 L 308.839844 1081 Z M 308.839844 507 "/>
</clipPath>
<clipPath id="clip2">
  <path d="M 460 1101 L 540 1101 L 540 1204.84375 L 460 1204.84375 Z M 460 1101 "/>
</clipPath>
<clipPath id="clip3">
  <path d="M 653 1101 L 733 1101 L 733 1204.84375 L 653 1204.84375 Z M 653 1101 "/>
</clipPath>
<clipPath id="clip4">
  <path d="M 586 479.125 L 605 479.125 L 605 537 L 586 537 Z M 586 479.125 "/>
</clipPath>
</defs>
<g id="surface1">
<g clip-path="url(#clip1)" clip-rule="nonzero">
<path style=" stroke:none;fill-rule:nonzero;fill:rgb(93.728638%,93.728638%,92.939758%);fill-opacity:1;" d="M 882.085938 794.003906 C 882.085938 798.6875 881.972656 803.371094 881.742188 808.046875 C 881.511719 812.726562 881.167969 817.398438 880.707031 822.058594 C 880.246094 826.71875 879.675781 831.367188 878.984375 836 C 878.296875 840.636719 877.496094 845.25 876.582031 849.84375 C 875.664062 854.4375 874.636719 859.007812 873.5 863.550781 C 872.359375 868.09375 871.109375 872.609375 869.746094 877.089844 C 868.386719 881.574219 866.914062 886.019531 865.335938 890.429688 C 863.753906 894.839844 862.066406 899.210938 860.273438 903.539062 C 858.476562 907.863281 856.578125 912.144531 854.570312 916.382812 C 852.566406 920.617188 850.457031 924.796875 848.246094 928.929688 C 846.035156 933.0625 843.722656 937.136719 841.3125 941.152344 C 838.902344 945.171875 836.394531 949.128906 833.789062 953.023438 C 831.179688 956.917969 828.480469 960.746094 825.6875 964.507812 C 822.894531 968.269531 820.007812 971.960938 817.03125 975.582031 C 814.058594 979.203125 810.996094 982.75 807.84375 986.222656 C 804.695312 989.691406 801.460938 993.082031 798.144531 996.394531 C 794.828125 999.707031 791.433594 1002.9375 787.957031 1006.082031 C 784.480469 1009.230469 780.933594 1012.289062 777.304688 1015.257812 C 773.679688 1018.230469 769.984375 1021.113281 766.214844 1023.902344 C 762.449219 1026.691406 758.617188 1029.390625 754.714844 1031.992188 C 750.816406 1034.59375 746.855469 1037.097656 742.832031 1039.507812 C 738.808594 1041.914062 734.726562 1044.222656 730.589844 1046.433594 C 726.453125 1048.640625 722.265625 1050.746094 718.027344 1052.75 C 713.785156 1054.75 709.5 1056.648438 705.167969 1058.441406 C 700.832031 1060.234375 696.457031 1061.917969 692.042969 1063.496094 C 687.625 1065.074219 683.171875 1066.542969 678.683594 1067.90625 C 674.195312 1069.265625 669.679688 1070.511719 665.128906 1071.652344 C 660.578125 1072.789062 656.003906 1073.816406 651.402344 1074.730469 C 646.804688 1075.644531 642.183594 1076.445312 637.542969 1077.132812 C 632.902344 1077.820312 628.25 1078.390625 623.582031 1078.851562 C 618.914062 1079.308594 614.238281 1079.65625 609.554688 1079.882812 C 604.867188 1080.113281 600.179688 1080.230469 595.492188 1080.230469 C 590.800781 1080.230469 586.113281 1080.113281 581.429688 1079.882812 C 576.742188 1079.65625 572.066406 1079.308594 567.398438 1078.851562 C 562.730469 1078.390625 558.078125 1077.820312 553.4375 1077.132812 C 548.796875 1076.445312 544.179688 1075.644531 539.578125 1074.730469 C 534.976562 1073.816406 530.402344 1072.789062 525.851562 1071.652344 C 521.304688 1070.511719 516.785156 1069.265625 512.296875 1067.90625 C 507.808594 1066.542969 503.355469 1065.074219 498.9375 1063.496094 C 494.523438 1061.917969 490.148438 1060.234375 485.816406 1058.441406 C 481.480469 1056.648438 477.195312 1054.75 472.953125 1052.75 C 468.714844 1050.746094 464.527344 1048.640625 460.390625 1046.433594 C 456.253906 1044.222656 452.171875 1041.914062 448.152344 1039.507812 C 444.128906 1037.097656 440.164062 1034.59375 436.265625 1031.992188 C 432.367188 1029.390625 428.53125 1026.691406 424.765625 1023.902344 C 420.996094 1021.113281 417.300781 1018.230469 413.675781 1015.257812 C 410.050781 1012.289062 406.5 1009.230469 403.023438 1006.082031 C 399.546875 1002.9375 396.152344 999.707031 392.835938 996.394531 C 389.519531 993.082031 386.285156 989.691406 383.136719 986.222656 C 379.988281 982.75 376.921875 979.203125 373.949219 975.582031 C 370.972656 971.960938 368.089844 968.269531 365.292969 964.507812 C 362.5 960.746094 359.800781 956.917969 357.195312 953.023438 C 354.589844 949.128906 352.078125 945.171875 349.667969 941.152344 C 347.257812 937.136719 344.945312 933.0625 342.734375 928.929688 C 340.523438 924.796875 338.414062 920.617188 336.410156 916.382812 C 334.40625 912.144531 332.503906 907.863281 330.710938 903.539062 C 328.914062 899.210938 327.226562 894.839844 325.648438 890.429688 C 324.066406 886.019531 322.597656 881.574219 321.234375 877.089844 C 319.871094 872.609375 318.621094 868.09375 317.484375 863.550781 C 316.34375 859.007812 315.316406 854.4375 314.402344 849.84375 C 313.484375 845.25 312.683594 840.636719 311.996094 836 C 311.308594 831.367188 310.734375 826.71875 310.273438 822.058594 C 309.8125 817.398438 309.46875 812.726562 309.238281 808.046875 C 309.007812 803.371094 308.894531 798.6875 308.894531 794.003906 C 308.894531 789.320312 309.007812 784.636719 309.238281 779.960938 C 309.46875 775.28125 309.8125 770.609375 310.273438 765.949219 C 310.734375 761.285156 311.308594 756.640625 311.996094 752.003906 C 312.683594 747.371094 313.484375 742.757812 314.402344 738.164062 C 315.316406 733.570312 316.34375 729 317.484375 724.457031 C 318.621094 719.914062 319.871094 715.398438 321.234375 710.917969 C 322.597656 706.433594 324.066406 701.988281 325.648438 697.578125 C 327.226562 693.167969 328.914062 688.796875 330.710938 684.46875 C 332.503906 680.140625 334.40625 675.859375 336.410156 671.625 C 338.414062 667.390625 340.523438 663.207031 342.734375 659.078125 C 344.945312 654.945312 347.257812 650.871094 349.667969 646.855469 C 352.078125 642.835938 354.589844 638.878906 357.195312 634.984375 C 359.800781 631.089844 362.5 627.261719 365.292969 623.5 C 368.089844 619.738281 370.972656 616.046875 373.949219 612.425781 C 376.921875 608.804688 379.988281 605.257812 383.136719 601.785156 C 386.285156 598.316406 389.519531 594.921875 392.835938 591.613281 C 396.152344 588.300781 399.546875 585.070312 403.023438 581.925781 C 406.5 578.777344 410.050781 575.71875 413.675781 572.75 C 417.300781 569.777344 420.996094 566.894531 424.765625 564.105469 C 428.53125 561.316406 432.367188 558.617188 436.265625 556.015625 C 440.164062 553.414062 444.128906 550.90625 448.152344 548.5 C 452.171875 546.089844 456.253906 543.785156 460.390625 541.574219 C 464.527344 539.367188 468.714844 537.261719 472.953125 535.257812 C 477.195312 533.253906 481.480469 531.359375 485.816406 529.566406 C 490.148438 527.773438 494.523438 526.085938 498.9375 524.507812 C 503.355469 522.929688 507.808594 521.460938 512.296875 520.101562 C 516.785156 518.742188 521.304688 517.492188 525.851562 516.355469 C 530.402344 515.21875 534.976562 514.191406 539.578125 513.277344 C 544.179688 512.363281 548.796875 511.5625 553.4375 510.875 C 558.078125 510.1875 562.730469 509.617188 567.398438 509.15625 C 572.066406 508.695312 576.742188 508.351562 581.429688 508.121094 C 586.113281 507.894531 590.800781 507.777344 595.492188 507.777344 C 600.179688 507.777344 604.867188 507.894531 609.554688 508.121094 C 614.238281 508.351562 618.914062 508.695312 623.582031 509.15625 C 628.25 509.617188 632.902344 510.1875 637.542969 510.875 C 642.183594 511.5625 646.804688 512.363281 651.402344 513.277344 C 656.003906 514.191406 660.578125 515.21875 665.128906 516.355469 C 669.679688 517.492188 674.195312 518.742188 678.683594 520.101562 C 683.171875 521.460938 687.625 522.929688 692.042969 524.507812 C 696.457031 526.085938 700.832031 527.773438 705.167969 529.566406 C 709.5 531.359375 713.785156 533.253906 718.027344 535.257812 C 722.265625 537.261719 726.453125 539.367188 730.589844 541.574219 C 734.726562 543.785156 738.808594 546.089844 742.832031 548.5 C 746.855469 550.90625 750.816406 553.414062 754.714844 556.015625 C 758.617188 558.617188 762.449219 561.316406 766.214844 564.105469 C 769.984375 566.894531 773.679688 569.777344 777.304688 572.75 C 780.933594 575.71875 784.480469 578.777344 787.957031 581.925781 C 791.433594 585.070312 794.828125 588.300781 798.144531 591.613281 C 801.460938 594.921875 804.695312 598.316406 807.84375 601.785156 C 810.996094 605.257812 814.058594 608.804688 817.03125 612.425781 C 820.007812 616.046875 822.894531 619.738281 825.6875 623.5 C 828.480469 627.261719 831.179688 631.089844 833.789062 634.984375 C 836.394531 638.878906 838.902344 642.835938 841.3125 646.855469 C 843.722656 650.871094 846.035156 654.945312 848.246094 659.078125 C 850.457031 663.207031 852.566406 667.390625 854.570312 671.625 C 856.578125 675.859375 858.476562 680.140625 860.273438 684.46875 C 862.066406 688.796875 863.753906 693.167969 865.335938 697.578125 C 866.914062 701.988281 868.386719 706.433594 869.746094 710.917969 C 871.109375 715.398438 872.359375 719.914062 873.5 724.457031 C 874.636719 729 875.664062 733.570312 876.582031 738.164062 C 877.496094 742.757812 878.296875 747.371094 878.984375 752.003906 C 879.675781 756.640625 880.246094 761.285156 880.707031 765.949219 C 881.167969 770.609375 881.511719 775.28125 881.742188 779.960938 C 881.972656 784.636719 882.085938 789.320312 882.085938 794.003906 Z M 882.085938 794.003906 "/>
</g>
<path style=" stroke:none;fill-rule:nonzero;fill:rgb(97.648621%,68.629456%,44.709778%);fill-opacity:1;" d="M 410.0625 998.8125 L 409.988281 998.648438 L 388.660156 933.769531 C 382.773438 920.480469 365.363281 917.234375 355.070312 927.511719 C 351.105469 931.472656 349 936.765625 349 942.144531 C 349 944.964844 349.582031 947.8125 350.773438 950.503906 L 366.601562 1002.96875 C 374.492188 1020.785156 380.625 1039.308594 396.460938 1050.699219 L 465.726562 1103.800781 L 535.640625 1103.800781 L 535.699219 1101.875 L 536.503906 1074.789062 C 537.332031 1046.691406 521.296875 1020.804688 495.742188 1009.007812 L 441.273438 983.859375 C 429.101562 976.164062 413 983.078125 410.210938 997.183594 C 410.117188 997.671875 410.035156 998.160156 409.988281 998.652344 C 409.878906 999.488281 409.824219 1000.328125 409.824219 1001.15625 C 409.824219 1008.078125 413.351562 1014.648438 419.367188 1018.457031 L 450.804688 1038.316406 "/>
<g clip-path="url(#clip2)" clip-rule="nonzero">
<path style=" stroke:none;fill-rule:nonzero;fill:rgb(86.669922%,26.669312%,23.529053%);fill-opacity:1;" d="M 539.714844 1110.070312 L 539.714844 1196.269531 C 539.714844 1200.972656 535.894531 1204.789062 531.183594 1204.789062 L 469.398438 1204.789062 C 464.671875 1204.789062 460.851562 1200.972656 460.851562 1196.269531 L 460.851562 1110.070312 C 460.851562 1105.363281 464.671875 1101.546875 469.398438 1101.546875 L 531.183594 1101.546875 C 535.894531 1101.546875 539.714844 1105.363281 539.714844 1110.070312 Z M 539.714844 1110.070312 "/>
</g>
<path style=" stroke:none;fill-rule:nonzero;fill:rgb(93.728638%,93.728638%,92.939758%);fill-opacity:1;" d="M 539.714844 1110.070312 L 539.714844 1127.078125 L 460.851562 1127.078125 L 460.851562 1110.070312 C 460.851562 1105.363281 464.675781 1101.546875 469.398438 1101.546875 L 531.183594 1101.546875 C 535.894531 1101.546875 539.714844 1105.363281 539.714844 1110.070312 Z M 539.714844 1110.070312 "/>
<path style=" stroke:none;fill-rule:nonzero;fill:rgb(16.079712%,27.449036%,34.509277%);fill-opacity:1;" d="M 460.851562 1127.078125 L 539.714844 1127.078125 L 539.714844 1141.5625 L 460.851562 1141.5625 Z M 460.851562 1127.078125 "/>
<path style=" stroke:none;fill-rule:nonzero;fill:rgb(97.648621%,68.629456%,44.709778%);fill-opacity:1;" d="M 783.054688 998.8125 L 783.128906 998.648438 L 804.460938 933.769531 C 810.34375 920.480469 827.757812 917.234375 838.046875 927.511719 C 842.015625 931.472656 844.117188 936.765625 844.117188 942.144531 C 844.117188 944.964844 843.535156 947.8125 842.347656 950.503906 L 826.515625 1002.96875 C 818.625 1020.785156 812.488281 1039.308594 796.652344 1050.699219 L 727.394531 1103.800781 L 657.476562 1103.800781 L 657.417969 1101.875 L 656.617188 1074.789062 C 655.785156 1046.691406 671.820312 1020.804688 697.375 1009.007812 L 751.84375 983.859375 C 764.019531 976.164062 780.121094 983.078125 782.90625 997.183594 C 783 997.671875 783.082031 998.160156 783.125 998.652344 C 783.238281 999.488281 783.292969 1000.328125 783.292969 1001.15625 C 783.292969 1008.078125 779.765625 1014.648438 773.75 1018.457031 L 742.3125 1038.316406 "/>
<g clip-path="url(#clip3)" clip-rule="nonzero">
<path style=" stroke:none;fill-rule:nonzero;fill:rgb(86.669922%,26.669312%,23.529053%);fill-opacity:1;" d="M 653.402344 1110.070312 L 653.402344 1196.269531 C 653.402344 1200.972656 657.226562 1204.789062 661.9375 1204.789062 L 723.71875 1204.789062 C 728.445312 1204.789062 732.265625 1200.972656 732.265625 1196.269531 L 732.265625 1110.070312 C 732.265625 1105.363281 728.445312 1101.546875 723.71875 1101.546875 L 661.9375 1101.546875 C 657.226562 1101.546875 653.402344 1105.363281 653.402344 1110.070312 Z M 653.402344 1110.070312 "/>
</g>
<path style=" stroke:none;fill-rule:nonzero;fill:rgb(93.728638%,93.728638%,92.939758%);fill-opacity:1;" d="M 653.402344 1110.070312 L 653.402344 1127.078125 L 732.265625 1127.078125 L 732.265625 1110.070312 C 732.265625 1105.363281 728.445312 1101.546875 723.71875 1101.546875 L 661.933594 1101.546875 C 657.226562 1101.546875 653.402344 1105.363281 653.402344 1110.070312 Z M 653.402344 1110.070312 "/>
<path style=" stroke:none;fill-rule:nonzero;fill:rgb(16.079712%,27.449036%,34.509277%);fill-opacity:1;" d="M 653.402344 1127.078125 L 732.265625 1127.078125 L 732.265625 1141.5625 L 653.402344 1141.5625 Z M 653.402344 1127.078125 "/>
<path style=" stroke:none;fill-rule:nonzero;fill:rgb(26.669312%,45.878601%,51.759338%);fill-opacity:1;" d="M 759.089844 730.015625 L 759.089844 919.664062 C 759.089844 924.699219 756.503906 929.375 752.246094 932.0625 L 604.40625 1025.28125 C 603.1875 1026.046875 601.875 1026.632812 600.539062 1026.992188 C 597.574219 1027.835938 594.414062 1027.714844 591.511719 1026.648438 C 590.550781 1026.304688 589.617188 1025.839844 588.726562 1025.28125 L 440.871094 932.066406 C 436.613281 929.375 434.027344 924.703125 434.027344 919.667969 L 434.027344 730.300781 L 595 641.640625 Z M 759.089844 730.015625 "/>
<path style=" stroke:none;fill-rule:nonzero;fill:rgb(16.079712%,27.449036%,34.509277%);fill-opacity:1;" d="M 751.585938 767.746094 L 751.585938 819.90625 L 595.53125 909.132812 L 441.535156 819.90625 L 441.535156 768.019531 L 467.582031 753.667969 L 595.074219 683.449219 L 725.035156 753.4375 Z M 751.585938 767.746094 "/>
<path style=" stroke:none;fill-rule:nonzero;fill:rgb(22.349548%,41.178894%,48.629761%);fill-opacity:1;" d="M 759.089844 730.015625 L 759.089844 815.585938 L 595.484375 909.132812 L 434.027344 815.585938 L 434.027344 730.300781 L 461.335938 746.140625 L 591.511719 821.671875 L 595 823.699219 L 600.539062 820.542969 L 731.253906 745.902344 Z M 759.089844 730.015625 "/>
<path style=" stroke:none;fill-rule:nonzero;fill:rgb(16.079712%,27.449036%,34.509277%);fill-opacity:1;" d="M 600.609375 817.277344 L 600.609375 1026.984375 C 597.601562 1027.839844 594.390625 1027.71875 591.4375 1026.636719 L 591.4375 817.277344 Z M 600.609375 817.277344 "/>
<path style=" stroke:none;fill-rule:nonzero;fill:rgb(97.648621%,82.348633%,65.489197%);fill-opacity:1;" d="M 636.46875 700.246094 L 636.46875 820.46875 L 595.5 778.554688 L 555.335938 820.46875 L 555.335938 700.246094 Z M 636.46875 700.246094 "/>
<path style=" stroke:none;fill-rule:nonzero;fill:rgb(88.62915%,55.288696%,30.198669%);fill-opacity:1;" d="M 636.46875 700.246094 L 636.46875 717.289062 C 631.746094 717.46875 627.035156 717.710938 623.273438 719.257812 C 614.324219 722.96875 606.84375 736.660156 596.550781 736.660156 C 586.269531 736.660156 578.78125 722.96875 569.839844 719.257812 C 565.734375 717.558594 560.496094 717.4375 555.335938 717.226562 L 555.335938 700.246094 Z M 636.46875 700.246094 "/>
<path style=" stroke:none;fill-rule:nonzero;fill:rgb(41.569519%,68.629456%,80.778503%);fill-opacity:1;" d="M 596.023438 822.785156 L 538.128906 856.546875 C 536.53125 857.460938 534.566406 857.460938 532.96875 856.546875 L 379.886719 768.871094 C 376.378906 766.863281 376.417969 761.796875 379.957031 759.84375 L 434.027344 730.300781 Z M 596.023438 822.785156 "/>
<path style=" stroke:none;fill-rule:nonzero;fill:rgb(41.569519%,68.629456%,80.778503%);fill-opacity:1;" d="M 813.160156 768.910156 L 660.132812 856.542969 C 658.535156 857.457031 656.570312 857.457031 654.972656 856.542969 L 596.023438 822.78125 L 758.539062 729.71875 L 813.054688 759.863281 C 816.625 761.800781 816.683594 766.894531 813.160156 768.910156 Z M 813.160156 768.910156 "/>
<path style=" stroke:none;fill-rule:nonzero;fill:rgb(86.669922%,26.669312%,23.529053%);fill-opacity:1;" d="M 678.484375 637.808594 C 678.484375 648.082031 664.773438 655.558594 661.0625 664.492188 C 657.214844 673.75 661.476562 688.6875 654.488281 695.667969 C 647.5 702.644531 632.542969 698.390625 623.273438 702.230469 C 614.328125 705.933594 606.84375 719.628906 596.558594 719.628906 C 586.273438 719.628906 578.785156 705.933594 569.84375 702.230469 C 560.570312 698.390625 545.613281 702.644531 538.628906 695.664062 C 531.640625 688.6875 535.898438 673.75 532.054688 664.492188 C 528.34375 655.558594 514.632812 648.082031 514.632812 637.808594 C 514.632812 627.535156 528.34375 620.0625 532.054688 611.128906 C 535.902344 601.867188 531.640625 586.933594 538.628906 579.953125 C 545.617188 572.972656 560.570312 577.230469 569.84375 573.390625 C 578.785156 569.683594 586.273438 555.988281 596.558594 555.988281 C 606.84375 555.988281 614.328125 569.683594 623.273438 573.390625 C 632.546875 577.230469 647.503906 572.976562 654.488281 579.953125 C 661.480469 586.933594 657.21875 601.871094 661.0625 611.128906 C 664.773438 620.0625 678.484375 627.535156 678.484375 637.808594 Z M 678.484375 637.808594 "/>
<path style=" stroke:none;fill-rule:nonzero;fill:rgb(93.728638%,93.728638%,92.939758%);fill-opacity:1;" d="M 632.550781 620.027344 C 635.210938 625.386719 636.703125 631.425781 636.703125 637.808594 C 636.703125 659.953125 618.734375 677.902344 596.558594 677.902344 C 574.386719 677.902344 556.410156 659.953125 556.410156 637.808594 C 556.410156 615.664062 574.386719 597.714844 596.558594 597.714844 C 606.589844 597.714844 615.761719 601.390625 622.796875 607.464844 "/>
<path style=" stroke:none;fill-rule:nonzero;fill:rgb(97.648621%,68.629456%,44.709778%);fill-opacity:1;" d="M 595.492188 686.921875 C 622.605469 686.921875 644.664062 664.890625 644.664062 637.808594 C 644.664062 630.164062 642.953125 622.832031 639.570312 616.023438 L 623.394531 624.03125 C 625.527344 628.332031 626.609375 632.964844 626.609375 637.808594 C 626.609375 654.945312 612.648438 668.886719 595.492188 668.886719 C 578.332031 668.886719 564.371094 654.949219 564.371094 637.808594 C 564.371094 620.671875 578.332031 606.730469 595.492188 606.730469 C 602.960938 606.730469 610.183594 609.414062 615.824219 614.285156 L 627.632812 600.640625 C 618.707031 592.9375 607.292969 588.699219 595.492188 588.699219 C 568.375 588.699219 546.316406 610.726562 546.316406 637.808594 C 546.316406 664.890625 568.375 686.921875 595.492188 686.921875 Z M 595.492188 686.921875 "/>
<g clip-path="url(#clip4)" clip-rule="nonzero">
<path style=" stroke:none;fill-rule:nonzero;fill:rgb(88.62915%,55.288696%,30.198669%);fill-opacity:1;" d="M 586.460938 479.332031 L 604.519531 479.332031 L 604.519531 536.222656 L 586.460938 536.222656 Z M 586.460938 479.332031 "/>
</g>
<path style=" stroke:none;fill-rule:nonzero;fill:rgb(88.62915%,55.288696%,30.198669%);fill-opacity:1;" d="M 668.085938 501.414062 L 680.855469 514.167969 L 640.574219 554.394531 L 627.808594 541.640625 Z M 668.085938 501.414062 "/>
<path style=" stroke:none;fill-rule:nonzero;fill:rgb(88.62915%,55.288696%,30.198669%);fill-opacity:1;" d="M 522.871094 501.398438 L 563.152344 541.628906 L 550.386719 554.378906 L 510.105469 514.148438 Z M 522.871094 501.398438 "/>
</g>
</svg>
